<svg id="Layer_1" data-name="Layer 1" xmlns="http://www.w3.org/2000/svg" viewBox="0 0 894.767 684.04">
  <g id="Layer_8" data-name="Layer 8">
    <path d="M67.141,684.04A60.908,60.908,0,0,1,9.782,643.78C1.813,621.581-36.352,496.892,121.764,390.2c155.128-104.68,90.614-251.165,287.469-278.968,204.855-11.951,234.091,137.8,324.861,268.844,52.613,75.958,151.467,129.69,159.021,221.545,9.664,58.573-24.771,82.443-59.065,82.421C642.323,683.915,67.141,684.04,67.141,684.04Z" fill="#f3f5fd"></path>
  </g>
  <g>
    <rect x="250.859" width="381.27" height="494.601" fill="#dee8f5"></rect>
    <g>
      <rect x="278.292" y="25.683" width="326.404" height="171.09" fill="#c1d8ed"></rect>
      <rect x="299.468" y="74.639" width="14.394" height="99.951" fill="#fff"></rect>
      <rect x="380.259" y="84.565" width="14.394" height="90.023" fill="#fff"></rect>
      <rect x="326.399" y="53.485" width="14.394" height="121.103" fill="#fff"></rect>
      <rect x="353.329" y="98.347" width="14.394" height="76.242" fill="#fff"></rect>
      <rect x="407.189" y="69.763" width="14.394" height="104.826" fill="#fff"></rect>
      <rect x="434.119" y="61.311" width="14.394" height="113.277" fill="#fff"></rect>
      <rect x="461.049" y="98.347" width="14.394" height="76.242" fill="#fff"></rect>
      <rect x="487.979" y="74.639" width="14.394" height="99.951" fill="#fff"></rect>
      <rect x="568.769" y="84.565" width="14.394" height="90.023" fill="#fff"></rect>
      <rect x="514.909" y="53.485" width="14.394" height="121.103" fill="#fff"></rect>
      <rect x="541.839" y="98.347" width="14.394" height="76.242" fill="#fff"></rect>
    </g>
    <g>
      <g>
        <circle cx="304.615" cy="245.601" r="24.261" fill="#fff"></circle>
        <rect x="350.213" y="229.404" width="252.422" height="10.657" fill="#fff"></rect>
        <rect x="350.213" y="249.66" width="78.054" height="10.657" fill="#fff"></rect>
        <path d="M300.4,258.1a2.721,2.721,0,0,1-1.866-.742l-9.329-8.8a2.719,2.719,0,0,1,3.732-3.955l7.313,6.9,15.889-17.51a2.719,2.719,0,1,1,4.027,3.653l-17.753,19.563a2.721,2.721,0,0,1-1.908.89Z" fill="#c1d8ed"></path>
      </g>
      <g>
        <circle cx="304.615" cy="310.69" r="24.261" fill="#fff"></circle>
        <rect x="350.213" y="294.493" width="252.422" height="10.657" fill="#fff"></rect>
        <rect x="350.213" y="314.749" width="78.054" height="10.657" fill="#fff"></rect>
        <path d="M300.4,323.19a2.725,2.725,0,0,1-1.866-.741l-9.329-8.8a2.719,2.719,0,0,1,3.732-3.955l7.313,6.9,15.889-17.509a2.719,2.719,0,1,1,4.027,3.653L302.416,322.3a2.721,2.721,0,0,1-1.908.89Z" fill="#c1d8ed"></path>
      </g>
      <g>
        <circle cx="304.615" cy="375.779" r="24.261" fill="#fff"></circle>
        <rect x="350.213" y="359.583" width="252.422" height="10.657" fill="#fff"></rect>
        <rect x="350.213" y="379.839" width="78.054" height="10.657" fill="#fff"></rect>
        <path d="M300.4,388.279a2.721,2.721,0,0,1-1.866-.741l-9.329-8.8a2.719,2.719,0,1,1,3.732-3.954l7.313,6.9,15.889-17.509a2.719,2.719,0,1,1,4.027,3.653l-17.753,19.562a2.717,2.717,0,0,1-1.908.89Z" fill="#c1d8ed"></path>
      </g>
      <g>
        <circle cx="304.615" cy="440.868" r="24.261" fill="#fff"></circle>
        <rect x="350.213" y="424.672" width="252.422" height="10.657" fill="#fff"></rect>
        <rect x="350.213" y="444.928" width="78.054" height="10.657" fill="#fff"></rect>
        <path d="M300.4,453.368a2.721,2.721,0,0,1-1.866-.741l-9.329-8.8a2.719,2.719,0,0,1,3.732-3.955l7.313,6.9,15.889-17.509a2.719,2.719,0,1,1,4.027,3.653l-17.753,19.562a2.713,2.713,0,0,1-1.908.89Z" fill="#c1d8ed"></path>
      </g>
    </g>
  </g>
  <g>
    <path d="M578.8,672.324c-2.4-20.17-2.4-22.246-2.4-22.928h22.752c0-.069,0-.158,0-.264.08,1.683,1.227,11.955,2.244,20.507Z" fill="#E98862"></path>
    <path d="M669.453,675.045s-.077-23.562-.077-25.649h22.752c0,2.082.077,25.575.077,25.575Z" fill="#E98862"></path>
    <path d="M570.4,664.458c1.884-47.063,1.893-98.4,2.584-145.548,7.705-51.585,11.985-108.117,21.6-159.334l.289.085.847-5.775,82.424-1.588,19.923,311.551-39.944,3.375L633.053,409.171c-7.965,38.045-13.308,77.5-20.356,115.159,0,0-2.372,94.427-2.213,140.811Z" fill="#262626"></path>
    <path d="M641.795,683.844a4.45,4.45,0,0,1-4.431-4.469c0-.11,0-.22.014-.331h0a4.454,4.454,0,0,1,2.881-3.824l26.481-8.869a3.752,3.752,0,0,1,3.112.346,20.694,20.694,0,0,0,12.425,3.685,18.449,18.449,0,0,0,9.556-3.491,1.675,1.675,0,0,1,2.738,1.3V681.14a2.9,2.9,0,0,1-2.9,2.9h-.013Z" fill="#c1d8ed"></path>
    <path d="M551.076,683.844a4.45,4.45,0,0,1-4.431-4.469c0-.11,0-.22.014-.331h0a4.454,4.454,0,0,1,2.881-3.824l26.481-8.869a3.752,3.752,0,0,1,3.112.346,20.694,20.694,0,0,0,12.425,3.685,18.449,18.449,0,0,0,9.556-3.491,1.675,1.675,0,0,1,2.738,1.3V681.14a2.9,2.9,0,0,1-2.9,2.9h-.013Z" fill="#c1d8ed"></path>
    <g>
      <path d="M702.4,387.838c0,3.229-1.7,14.023,1.037,14.794,1.644.462,3.586-7.582,3.586-7.582" fill="#E98862"></path>
      <path d="M715.348,386.143s8.953,21.792-1.259,34.312a2.045,2.045,0,0,1-3.625-1.172c-.5-8.441-2.2-25.779-7.764-23.754V381.917" fill="#E98862"></path>
    </g>
    <path d="M513.461,270.039s-12.5-9.932-13.389-13.5,7.922-10.584,7.922-10.584-11.71-11.8-9.375-13.515c2.756-2.02,16.344,15.148,16.344,15.148s-1.921-6.177.472-6.582c.983-.166,1.762.8,3.3,5.17,1.753,4.981,5.257,12.477,5.257,12.477Z" fill="#E98862"></path>
    <path d="M652.83,236.1s-8.712-3.743-8.712-26.632L626.6,207.684s3.61,20.226-4.587,27.414Z" fill="#E98862"></path>
    <path d="M653.183,199.849c-.629,7-3.858,13.838-9.76,16.565a43.866,43.866,0,0,1-20.671,4.538c-19.012,0-18.8-43.248-10.515-52.324s35.03-5.952,39.374,7.737C653.859,183.444,653.781,193.19,653.183,199.849Z" fill="#E98862"></path>
    <g>
      <circle cx="625.604" cy="195.186" r="1.569" fill="#367CFF"></circle>
      <path d="M628.69,192.077a.743.743,0,0,1-.115-.009l-4.168-.648a.737.737,0,1,1,.227-1.457l4.168.648a.737.737,0,0,1-.112,1.466Z" fill="#367CFF"></path>
    </g>
    <path d="M614.1,183.019c7.435,33.348,14.281,42.262,31.518,35.585,3.952-1.531,13.421-10.92,14.369-30.9.848-17.862-13.442-27.266-22.425-28.516-34.137-4.747-35.335,26.077-35.335,26.077,17.132,2.937,40.468-1.916,40.468-1.916" fill="#0f1011"></path>
    <circle cx="655.222" cy="172.521" r="15.174" fill="#0f1011"></circle>
    <path d="M526.625,256.833l36.986,41.612,28.966-51.85c2.752-8.138,8.977-13.6,21.656-14.138,4.349-.187,25.575-.22,41.115-.22,10.441,0,19.012,3.2,23.961,8.153a21.818,21.818,0,0,1,5.439,8.806l.149-.055,24.869,67.622a11.785,11.785,0,0,1,.6,2.343L720.4,386.728,697.034,390.2l-9.859-66.42-10.042-27.308a57.785,57.785,0,0,0-1.7,12.823c0,22.757,10.289,32.956,9.536,44.633-1.193,18.359-90.389,14.021-94.934,3.593-4.679-10.755,4.818-17.38,4.4-52.557-.045-3.827-.341-7.832-.748-11.909L576.135,324.47a11.81,11.81,0,0,1-19.141,2.086l-48.628-56.884Z" fill="#367CFF"></path>
    <path d="M613.294,201.849a6.655,6.655,0,0,0,13.31,0,6.544,6.544,0,0,0-6.431-6.655h-.224C615.209,195.427,613.294,198.173,613.294,201.849Z" fill="#E98862"></path>
  </g>
  <g>
    <path d="M757.473,616.006c4.058-1.328,8.222.166,12.206,3.193-5.247-13.252-7.414-25.222,1.559-25.761,6.277-.377,11.086,4.439,14.739,11.286,1.285-12.039,4.6-21.017,12.026-18.041,8.152,3.269,9.392,14.469,8.155,26.188,3.592-5.985,7.459-9.323,10.97-5.812,10.479,10.478-15.242,40.01-15.242,40.01H795.5l-3.645,3.958c.738,1.56,1.142,2.489,1.142,2.489l-4.631,9.423S740.634,621.518,757.473,616.006Z" fill="#8ddbe0"></path>
    <polygon points="768.926 684.04 805.078 684.04 811.13 641.837 762.875 641.837 768.926 684.04" fill="#c1d8ed"></polygon>
  </g>
  <g>
    <g>
      <rect x="136.493" y="464.573" width="10.055" height="53.316" transform="translate(116.82 -19.382) rotate(13.302)" fill="#f0f6ff"></rect>
      <g>
        <rect x="130.72" y="460.22" width="5.524" height="46.31" transform="translate(-85.473 32.235) rotate(-10.452)" fill="#c1d8ed"></rect>
        <rect x="126.998" y="460.559" width="5.524" height="5.113" transform="translate(-84.29 32.423) rotate(-10.775)" fill="#dee8f5"></rect>
      </g>
      <rect x="117.507" y="492.994" width="48.026" height="3.242" transform="translate(-370.545 444.997) rotate(-68.498)" fill="#0cbc8b"></rect>
      <rect x="126.133" y="491.231" width="26.535" height="33.914" fill="#dee8f5"></rect>
    </g>
    <g>
      <g>
        <rect x="223.502" y="586.404" width="9.925" height="97.637" transform="translate(456.928 1270.444) rotate(-180)" fill="#c1d8ed"></rect>
        <rect x="231.67" y="586.404" width="9.925" height="97.637" transform="translate(473.264 1270.444) rotate(-180)" fill="#dee8f5"></rect>
      </g>
      <g>
        <rect x="99.88" y="586.404" width="9.925" height="97.637" transform="translate(209.685 1270.444) rotate(-180)" fill="#c1d8ed"></rect>
        <rect x="108.048" y="586.404" width="9.925" height="97.637" transform="translate(226.021 1270.444) rotate(-180)" fill="#dee8f5"></rect>
      </g>
      <g>
        <rect x="196.28" y="586.404" width="9.925" height="97.637" transform="translate(402.485 1270.444) rotate(-180)" fill="#c1d8ed"></rect>
        <rect x="204.448" y="586.404" width="9.925" height="97.637" transform="translate(418.821 1270.444) rotate(-180)" fill="#dee8f5"></rect>
      </g>
      <g>
        <rect x="72.658" y="586.404" width="9.925" height="97.637" transform="translate(155.241 1270.444) rotate(-180)" fill="#c1d8ed"></rect>
        <rect x="80.826" y="586.404" width="9.925" height="97.637" transform="translate(171.578 1270.444) rotate(-180)" fill="#dee8f5"></rect>
      </g>
      <rect x="72.658" y="523.907" width="133.485" height="64.838" fill="#c1d8ed"></rect>
      <rect x="108.11" y="523.907" width="133.485" height="64.838" fill="#dee8f5"></rect>
      <g opacity="0.53">
        <rect x="115.291" y="533.124" width="119.123" height="46.117" fill="#f3f5fd"></rect>
      </g>
      <circle cx="174.852" cy="556.183" r="5.291" fill="#fff"></circle>
    </g>
  </g>
</svg>