<?xml version="1.0" encoding="UTF-8"?>
<svg id="Capa_1" data-name="Capa 1" xmlns="http://www.w3.org/2000/svg" viewBox="0 0 800 600">
  <defs>
    <style>
      .cls-1 {
        fill: #f3f5fd;
      }

      .cls-2 {
        fill: #e98862;
      }

      .cls-3, .cls-4, .cls-5 {
        fill: #fff;
      }

      .cls-6 {
        fill: #fafafa;
      }

      .cls-7 {
        fill: #9ebcea;
      }

      .cls-8 {
        fill: #8ddbe0;
      }

      .cls-9, .cls-10, .cls-11 {
        fill: #0c0c0c;
      }

      .cls-12 {
        fill: #367cff;
      }

      .cls-13 {
        fill: #292a2e;
      }

      .cls-14 {
        fill: #262626;
      }

      .cls-15 {
        fill: #494949;
      }

      .cls-4, .cls-10 {
        opacity: .2;
      }

      .cls-4, .cls-10, .cls-5, .cls-16, .cls-11 {
        isolation: isolate;
      }

      .cls-17 {
        stroke-width: 3.4px;
      }

      .cls-17, .cls-18 {
        fill: none;
        stroke: #fafafa;
        stroke-miterlimit: 10;
      }

      .cls-5, .cls-16 {
        opacity: .8;
      }

      .cls-16 {
        fill: #0a0a0a;
      }

      .cls-11 {
        opacity: .5;
      }

      .cls-18 {
        stroke-width: 3.8px;
      }
    </style>
  </defs>
  <path class="cls-8" d="M220.4,523.3H63c-11.5-9.2-12.3-30-.4-39.3,9.2-7.1,23.2-5.2,31.8,2.2-1.6-5.5-1.7-11.4,0-17,2.8-10,9.1-20.2,18.7-24.2,24.4-10.3,41.8,11.3,45.3,23.4,6.3-9.2,20.2-14.1,29-7.9,11.1,7.8,10.6,20.2,1.7,29.1,11.8-2.2,20.7-.5,28.9,8.3,6.2,6.7,7.2,18.1,2.5,25.4Z"/>
  <g>
    <rect id="housebhk_1" data-name="housebhk 1" class="cls-1" x="177.5" y="231.1" width="493.4" height="293.1"/>
    <rect id="housebhk_1-2" data-name="housebhk 1-2" class="cls-7" x="250.3" y="274.3" width="162.5" height="165.6"/>
    <rect id="housebhk_1-3" data-name="housebhk 1-3" class="cls-17" x="250.3" y="274.3" width="162.5" height="165.6"/>
    <line id="housebhk_1-4" data-name="housebhk 1-4" class="cls-18" x1="331.6" y1="275.9" x2="331.6" y2="438.3"/>
    <line id="housebhk_1-5" data-name="housebhk 1-5" class="cls-18" x1="412.8" y1="357.1" x2="250.3" y2="357.1"/>
    <g id="housebhk_1-6" data-name="housebhk 1-6">
      <rect id="housebhk_1-7" data-name="housebhk 1-7" class="cls-7" x="489.3" y="284.3" width="130.1" height="239.9"/>
      <path id="housebhk_1-8" data-name="housebhk 1-8" class="cls-6" d="M501.8,420.9h0c-1.9,0-3.5-1.6-3.5-3.5v-23c0-1.9,1.6-3.5,3.5-3.5h0c1.9,0,3.5,1.6,3.5,3.5v23c0,1.9-1.6,3.5-3.5,3.5Z"/>
    </g>
    <polyline id="housebhk_1-9" data-name="housebhk 1-9" class="cls-1" points="163.6 238.9 424.3 51.8 683.8 238.1"/>
    <path id="housebhk_1-10" data-name="housebhk 1-10" class="cls-7" d="M703.1,241.5v18.5c0,1.2-1,2.1-2.1,2.1-.4,0-.9-.1-1.2-.4L424.3,64,147.6,262.6c-1,.7-2.3,.5-3-.5-.3-.4-.4-.8-.4-1.2v-18.5c0-1.1,.6-2.2,1.5-2.9L418.4,43.7c3.5-2.5,8.1-2.5,11.6,0l271.6,194.9c.9,.7,1.5,1.7,1.5,2.9Z"/>
  </g>
  <g>
    <polygon class="cls-15" points="139.7 571.7 138.4 571.4 158.7 369.6 160 369.9 139.7 571.7"/>
    <polygon class="cls-15" points="215.3 571.7 214 571.4 234.3 369.6 235.6 369.9 215.3 571.7"/>
    <g>
      <polygon class="cls-15" points="382.4 571.7 383.7 571.4 363.4 369.6 362.1 369.9 382.4 571.7"/>
      <polygon class="cls-15" points="306.8 571.7 308.1 571.4 287.8 369.6 286.5 369.9 306.8 571.7"/>
    </g>
    <rect class="cls-15" x="284.5" y="280.5" width="1.3" height="89.6" transform="translate(-40.5 40.6) rotate(-7.6)"/>
    <rect class="cls-15" x="148.3" y="280.5" width="1.3" height="89.6" transform="translate(-41.7 22.6) rotate(-7.6)"/>
    <g>
      <rect class="cls-13" x="151.9" y="363.2" width="146.2" height="13" rx="6.5" ry="6.5"/>
      <rect class="cls-5" x="151.9" y="363.2" width="146.2" height="13" rx="6.5" ry="6.5"/>
      <path class="cls-13" d="M291.6,376.9H158.4c-4,0-7.1-3.3-7.1-7.2,0-3.9,3.2-7.1,7.1-7.1h133.2c4,0,7.1,3.3,7.1,7.2,0,3.9-3.2,7.1-7.1,7.1Zm-133.2-13c-3.2,0-5.8,2.7-5.8,5.9,0,3.2,2.6,5.7,5.8,5.8h133.2c3.2,0,5.8-2.7,5.8-5.9,0-3.2-2.6-5.7-5.8-5.8H158.4Z"/>
    </g>
    <g>
      <rect class="cls-3" x="225" y="363.2" width="146.2" height="13" rx="6.5" ry="6.5"/>
      <path class="cls-13" d="M364.7,376.9H231.5c-4,0-7.2-3.1-7.2-7.1,0-4,3.1-7.2,7.1-7.2,0,0,0,0,.1,0h133.2c4,0,7.2,3.1,7.2,7.1,0,4-3.1,7.2-7.1,7.2,0,0,0,0-.1,0Zm-133.2-13c-3.2,0-5.9,2.6-5.9,5.8s2.6,5.9,5.8,5.9c0,0,0,0,.1,0h133.2c3.2,0,5.9-2.6,5.9-5.8,0-3.2-2.6-5.9-5.8-5.9,0,0,0,0-.1,0H231.5Z"/>
    </g>
    <g>
      <path class="cls-13" d="M272.6,280.9H143.4c-4.4,0-8.1-3.2-8.6-7.6l-8.5-65.6c-.6-4.8,2.7-9.1,7.5-9.7,.4,0,.7,0,1.1,0h129.2c4.4,0,8.1,3.2,8.6,7.6l8.5,65.6c.6,4.8-2.7,9.1-7.5,9.7-.4,0-.7,0-1.1,0Z"/>
      <path class="cls-5" d="M272.6,280.9H143.4c-4.4,0-8.1-3.2-8.6-7.6l-8.5-65.6c-.6-4.8,2.7-9.1,7.5-9.7,.4,0,.7,0,1.1,0h129.2c4.4,0,8.1,3.2,8.6,7.6l8.5,65.6c.6,4.8-2.7,9.1-7.5,9.7-.4,0-.7,0-1.1,0Z"/>
      <path class="cls-13" d="M272.6,281.6H143.4c-4.7,0-8.7-3.5-9.3-8.1l-8.5-65.6c-.7-5.1,2.9-9.8,8.1-10.5,.4,0,.8,0,1.2,0h129.2c4.7,0,8.7,3.5,9.3,8.1l8.5,65.6c.7,5.1-2.9,9.8-8.1,10.5-.4,0-.8,0-1.2,0h0Zm-137.7-83c-4.4,0-8,3.6-8,8,0,.3,0,.7,0,1l8.5,65.6c.5,4,3.9,7,8,7h129.2c4.4,0,8-3.6,8-8,0-.3,0-.7,0-1l-8.5-65.6c-.5-4-3.9-7-8-7H134.9Z"/>
    </g>
    <g>
      <path class="cls-3" d="M279.9,280.9H150.7c-4.4,0-8.1-3.2-8.6-7.6l-8.5-65.6c-.6-4.8,2.7-9.1,7.5-9.7,.4,0,.7,0,1.1,0h129.2c4.4,0,8.1,3.2,8.6,7.6l8.5,65.6c.6,4.8-2.7,9.1-7.5,9.7-.4,0-.7,0-1.1,0Z"/>
      <path class="cls-13" d="M279.9,281.6H150.7c-4.7,0-8.7-3.5-9.3-8.1l-8.5-65.6c-.7-5.1,2.9-9.8,8.1-10.5,.4,0,.8,0,1.2,0h129.2c4.7,0,8.7,3.5,9.3,8.1l8.5,65.6c.7,5.1-2.9,9.8-8.1,10.5-.4,0-.8,0-1.2,0h0Zm-137.7-83c-4.4,0-8,3.6-8,8,0,.3,0,.7,0,1l8.5,65.6c.5,4,3.9,7,8,7h129.2c4.4,0,8-3.6,8-8,0-.3,0-.7,0-1l-8.5-65.6c-.5-4-3.9-7-8-7H142.2Z"/>
    </g>
  </g>
  <g>
    <path class="cls-12" d="M462,537.9s3.5,18.4,20.8,19.4c17.2,1,13.5,14.7,13.5,14.7h-65.8v-32.9l31.5-1.3Z"/>
    <path class="cls-12" d="M336.9,526.3s-4.9,18.1,10.1,26.6c15,8.5,5.6,19.2,5.6,19.2l-59-29,14.5-29.5,28.9,12.8Z"/>
    <g>
      <path class="cls-9" d="M283.9,97.9s8.6-6.5,10.7-21.4c1.6-11.5-9-4.1-9-4.1,0,0,1.1-8.3-5-7.5s-9.5,9.6-9.5,9.6"/>
      <path class="cls-9" d="M249.3,65.9s-30.1,3.2-19.2,44l2.7,.2,5.4,.4"/>
      <path id="sk" class="cls-2" d="M278.9,152.5c-.1,0-1.6,24.3-29.9,22.2-19.6-1.5-26.6-22.3-27-22.3,2.1-.4,4.7-1.1,5.8-1.4,4.6-1.1,8.1-4.9,8.7-9.6,.6-3.5-.4-21.1,0-24.6l30.1,6.7c-.4,7.4-3.4,24.5,6.9,27.5,1.7,.5,3.6,1,5.5,1.4Z"/>
      <path id="sh" class="cls-11" d="M266.8,144.1c-.5-1.5-.8-3.1-.9-4.7-.3-3.6-.3-7.3,.2-10.9-6.1-.8-11.9-3.3-16.6-7.3-.6,2.1-3.6,11.1-2.8,13,1.6,3.7,9.2,9.8,20.1,9.8Z"/>
      <path class="cls-2" d="M260.6,139.3c-11.9-1.1-26.1-8.6-26.3-24.7l-.2-14.5c-.2-16.1,8.1-29.3,23.3-29.5h0c15.2-.2,26.7,12.7,26.9,28.8v6.4c0,2.2,0,4.4-.4,6.6-.8,5.8-2,14.6-5.9,20.5-3.7,5.6-9.8,6.9-17.4,6.3Z"/>
      <path class="cls-9" d="M266.1,124.6c2.4,.1,4.9-.4,7.1-1.4,.2,0,.3-.3,.2-.5s-.3-.3-.5-.2h0c-4.8,2.1-9.2,1.8-12.6-.9,0,0-.1-.1-.2-.2-.2,0-.4,0-.5,.2,0,.2,0,.4,.1,.5,0,0,0,0,.1,.1,1.8,1.4,4,2.2,6.3,2.3Z"/>
      <path class="cls-9" d="M266,128.2c.4,0,.9,0,1.3,0,.2,0,.4-.2,.3-.4,0-.2-.2-.4-.4-.3h0c-2.7,.3-3.9-.9-4-1-.2-.1-.4-.1-.5,0-.1,.1-.1,.4,0,.5,.9,.8,2.1,1.2,3.3,1.2Z"/>
      <circle class="cls-9" cx="279.3" cy="107.1" r="1.9"/>
      <circle class="cls-9" cx="261" cy="106" r="1.9"/>
      <path class="cls-2" d="M235.4,119.5c-4.6,0-8.4-4.8-8.5-9.4s3.6-7.2,8.3-7.3l2.4,3.1,1.8,13.6h-4Z"/>
      <g>
        <path class="cls-9" d="M240,112.1s1.6-22.8,8.5-24.2c4.6-.9,15.8,5.6,26.1,3.6,4.5-.9,8.8,.3,9.3,2.4,.2,.8,3-11.3-4.1-20.5-5.6-7.3-24.1-9.4-32.5-7-23.2,6.7-13,37.5-13,37.5l1,7.9,4.7,.4Z"/>
        <path class="cls-9" d="M268.9,119.2s0,0,0,0c1.5,0,4-.2,4-1.3,0-.9-2.6-10.8-2.9-12,0-.2-.3-.3-.5-.2-.2,0-.3,.2-.2,.4,1.2,4.4,2.9,11.1,2.9,11.8-.1,.3-1.7,.5-3.2,.6-.2,0-.4,.2-.4,.4,0,.2,.2,.4,.3,.4h0Z"/>
        <path class="cls-9" d="M274,97c1.6-.4,3.2-.4,4.8,0,.8,.2,1.5,.5,2.2,.9,.7,.4,1.3,.9,1.8,1.5,.2,.2,.2,.6,0,.8-.2,.2-.5,.2-.8,0h0c-.5-.5-1.1-.9-1.7-1.2-.6-.3-1.2-.6-1.9-.7-1.3-.3-2.6-.2-3.9,.2h0c-.4,.2-.9,0-1.1-.5-.2-.4,0-.9,.5-1.1h0Z"/>
        <path class="cls-9" d="M262.9,97.9c-1.2-.6-2.5-.8-3.8-.7-.7,0-1.3,.2-2,.4-.6,.2-1.2,.6-1.8,1h0c-.3,.2-.6,.1-.8-.1-.2-.2,0-.6,.1-.7,.6-.5,1.3-.9,2-1.2,.7-.3,1.5-.5,2.3-.7,.8-.1,1.6-.1,2.4,0,.8,.1,1.6,.3,2.4,.6,.4,.2,.6,.7,.4,1.1-.2,.4-.7,.6-1.1,.4h0s0,0,0,0h0Z"/>
      </g>
      <ellipse class="cls-9" cx="269.9" cy="72.2" rx="6.3" ry="9.3" transform="translate(-9.1 56.7) rotate(-11.8)"/>
    </g>
    <g>
      <path class="cls-14" d="M300.3,521.2l49.8-157h-90.2c-18.1,0-25.7-15.4-25.7-33.5s17.8-34,35.9-34h121.8c11.1,0,23.4,6.8,29.5,16,6.1,9.2,4.4,23.6,0,33.7l-79.7,193.6"/>
      <path class="cls-16" d="M300.3,521.2l49.8-157h-90.2c-18.1,0-25.7-15.4-25.7-33.5s17.8-34,35.9-34h121.8c11.1,0,23.4,6.8,29.5,16,6.1,9.2,4.4,23.6,0,33.7l-79.7,193.6"/>
      <path class="cls-14" d="M426.7,555l-83.2-190.8h-109.3c-25.6-2-37.3-16-37-34.2,.4-17.9,9.4-35.6,27.2-35.6h147.3c13.2,.3,23.5,14.8,28.4,27.1l69.2,221.8"/>
      <path class="cls-14" d="M189.8,294.7s-4.9,31.6,2.8,49.2c9.6,22,45.6,20.3,45.6,20.3l-2-69.7-46.4,.2Z"/>
    </g>
    <path class="cls-12" d="M403.3,294l-77.2-16c-6.5-1.4-11.9-6-14.3-12.2l-30.4-80c-3.9-10.1,1.1-21.4,11.2-25.2,10.1-3.9,21.4,1.1,25.2,11.2,0,0,0,.1,0,.2l26.6,70,66.7,13.8s-6.6,38.5-7.9,38.3Z"/>
    <path class="cls-12" d="M314,206.1c-.9,10.5-7.2,75.8-8.1,88.7h-116.1c-.7-11.6-3.7-62.5-6.2-85.3-2.4-21.7-5.8-31.6-3-38.3,4.9-11.9,20.5-17.2,31.1-18.6,6.5-.9,16.2-1.5,16.2-1.5,0,0,.8,16.6,20.4,17.6,26.7,1.3,24.9-17.6,25-17.6,4.3,0,27.9,3.1,33.8,7,8.3,5.4,10.8,12.8,10.9,19.6,.1,7.8-2.9,16.6-4,28.5Z"/>
    <path class="cls-9" d="M309.5,259.5h0c-.2,0-.3-.2-.3-.4,0,0,0,0,0,0l3-36.2c0-.2,.2-.3,.3-.3,0,0,0,0,0,0,.2,0,.3,.2,.3,.4,0,0,0,0,0,0l-3,36.2c0,.2-.2,.3-.3,.3Z"/>
    <g>
      <path class="cls-13" d="M328.1,287.7l25.5-78.3c.9-2.8,3.6-4.7,6.5-4.7h103.8c3.8,0,6.9,3.1,6.9,6.9,0,.7-.1,1.4-.3,2.1l-25.5,78.3c-.9,2.8-3.6,4.7-6.5,4.7h-103.8c-3.8,0-6.9-3.1-6.9-6.9,0-.7,.1-1.4,.3-2.1Z"/>
      <path class="cls-4" d="M328.1,287.7l25.5-78.3c.9-2.8,3.6-4.7,6.5-4.7h103.8c3.8,0,6.9,3.1,6.9,6.9,0,.7-.1,1.4-.3,2.1l-25.5,78.3c-.9,2.8-3.6,4.7-6.5,4.7h-103.8c-3.8,0-6.9-3.1-6.9-6.9,0-.7,.1-1.4,.3-2.1Z"/>
      <rect class="cls-13" x="276.3" y="290.3" width="75.8" height="6.4" rx="3.1" ry="3.1"/>
      <rect class="cls-4" x="276.3" y="290.3" width="75.8" height="6.4" rx="3.1" ry="3.1"/>
      <circle class="cls-3" cx="399.3" cy="254.5" r="10.9"/>
    </g>
    <g>
      <rect class="cls-3" x="287.5" y="191.5" width="27.6" height="33.9"/>
      <path class="cls-3" d="M287.5,219.8c-6.2,0-11.3-5.1-11.3-11.3s5.1-11.3,11.3-11.3,11.3,5.1,11.3,11.3c0,6.2-5.1,11.3-11.3,11.3Zm0-18c-3.7,0-6.7,3-6.7,6.7s3,6.7,6.7,6.7,6.7-3,6.7-6.7h0c0-3.7-3-6.7-6.7-6.7Z"/>
    </g>
    <g id="ha">
      <path class="cls-2" d="M289.1,213.5c-.5-1.3-1.9-2.1-3.4-1.9,0,0,0,0,0,0l.9-.4c1.3-.6,2.1-2,1.8-3.4-.4-1.6-2-2.6-3.6-2.3-.2,0-.4,.1-.6,.2l-2.2,1s0,0,0,0c0,0,0,0,0,0,1.1-.8,1.5-2.3,.9-3.6-.6-1.6-2.8-1.8-4.2-1.1l-5.7,2.3,1.7-1.7c1.1-1.2,1.1-3,0-4.2-1.2-1.2-3-1.2-4.2,0,0,0,0,0-.1,.1l-20.3,22.2,6.9,6.7c4.4,4.3,11,5.4,16.6,2.9l12.4-5.5c1.3-.6,2.1-2,1.8-3.4-.3-1.3-1.4-2.2-2.7-2.3,0-.1,0-.3-.2-.3,0,0,0,0,0,0l2.3-1c1.5-.6,2.3-2.3,1.7-3.9Z"/>
      <path id="sh-2" class="cls-10" d="M278,208.5c-.2,0-.3-.1-.3-.3,0-.1,0-.2,.2-.3l3.9-1.5c.1,0,.3,0,.4,.2,0,.1,0,.3-.2,.4l-3.9,1.5s0,0-.1,0Z"/>
      <path id="sh-3" class="cls-10" d="M280.2,213.9c-.2,0-.3-.1-.3-.3,0-.1,0-.2,.2-.3l5.3-2.1c.1,0,.3,0,.4,.2,0,.1,0,.3-.1,.3l-5.3,2.1s0,0-.1,0Z"/>
      <path id="sh-4" class="cls-10" d="M282.5,219.9c-.2,0-.3-.1-.3-.3,0-.1,0-.2,.2-.3l2.5-.9c.1,0,.3,0,.4,.2s0,.3-.2,.4l-2.5,.9s0,0,0,0Z"/>
    </g>
    <g>
      <path class="cls-3" d="M294.9,170c-.2,0-.5-.1-.6-.4-1.5-2.9-3.4-6.6-3.2-10.4,.2-3,1.6-5.8,3-8.4,.9-1.6,1.7-3.2,2.3-4.9,1.5-4.8,.7-10-2.2-14-.2-.3-.2-.7,.1-.9s.7-.2,.9,.1c0,0,0,0,0,0,3.2,4.4,4.1,10.1,2.4,15.2-.6,1.8-1.4,3.5-2.4,5.1-1.4,2.6-2.7,5.1-2.8,7.8-.2,3.5,1.5,6.8,3,9.7,.2,.3,0,.7-.3,.9,0,0-.2,0-.3,0h0Z"/>
      <path class="cls-3" d="M305.6,180.3c-.4,0-.7-.3-.7-.7,0-.2,.1-.5,.3-.6,2.5-1.4,2.7-5.1,1.6-8-.6-1.3-1.2-2.6-2-3.8-1-1.6-1.8-3.3-2.5-5-1.3-4.4,0-9.1,3.2-12.4,.3-.3,.7-.2,.9,0,.2,.3,.2,.7,0,.9-2.9,2.9-4,7.1-2.8,11,.6,1.7,1.4,3.3,2.3,4.7,.8,1.3,1.5,2.6,2.1,4,1.3,3.3,1,7.9-2.2,9.6,0,0-.2,0-.3,0Z"/>
    </g>
    <path class="cls-12" d="M273.6,238l-97.4,40.3c-10,4.1-21.4-.7-25.5-10.7-1.9-4.5-1.9-9.6-.2-14.2l29.1-79.3c3.8-10.1,14.3-15.9,24.5-12.2,10.1,3.8,15.3,15,11.5,25.1l-13.3,37.6,57.1-22"/>
    <path class="cls-9" d="M273.3,238.4c-.1,0-.2,0-.2-.2l-14.2-35.2-56.9,22c-.1,0-.3,0-.3-.1,0,0,0-.1,0-.2l8.8-22.6c0-.1,.2-.2,.3-.1,.1,0,.2,.2,.1,.3l-8.6,22,56.6-21.8c.1,0,.3,0,.3,.1l14.3,35.4c0,.1,0,.3-.1,.3,0,0,0,0,0,0Z"/>
    <path class="cls-9" d="M184.1,231.9c-.1,0-.3-.1-.3-.3,0-.1,0-.2,.2-.2l17.8-7c.1,0,.3,0,.3,.1,0,.1,0,.3-.1,.3,0,0,0,0,0,0l-17.8,7s0,0,0,0Z"/>
    <path class="cls-9" d="M188.3,273.6c-.1,0-.3-.1-.3-.3,0-.1,0-.2,.2-.2l85-35.2c.1,0,.3,0,.3,.1s0,.3-.1,.3l-85,35.2s0,0,0,0Z"/>
  </g>
  <g>
    <path class="cls-12" d="M609.1,61.4s0,0-.1,0h0c-4.2,.4-15.2,3.6-28.8,9.1-13.8,5.6-27.3,7.6-38.6,10.6-11.2,3-9.2,17.3-9.2,17.3,0,0,4.2,57.5,5.9,67,8.2,45.3,69.8,81.4,69.8,81.4h0s62.5-35.4,70.9-81.2c1.8-9.6,6.1-68.2,6.1-68.2,0,0,2.1-14.5-9.5-17.4-11.6-2.9-25.4-4.7-39.4-10-13.8-5.3-23-8.2-27.1-8.5h0s0,0-.1,0Z"/>
    <path class="cls-7" d="M609.4,28.2c0,0-.1,0-.2,0h0c-6.1,.6-22.2,5-42.1,12.7-20.1,7.7-39.7,10.5-56.2,14.8-16.3,4.2-13.3,23.8-13.3,23.8,0,0,6.1,79.1,8.6,92.2,11.9,62.3,101.8,112.3,101.8,112.3h0s91.6-48.6,104-112c2.6-13.3,9-94.3,9-94.3,0,0,3.1-20.1-13.9-24-17.1-4-37.3-6.4-57.8-13.7-20.2-7.2-33.7-11.2-39.7-11.7h0c0,0-.1,0-.2,0Zm32.4,29.1c15.7,5.6,30.9,8.6,44.4,11.2,0,0,12.1,2.9,14.3,3.4,0,0,.5,0,.4,3.3,0,.5,0,.6-.1,1.2-2.4,30.9-7,83.2-8.7,92.2-5.3,27.3-30,52.5-49.7,68.8-13.1,10.8-25.8,19.2-34.2,24.4-8.3-5.3-20.6-13.7-33.4-24.6-19.6-16.5-43.9-41.9-49.1-68.9-1.7-8.8-6-60.2-8.4-90.4,0-.6,0-.7-.1-1.2-.1-1.1,0-2.7,.2-3.7,4.3-1.1,9-2.1,13.9-3.1,13.1-2.8,27.9-6,43.3-11.9,17.4-6.7,29.8-10,34.8-11,3.2,.6,11.8,2.8,32.5,10.3Z"/>
    <polygon class="cls-3" points="652.7 94.9 614.1 133.5 592.1 155.5 573.1 136.5 556.5 153.1 592.1 188.7 592.1 188.7 592.1 188.7 614.1 166.7 669.3 111.5 652.7 94.9"/>
  </g>
</svg>