<svg id="Capa_1" data-name="Capa 1" xmlns="http://www.w3.org/2000/svg" width="305.11" height="297.63" viewBox="0 0 305.11 297.63"><path d="M32.92,124.6C56.93,65.22,92.58,14,135.66,22.51l-7.74,14.82c43.48,49.84-1.57-18.18-46.5,63.34a366,366,0,0,0-23.51,51.55Z" style="fill:#6b7fbb"/><path d="M275.59,138.39c-16.1-6.38-24.75-1.14-38.54,25.92-9.63,18.9-11.14,32-6,29.65l29.57-26.34,14.07-23.28" style="fill:#6b7fbb"/><path d="M188,55c-37.8,6.63-80.45,83.95-103.26,128.21C63.38,224.63,40,284.13,59.41,275.15s54.85-70.4,54.85-70.4L147.55,112l5,27s29-75.23,53.75-45.91l3.86,2.53-4.08-23.07L196,61.62l-3.68-4.51Z" style="fill:#6b7fbb"/><path d="M153,230.81C140.32,236.53,175.94,81.05,244.6,97c56.23,13.09-3,90.63-3,90.63l25.3-64.55-10.17-2.79s5.73,5.21-.82-3.42c-12.58-16.55-42-.84-61.14,30.45s-16.54,53.85-16.54,53.85L162,222.67Z" style="fill:#6b7fbb"/><path d="M233,95.88c31.49-.77,50.73,19.19,44.33,53.43a50.37,50.37,0,0,1-28.18,36.11L231.06,194C260.65,148.42,263.07,102.41,233,95.88Z" style="fill:#6b7fbb"/><path d="M107.3,25.62a55.85,55.85,0,0,1,28.36-3.11c46,6.24,28.21,110.18-14.69,205.72a68.79,68.79,0,0,1-34,34.21L59.41,275.15C150.93,105.8,125.61,36.74,107.3,25.62Z" style="fill:#ffffff"/><path d="M188,55c55-9.38,52.14,60.47,20.79,132.2a66.41,66.41,0,0,1-34.35,34.29L153,230.81C210.22,140.22,201.19,63,188,55Z" style="fill:#ffffff"/><path d="M233,95.88c31.49-.77,50.73,19.19,44.33,53.43a50.37,50.37,0,0,1-28.18,36.11L231.06,194C260.65,148.42,263.07,102.41,233,95.88Z" style="fill:#ffffff"/></svg>