<svg id="Capa_1" data-name="Capa 1" xmlns="http://www.w3.org/2000/svg" width="800" height="600" viewBox="0 0 800 600"><ellipse cx="542.03" cy="569.94" rx="153.91" ry="14.2" style="fill:#fff"/><ellipse cx="542.03" cy="569.94" rx="153.91" ry="14.2" style="fill:#2d2e31;isolation:isolate;opacity:0.100000001490116"/><path d="M596,317.55c-30.42,0-55.07,8.3-55.07,18.53v22.06H651.08V336.08C651.08,325.85,626.43,317.55,596,317.55Z" style="fill:#537bfa"/><path d="M596,317.55c-30.42,0-55.07,8.3-55.07,18.53v22.06H651.08V336.08C651.08,325.85,626.43,317.55,596,317.55Z" style="fill:#fff;isolation:isolate;opacity:0.490000009536743"/><path d="M636.08,336.08v22.06H541V336.08c0-9.38,20.7-17.13,47.56-18.35C615.38,319,636.08,326.7,636.08,336.08Z" style="fill:#fff;isolation:isolate;opacity:0.490000009536743"/><polygon points="651.08 572.51 652.93 572.51 651.08 356.19 649.25 358.03 650.55 509.14 585.32 510.25 584 358.02 582.17 358.03 583.49 510.28 544.1 510.95 542.78 358.02 540.95 356.2 542.8 572.51 544.61 572.49 544.12 512.78 583.5 512.11 584 572.51 585.83 572.49 585.33 512.08 650.57 510.97 651.08 572.51" style="fill:#2d2e31"/><path d="M485,540.12s-3.27,17-19.16,17.92-12.45,13.61-12.45,13.61h60.74V541.3Z" style="fill:#537bfa"/><path d="M519.64,489.06s4.55,16.68-9.29,24.55-5.16,17.7-5.16,17.7l54.5-26.81-13.4-27.23Z" style="fill:#537bfa"/><path d="M513.87,500.09,472.81,345.14c-3.12-17.12,1.57-24.54,8.8-31.74,12.69-12.67,65.3-39.62,65.3-39.62l63.11-.17c16.73,0,33.18,16.5,33.18,33.23s-17,30.93-33.74,30.93l-77.72,7.76L552.81,487.4Z" style="fill:#2a2a2a"/><polygon points="552.81 487.4 544.51 431.54 502.5 457.17 513.87 500.08 552.81 487.4" style="fill:#141414"/><path d="M562.33,305.14s-26.53,5.91-52.8,32.18c-15.93,15.93-14.63,44.76-12.24,100.21L523.39,399,552,347.36Z" style="fill:#141414"/><path d="M654.19,273.59l-42.86-.2,0,.56h-13s-32.51,29.92-58.69,48.77c-19,13.71-30.65,26.78-31.65,41-2.45,34.72-30.08,182.84-30.08,182.84l41.58,6.29,36.49-177s57.06-26.31,70.26-35.46c12.43-8.62,21.21-11.95,25.32-21.36C658.67,302.81,654.19,273.59,654.19,273.59Z" style="fill:#2a2a2a"/><path d="M606.11,284.39l-69.53.92,39,23.29L608,291.84a4,4,0,0,0-1.92-7.45Z" style="fill:#2d2e31"/><path d="M606.11,284.39l-69.53.92,39,23.29L608,291.84a4,4,0,0,0-1.92-7.45Z" style="fill:#fff;isolation:isolate;opacity:0.200000002980232"/><path d="M537,159.65l-19.66,63.72L477.92,275l23,26.41,46.86-52.31a16.15,16.15,0,0,0,4.91-6.47l.73-1.77,27.07-65.49Z" style="fill:#367cff"/><path d="M567.27,92s-7.92-6-9.89-19.75c-1.52-10.66,8.32-3.76,8.32-3.76s-1-7.68,4.58-6.92S579,70.42,579,70.42" style="fill:#141414"/><path d="M599.22,62.48s27.79,3,17.74,40.63l-2.46.17-5,.33" style="fill:#141414"/><path id="sk" d="M571.92,142.43c.13,0,1.48,22.48,27.61,20.52,18.09-1.35,24.54-20.55,25-20.55-2-.41-4.36-1-5.32-1.26a10.55,10.55,0,0,1-8.08-8.87c-.52-3.19.37-19.5.1-22.73l-27.77,6.2c.39,6.81,3.1,22.61-6.41,25.4Q574.63,141.83,571.92,142.43Z" style="fill:#e98862"/><path id="sh" d="M583,134.69a19.92,19.92,0,0,0,.84-4.31,46.09,46.09,0,0,0-.19-10A30.41,30.41,0,0,0,599,113.63c.52,1.9,3.35,10.23,2.57,12C600.11,129.08,593.14,134.69,583,134.69Z" style="fill:#141414"/><path d="M588.76,130.23c11-1,24.07-7.9,24.26-22.77L613.19,94c.19-14.87-7.47-27-21.47-27.2h0c-14-.18-24.62,11.74-24.81,26.61l-.08,5.94a44.48,44.48,0,0,0,.45,6.1c.72,5.34,1.83,13.47,5.46,19C576.16,129.64,581.76,130.86,588.76,130.23Z" style="fill:#e98862"/><path d="M583.68,116.64a14.58,14.58,0,0,1-6.58-1.25.36.36,0,0,1,.28-.66c4.45,1.9,8.48,1.62,11.67-.8l.21-.14a.35.35,0,0,1,.35.61l-.13.09A10.51,10.51,0,0,1,583.68,116.64Z" style="fill:#141414"/><path d="M583.78,120a6.2,6.2,0,0,1-1.22,0,.35.35,0,0,1-.32-.39.36.36,0,0,1,.39-.31,4.58,4.58,0,0,0,3.67-.91.35.35,0,0,1,.5,0,.37.37,0,0,1,0,.5h0A4.79,4.79,0,0,1,583.78,120Z" style="fill:#141414"/><circle cx="571.53" cy="100.53" r="1.72" style="fill:#141414"/><circle cx="588.38" cy="99.47" r="1.72" style="fill:#141414"/><path d="M612.09,112c4.26.06,7.76-4.45,7.82-8.71s-3.37-6.64-7.62-6.7l-2.23,2.83-1.62,12.54Z" style="fill:#e98862"/><path d="M607.86,105.14s-1.44-21-7.82-22.34c-4.25-.87-14.55,5.16-24.1,3.34-4.18-.79-8.14.24-8.54,2.21-.16.78-2.76-10.44,3.77-19,5.21-6.78,22.25-8.7,30-6.47,21.47,6.15,12,34.58,12,34.58l-.95,7.25Z" style="fill:#141414"/><path d="M581.11,111.68h0c-1.37,0-3.67-.19-3.66-1.22,0-.85,2.43-10,2.7-11a.35.35,0,1,1,.68.18h0c-1.08,4.05-2.68,10.29-2.68,10.87a6.26,6.26,0,0,0,3,.51.35.35,0,0,1,.34.36.36.36,0,0,1-.32.34Z" style="fill:#141414"/><path d="M576.43,91.18a8.25,8.25,0,0,0-4.41,0,7.4,7.4,0,0,0-2,.87,8.77,8.77,0,0,0-1.67,1.37.51.51,0,0,0,0,.72.52.52,0,0,0,.69,0l0,0A7.52,7.52,0,0,1,570.6,93a6.19,6.19,0,0,1,1.73-.63,7,7,0,0,1,3.59.2l.05,0a.76.76,0,0,0,.51-1.44Z" style="fill:#141414"/><path d="M586.63,92a7,7,0,0,1,3.53-.68,6.25,6.25,0,0,1,1.81.4,7.48,7.48,0,0,1,1.65.88l0,0a.51.51,0,0,0,.58-.83,8.66,8.66,0,0,0-1.84-1.13,7.23,7.23,0,0,0-2.1-.6,8.38,8.38,0,0,0-4.37.58.77.77,0,0,0,.62,1.41l0,0Z" style="fill:#141414"/><ellipse cx="580.23" cy="68.29" rx="8.58" ry="5.83" transform="matrix(0.2, -0.98, 0.98, 0.2, 394.72, 622.29)" style="fill:#141414"/><path d="M539.46,191.87c.82,9.67,6.65,70,7.45,81.91H654.14c.62-10.74,3.39-57.72,5.72-78.73,2.23-20,5.36-29.17,2.79-35.39-4.53-11-18.95-15.9-28.72-17.22-6-.81-14.93-1.39-14.93-1.39s-.76,15.37-18.87,16.22c-24.65,1.16-23-16.22-23.12-16.22-4,0-25.73,2.91-31.17,6.45a20.88,20.88,0,0,0-10,18.09C535.7,172.8,538.52,180.9,539.46,191.87Z" style="fill:#367cff"/><path d="M544.89,250a.3.3,0,0,1-.3-.28l-4.06-46.47a.3.3,0,0,1,.27-.33.29.29,0,0,1,.33.27h0l4.07,46.46a.32.32,0,0,1-.28.34Z" style="fill:#141414"/><g id="b_4_ha" data-name="b 4 ha"><path d="M552.67,277l14.72-11.95-2.47.7a3.27,3.27,0,0,1-3.94-2.13,3.16,3.16,0,0,1,2.13-3.93l.16,0,30.93-7.53,2.66,9.86a15.88,15.88,0,0,1-5.75,16.83l-11.46,8.65a3.23,3.23,0,0,1-4.09-.08,3.15,3.15,0,0,1-.79-3.66.26.26,0,0,1-.13-.08.3.3,0,0,1,0-.27l-2.11,1.6a3.3,3.3,0,0,1-4.47-.37,3.17,3.17,0,0,1,0-4.07l-.09,0-.87.66a3.24,3.24,0,0,1-4.09-.08,3.15,3.15,0,0,1-.35-4.37.09.09,0,0,1,0-.06l-6.14,5a3,3,0,1,1-3.75-4.62h0Z" style="fill:#e98862"/><path id="b_4_ha_sh" data-name="b 4 ha sh" d="M562.93,276.83l.09-.05,5.9-4.9a.3.3,0,0,0,0-.42.29.29,0,0,0-.42,0h0l-5.9,4.9a.3.3,0,0,0,.29.51Z" style="fill:#121212;isolation:isolate;opacity:0.200000002980232"/><path id="b_4_ha_sh-2" data-name="b 4 ha sh-2" d="M568.13,280.53l.09,0,4.67-3.82a.3.3,0,0,0,0-.41.3.3,0,0,0-.42-.05L567.84,280a.31.31,0,0,0,0,.42.3.3,0,0,0,.33.09Z" style="fill:#121212;isolation:isolate;opacity:0.200000002980232"/><path id="b_4_ha_sh-3" data-name="b 4 ha sh-3" d="M575,283.73l.1-.05,2.16-1.86a.3.3,0,1,0-.39-.45l-2.16,1.86a.29.29,0,0,0,.29.5Z" style="fill:#121212;isolation:isolate;opacity:0.200000002980232"/></g><path d="M682.81,247.74l-.12-.5-19.57-86.58-38.72,8.76L639.68,237l-61.2,15L586,286.56,667.56,271c.19,0,.46-.09.64-.14a19.34,19.34,0,0,0,14.61-23.13Z" style="fill:#367cff"/><path d="M578.18,252.1a.31.31,0,0,1,.22-.36l60.93-15L629.42,193a.32.32,0,0,1,.22-.38.3.3,0,0,1,.37.22v0l10,44a.31.31,0,0,1-.22.37l-60.93,15s.41,1.78.52,2.38a.3.3,0,0,1-.26.33.3.3,0,0,1-.33-.26C578.63,254.05,578.18,252.1,578.18,252.1Z" style="fill:#141414"/><path d="M580.57,300.32,557,228a6.34,6.34,0,0,0-6-4.38H455.15a6.34,6.34,0,0,0-6.33,6.33,6.48,6.48,0,0,0,.31,2l23.53,72.33a6.34,6.34,0,0,0,6,4.38h95.86a6.34,6.34,0,0,0,6.33-6.34A6.46,6.46,0,0,0,580.57,300.32Z" style="fill:#2d2e31"/><path d="M580.57,300.32,557,228a6.34,6.34,0,0,0-6-4.38H455.15a6.34,6.34,0,0,0-6.33,6.33,6.48,6.48,0,0,0,.31,2l23.53,72.33a6.34,6.34,0,0,0,6,4.38h95.86a6.34,6.34,0,0,0,6.33-6.34A6.46,6.46,0,0,0,580.57,300.32Z" style="fill:#fff;isolation:isolate;opacity:0.200000002980232"/><circle cx="512.09" cy="266.11" r="10.05" style="fill:#fff"/><rect x="75.76" y="72.91" width="308.31" height="364.81" rx="22.15" style="fill:#2d2e31"/><rect x="85.52" y="63.15" width="308.31" height="364.81" rx="22.15" style="fill:#fff"/><path d="M371.68,428.8h-264a23,23,0,0,1-23-23V85.3a23,23,0,0,1,23-23h264a23,23,0,0,1,23,23V405.81A23,23,0,0,1,371.68,428.8ZM107.67,64a21.32,21.32,0,0,0-21.3,21.3V405.81a21.33,21.33,0,0,0,21.3,21.3h264a21.33,21.33,0,0,0,21.3-21.3V85.3A21.32,21.32,0,0,0,371.68,64Z" style="fill:#2d2e31"/><circle cx="166.45" cy="122.36" r="23.95" transform="translate(-25.37 45.67) rotate(-14.53)" style="fill:#2d2e31;isolation:isolate;opacity:0.100000001490116"/><circle cx="242.81" cy="122.36" r="23.95" transform="translate(-15.4 207.53) rotate(-45)" style="fill:#2d2e31;isolation:isolate;opacity:0.100000001490116"/><circle cx="319.17" cy="122.36" r="23.95" transform="translate(-17.47 63.06) rotate(-10.99)" style="fill:#2d2e31;isolation:isolate;opacity:0.100000001490116"/><circle cx="166.45" cy="183.77" r="23.95" transform="translate(-78.78 147.18) rotate(-39.35)" style="fill:#2d2e31;isolation:isolate;opacity:0.100000001490116"/><circle cx="242.81" cy="183.77" r="23.95" transform="translate(-35.32 59.78) rotate(-13.09)" style="fill:#2d2e31;isolation:isolate;opacity:0.100000001490116"/><circle cx="319.17" cy="183.77" r="23.95" transform="matrix(0.53, -0.85, 0.85, 0.53, -6.45, 355.86)" style="fill:#2d2e31;isolation:isolate;opacity:0.100000001490116"/><circle cx="166.45" cy="245.19" r="23.95" transform="translate(-56.18 49.59) rotate(-14.53)" style="fill:#2d2e31;isolation:isolate;opacity:0.100000001490116"/><circle cx="242.81" cy="245.19" r="23.95" transform="translate(-102.26 243.51) rotate(-45)" style="fill:#2d2e31;isolation:isolate;opacity:0.100000001490116"/><circle cx="319.17" cy="245.19" r="23.95" transform="translate(-40.87 65.31) rotate(-10.99)" style="fill:#2d2e31;isolation:isolate;opacity:0.100000001490116"/><circle cx="166.45" cy="307.73" r="23.95" transform="translate(-130.01 121.95) rotate(-29.52)" style="fill:#2d2e31;isolation:isolate;opacity:0.100000001490116"/><circle cx="242.81" cy="307.73" r="23.95" transform="translate(-99.22 499.24) rotate(-80.97)" style="fill:#2d2e31;isolation:isolate;opacity:0.100000001490116"/><circle cx="319.17" cy="307.73" r="23.95" transform="translate(-63.14 83.22) rotate(-13.53)" style="fill:#2d2e31;isolation:isolate;opacity:0.100000001490116"/><polygon points="308.39 383.26 326.95 383.26 326.95 364.39 308.39 364.39 296.46 373.83 308.39 383.26" style="fill:#dfdfdf"/><polygon points="321.58 370.26 320.34 369.03 316.78 372.59 313.21 369.03 311.98 370.26 315.55 373.83 311.98 377.39 313.21 378.62 316.78 375.06 320.34 378.62 321.58 377.39 318.01 373.83 321.58 370.26" style="fill:#1b1b1b"/><circle cx="242.81" cy="368.74" r="23.95" transform="translate(-77.22 64.59) rotate(-13.09)" style="fill:#0cbc8b"/><path d="M236.94,364.87s-1,1-.17,3.11c0,0,4.16,6.77,7.71,7.23,0,0,.73.44,2.37-.76l1.63-1.21a5.42,5.42,0,0,1,3.48-.63,7.29,7.29,0,0,1,3.78,3.63c.57,1.29.34,1.69.34,1.69a7.22,7.22,0,0,1-7.53,4.47s-5.5.07-12.77-8.51-6.24-12.77-6.24-12.77,1.35-5.89,5.42-6.06c0,0,2.68.18,4.37,3.71C239.33,358.77,241.16,360.87,236.94,364.87Z" style="fill:#fff"/><path d="M327.9,304.69v-2.48h-2.17l1.06-5h-2.46l-1.07,5h-4.59l1.09-5h-2.44l-1.08,5h-4v2.48h3.53l-.82,3.92h-2.71v2.44h2.2l-1,4.91h2.46l1-4.91h4.63L320.46,316h2.43l1.09-4.91h3.92v-2.44h-3.48l.82-3.92ZM322,308.58h-4.59l.82-3.89h4.61Z" style="fill:#1b1b1b"/><path d="M176.59,311.53l-7-4.64,7.26-4.19a1.4,1.4,0,0,0,.51-1.9,1.38,1.38,0,0,0-1.9-.51l-7.11,4.1v-8.21a1.4,1.4,0,0,0-2.79,0v8l-6.67-4.44a1.39,1.39,0,1,0-1.55,2.31l7,4.65-7.25,4.19a1.39,1.39,0,0,0,.7,2.6,1.36,1.36,0,0,0,.69-.19l7.11-4.1v8.21a1.4,1.4,0,0,0,2.79,0v-8l6.67,4.45a1.4,1.4,0,0,0,1.55-2.32Z" style="fill:#1b1b1b"/><path d="M167.84,113.52h-.07l-4.18,2.25-.63-2.48,5.25-2.81H171v24.06h-3.15Z" style="fill:#1b1b1b"/><path d="M235.13,134.54v-2l2.55-2.48c6.15-5.85,8.92-9,9-12.58,0-2.45-1.18-4.7-4.77-4.7a8.21,8.21,0,0,0-5.11,2l-1-2.29a10.56,10.56,0,0,1,6.81-2.45c5.18,0,7.37,3.56,7.37,7,0,4.44-3.22,8-8.29,12.92l-1.93,1.78v.07h10.81v2.7Z" style="fill:#1b1b1b"/><path d="M312.61,130.8a10.85,10.85,0,0,0,5.33,1.52c4.19,0,5.48-2.66,5.45-4.66,0-3.37-3.08-4.82-6.22-4.82h-1.82V120.4h1.82c2.37,0,5.36-1.22,5.36-4.07,0-1.93-1.22-3.63-4.22-3.63a8.86,8.86,0,0,0-4.81,1.59l-.85-2.37a11.48,11.48,0,0,1,6.29-1.85c4.74,0,6.89,2.82,6.89,5.74,0,2.48-1.48,4.59-4.44,5.66v.08a6.26,6.26,0,0,1,5.36,6.18c0,3.85-3,7.22-8.77,7.22a12.17,12.17,0,0,1-6.25-1.63Z" style="fill:#1b1b1b"/><path d="M168.84,196.08v-6.55H157.66v-2.15L168.4,172h3.52v15h3.36v2.55h-3.36v6.55Zm0-9.1v-8c0-1.26,0-2.51.11-3.77h-.11c-.74,1.4-1.33,2.44-2,3.55L161,186.9V187Z" style="fill:#1b1b1b"/><path d="M250.31,175.21h-9.18l-.93,6.18a12.11,12.11,0,0,1,2-.15,10.15,10.15,0,0,1,5.18,1.3,6.85,6.85,0,0,1,3.45,6.18c0,4.7-3.74,8.22-9,8.22a11.8,11.8,0,0,1-6-1.48l.82-2.48a10.8,10.8,0,0,0,5.14,1.33c3.07,0,5.7-2,5.7-5.22s-2.11-5.33-6.92-5.33a25,25,0,0,0-3.33.26l1.55-11.55h11.52Z" style="fill:#1b1b1b"/><path d="M326,174.36a11.46,11.46,0,0,0-2.44.15,9.79,9.79,0,0,0-8.37,8.55h.12a7.14,7.14,0,0,1,5.81-2.78c4.25,0,7.25,3.08,7.25,7.78,0,4.4-3,8.48-8,8.48-5.15,0-8.52-4-8.52-10.26a15.13,15.13,0,0,1,4.07-10.84,13.08,13.08,0,0,1,7.7-3.56,15.38,15.38,0,0,1,2.37-.18ZM325,188.24c0-3.44-2-5.51-5-5.51a5.37,5.37,0,0,0-4.67,3,2.78,2.78,0,0,0-.37,1.44c.08,4,1.89,6.89,5.3,6.89C323.14,194,325,191.69,325,188.24Z" style="fill:#1b1b1b"/><path d="M174.56,235v2.15l-10.47,21.92h-3.37l10.44-21.29v-.07H159.38V235Z" style="fill:#1b1b1b"/><path d="M235.18,252c0-3,1.82-5.18,4.78-6.44l0-.11a6,6,0,0,1-3.81-5.41c0-3.81,3.22-6.4,7.44-6.4,4.66,0,7,2.92,7,5.92,0,2-1,4.22-4,5.63v.11c3,1.18,4.85,3.29,4.85,6.22,0,4.18-3.6,7-8.19,7C238.22,258.55,235.18,255.56,235.18,252Zm13-.15c0-2.92-2-4.33-5.29-5.26-2.82.82-4.33,2.67-4.33,5s1.74,4.59,4.81,4.59C246.25,256.19,248.14,254.37,248.14,251.89Zm-9-12c0,2.41,1.82,3.7,4.59,4.44,2.08-.7,3.67-2.18,3.67-4.37a3.74,3.74,0,0,0-4.07-3.92A3.83,3.83,0,0,0,239.18,239.86Z" style="fill:#1b1b1b"/><path d="M313.67,256.07a13.19,13.19,0,0,0,2.63-.11,9.13,9.13,0,0,0,5-2.33,10.6,10.6,0,0,0,3.18-6.41h-.11a7.07,7.07,0,0,1-5.67,2.6c-4.33,0-7.1-3.26-7.1-7.37a8.25,8.25,0,0,1,8.21-8.55c4.93,0,8,4,8,10.14,0,5.29-1.77,9-4.14,11.29a12,12,0,0,1-7,3.22,15.38,15.38,0,0,1-3,.19Zm1.19-13.84c0,3,1.81,5.11,4.62,5.11a5.39,5.39,0,0,0,4.74-2.52,2.13,2.13,0,0,0,.3-1.19c0-4.1-1.52-7.25-4.92-7.25C316.82,236.38,314.86,238.82,314.86,242.23Z" style="fill:#1b1b1b"/><path d="M251,307.48c0,8.18-3,12.69-8.36,12.69-4.71,0-7.89-4.4-8-12.36s3.48-12.51,8.36-12.51C248.08,295.3,251,299.81,251,307.48Zm-13.07.37c0,6.25,1.93,9.81,4.89,9.81,3.33,0,4.92-3.89,4.92-10,0-5.92-1.51-9.81-4.88-9.81C240,297.81,237.9,301.29,237.9,307.85Z" style="fill:#1b1b1b"/></svg>