<svg id="Capa_1" data-name="Capa 1" xmlns="http://www.w3.org/2000/svg" width="1276.94" height="461.14" viewBox="0 0 1276.94 461.14"><path d="M461.89,187.9l-28.2,37.59h-3.22L402.9,187.77v62.95H386.57V164.15h18.8l27.08,37.22,27.09-37.22h18.67v86.57H461.89Z" style="fill:#303171"/><path d="M505.28,225.49c1,7.54,7.55,13,18.18,13,5.57,0,12.87-2.1,16.33-5.68l9.64,9.52c-6.43,6.67-16.94,9.89-26.21,9.89-21,0-33.52-13-33.52-32.52,0-18.55,12.62-31.91,32.4-31.91,20.41,0,33.15,12.62,30.8,37.72ZM538.43,213c-1-7.92-7.18-11.87-15.83-11.87-8.16,0-14.84,4-17.07,11.87Z" style="fill:#303171"/><path d="M612.37,183.44l11.13,8.41-6.8,8.66c4.7,5.32,6.43,11.38,6.43,18.05,0,7.55-2.84,18.18-12.86,22.76,10.14,5.07,12.61,12.36,12.61,20.16,0,16.81-12.86,27.2-30.54,27.2s-30.92-10.76-30.92-27.2h15c0,7.91,7.29,13.1,16,13.1s15.46-4.7,15.46-13.1-7.92-12.25-15.46-12.25c-19,0-30.92-11.62-30.92-30.67s13.85-30.91,30.92-30.91c4.82,0,9.77.62,14,3.46Zm-36,35.12c0,10.64,7.17,16.95,16,16.95s15.83-6.44,15.83-16.95-7.17-17.19-15.83-17.19S576.39,207.93,576.39,218.56Z" style="fill:#303171"/><path d="M681.12,189.63h14.47v61H681.37l-.74-8.9c-3.46,7.17-13,10.64-19.79,10.76-18.05.12-31.41-11-31.41-32.4,0-21,14-32,31.78-31.91,8.17,0,16,3.84,19.42,9.9Zm-36.6,30.42c0,11.62,8,18.55,18.05,18.55,23.75,0,23.75-37,0-37C652.56,201.62,644.52,208.42,644.52,220.05Z" style="fill:#303171"/><path d="M718,220.67v29.92h-6.68V164h38c37.59,0,37.59,56.64,0,56.64Zm0-50.46v44.4h31.29c28.81,0,28.81-44.4,0-44.4Z" style="fill:#222220"/><path d="M799.09,169.59c0,6.43-9.77,6.43-9.77,0S799.09,163.16,799.09,169.59Zm-8,19.66v61.34h6.06V189.25Z" style="fill:#222220"/><path d="M814.42,276.07V189.5h5.94V204c4.82-9.27,14.59-15.33,26.46-15.33,16.57.61,29.68,11.75,29.68,31.41,0,20.53-13.85,31.66-31,31.66-10.39,0-20-5.07-25.23-15.21v39.57Zm56-56c0-17.19-11.13-25.6-25-25.6-14.22,0-24.73,10.76-24.73,25.72s10.76,25.72,24.73,25.72S870.44,237.24,870.44,220.05Z" style="fill:#222220"/><path d="M887.87,220.05c0-18.3,13.85-31.54,31-31.54s32.53,10.51,30.18,34.38h-55c1.23,14.35,12.24,22.63,24.85,22.63,8,0,17.44-3.21,22-9.27l4.33,3.46c-5.93,7.79-16.57,11.75-26.34,11.75C901.72,251.46,887.87,239.46,887.87,220.05Zm55.78-2.48c-.13-15.08-10-23.49-24.74-23.49-12.61,0-23.49,8.53-24.85,23.49Z" style="fill:#222220"/><path d="M970.85,164v86.56h-6.06V164Z" style="fill:#222220"/><path d="M995.82,169.59c0,6.43-9.77,6.43-9.77,0S995.82,163.16,995.82,169.59Zm-8,19.66v61.34h6.06V189.25Z" style="fill:#222220"/><path d="M1017.09,189.5v10.89c4.7-8.41,13.23-11.88,21.77-12,16.32,0,27.57,10,27.57,27v35.24h-6V215.47c0-13.85-8.54-21.27-21.77-21.14-12.61.12-21.39,9.64-21.39,22.26v34h-6.06V189.5Z" style="fill:#222220"/><path d="M1078.8,220.05c0-18.3,13.85-31.54,31-31.54S1142.36,199,1140,222.89h-55c1.24,14.35,12.24,22.63,24.86,22.63,8,0,17.43-3.21,22-9.27l4.33,3.46c-5.94,7.79-16.57,11.75-26.34,11.75C1092.65,251.46,1078.8,239.46,1078.8,220.05Zm55.77-2.48c-.12-15.08-10-23.49-24.73-23.49-12.62,0-23.5,8.53-24.86,23.49Z" style="fill:#222220"/><path d="M1197.63,200.63c-6.18-5.44-12.24-6.43-19-6.43-9.52-.12-18.67,3.46-18.43,11.25.25,8.17,10.88,9.78,18.55,11.14,10.89,1.85,25.85,3.71,25.23,17.93-.37,13.48-14.34,17.06-25.1,17.06s-21.4-4.08-26.72-12.24l4.46-4c5.07,7.3,14.22,10.39,22.38,10.39,7.42,0,18.67-2,19-11.62.25-8.78-9.89-10.52-19.91-12.12-11.87-2-23.61-4.21-23.74-16.45-.12-12,11.87-17.19,24.24-17.07,8.9,0,16.69,2.48,22.75,8.17Z" style="fill:#222220"/><path d="M40,193.51C68.53,122.9,110.91,61.94,162.14,72.11L153,89.74c51.7,59.26-1.87-21.62-55.31,75.32A435.56,435.56,0,0,0,69.7,226.35Z" style="fill:#6b7fbb"/><path d="M328.53,209.91c-19.14-7.59-29.43-1.36-45.83,30.82-11.44,22.47-13.24,38-7.12,35.26l35.16-31.33L327.48,217" style="fill:#6b7fbb"/><path d="M224.38,110.74c-44.95,7.88-95.66,99.83-122.79,152.46-25.39,49.26-53.24,120-30.11,109.34s65.22-83.72,65.22-83.72l39.59-110.35,5.92,32.05s34.45-89.46,63.91-54.6l4.59,3-4.86-27.43-12-12.88-4.38-5.36Z" style="fill:#6b7fbb"/><path d="M182.78,319.8c-15.09,6.81,27.26-178.07,108.9-159.06,66.87,15.57-3.62,107.77-3.62,107.77l30.08-76.75-12.09-3.32s6.81,6.18-1-4.07c-15-19.68-49.88-1-72.7,36.21s-19.67,64-19.67,64l-19.26,25.53Z" style="fill:#6b7fbb"/><path d="M277.89,159.36c37.44-.92,60.32,22.82,52.72,63.53a59.9,59.9,0,0,1-33.52,42.94L275.58,276C310.77,221.83,313.65,167.13,277.89,159.36Z" style="fill:#6b7fbb"/><path d="M128.43,75.81a66.45,66.45,0,0,1,33.71-3.7c54.69,7.43,33.55,131-17.47,244.63a81.73,81.73,0,0,1-40.41,40.67L71.48,372.54C180.31,171.15,150.19,89,128.43,75.81Z" style="fill:#303171"/><path d="M224.38,110.74c65.43-11.16,62,71.9,24.72,157.2a79,79,0,0,1-40.85,40.77L182.78,319.8C250.81,212.09,240.07,120.27,224.38,110.74Z" style="fill:#303171"/><path d="M277.89,159.36c37.44-.92,60.32,22.82,52.72,63.53a59.9,59.9,0,0,1-33.52,42.94L275.58,276C310.77,221.83,313.65,167.13,277.89,159.36Z" style="fill:#303171"/></svg>