<svg id="Capa_1" data-name="Capa 1" xmlns="http://www.w3.org/2000/svg" width="1276.94" height="461.14" viewBox="0 0 1276.94 461.14"><path d="M461.89,187.9l-28.2,37.59h-3.22L402.9,187.77v62.95H386.57V164.15h18.8l27.08,37.22,27.09-37.22h18.67v86.57H461.89Z" style="fill:#fff"/><path d="M505.28,225.49c1,7.54,7.55,13,18.18,13,5.57,0,12.87-2.1,16.33-5.68l9.64,9.52c-6.43,6.67-16.94,9.89-26.21,9.89-21,0-33.52-13-33.52-32.52,0-18.55,12.62-31.91,32.4-31.91,20.41,0,33.15,12.62,30.8,37.72ZM538.43,213c-1-7.92-7.18-11.87-15.83-11.87-8.16,0-14.84,4-17.07,11.87Z" style="fill:#fff"/><path d="M612.37,183.44l11.13,8.41-6.8,8.66c4.7,5.32,6.43,11.38,6.43,18.05,0,7.55-2.84,18.18-12.86,22.76,10.14,5.07,12.61,12.36,12.61,20.16,0,16.81-12.86,27.2-30.54,27.2s-30.92-10.76-30.92-27.2h15c0,7.91,7.29,13.1,16,13.1s15.46-4.7,15.46-13.1-7.92-12.25-15.46-12.25c-19,0-30.92-11.62-30.92-30.67s13.85-30.91,30.92-30.91c4.82,0,9.77.62,14,3.46Zm-36,35.12c0,10.64,7.17,16.95,16,16.95s15.83-6.44,15.83-16.95-7.17-17.19-15.83-17.19S576.39,207.93,576.39,218.56Z" style="fill:#fff"/><path d="M681.12,189.63h14.47v61H681.37l-.74-8.9c-3.46,7.17-13,10.64-19.79,10.76-18.05.12-31.41-11-31.41-32.4,0-21,14-32,31.78-31.91,8.17,0,16,3.84,19.42,9.9Zm-36.6,30.42c0,11.62,8,18.55,18.05,18.55,23.75,0,23.75-37,0-37C652.56,201.62,644.52,208.42,644.52,220.05Z" style="fill:#fff"/><path d="M718,220.67v29.92h-6.68V164h38c37.59,0,37.59,56.64,0,56.64Zm0-50.46v44.4h31.29c28.81,0,28.81-44.4,0-44.4Z" style="fill:#fff"/><path d="M799.09,169.59c0,6.43-9.77,6.43-9.77,0S799.09,163.16,799.09,169.59Zm-8,19.66v61.34h6.06V189.25Z" style="fill:#fff"/><path d="M814.42,276.07V189.5h5.94V204c4.82-9.27,14.59-15.33,26.46-15.33,16.57.61,29.68,11.75,29.68,31.41,0,20.53-13.85,31.66-31,31.66-10.39,0-20-5.07-25.23-15.21v39.57Zm56-56c0-17.19-11.13-25.6-25-25.6-14.22,0-24.73,10.76-24.73,25.72s10.76,25.72,24.73,25.72S870.44,237.24,870.44,220.05Z" style="fill:#fff"/><path d="M887.87,220.05c0-18.3,13.85-31.54,31-31.54s32.53,10.51,30.18,34.38h-55c1.23,14.35,12.24,22.63,24.85,22.63,8,0,17.44-3.21,22-9.27l4.33,3.46c-5.93,7.79-16.57,11.75-26.34,11.75C901.72,251.46,887.87,239.46,887.87,220.05Zm55.78-2.48c-.13-15.08-10-23.49-24.74-23.49-12.61,0-23.49,8.53-24.85,23.49Z" style="fill:#fff"/><path d="M970.85,164v86.56h-6.06V164Z" style="fill:#fff"/><path d="M995.82,169.59c0,6.43-9.77,6.43-9.77,0S995.82,163.16,995.82,169.59Zm-8,19.66v61.34h6.06V189.25Z" style="fill:#fff"/><path d="M1017.09,189.5v10.89c4.7-8.41,13.23-11.88,21.77-12,16.32,0,27.57,10,27.57,27v35.24h-6V215.47c0-13.85-8.54-21.27-21.77-21.14-12.61.12-21.39,9.64-21.39,22.26v34h-6.06V189.5Z" style="fill:#fff"/><path d="M1078.8,220.05c0-18.3,13.85-31.54,31-31.54S1142.36,199,1140,222.89h-55c1.24,14.35,12.24,22.63,24.86,22.63,8,0,17.43-3.21,22-9.27l4.33,3.46c-5.94,7.79-16.57,11.75-26.34,11.75C1092.65,251.46,1078.8,239.46,1078.8,220.05Zm55.77-2.48c-.12-15.08-10-23.49-24.73-23.49-12.62,0-23.5,8.53-24.86,23.49Z" style="fill:#fff"/><path d="M1197.63,200.63c-6.18-5.44-12.24-6.43-19-6.43-9.52-.12-18.67,3.46-18.43,11.25.25,8.17,10.88,9.78,18.55,11.14,10.89,1.85,25.85,3.71,25.23,17.93-.37,13.48-14.34,17.06-25.1,17.06s-21.4-4.08-26.72-12.24l4.46-4c5.07,7.3,14.22,10.39,22.38,10.39,7.42,0,18.67-2,19-11.62.25-8.78-9.89-10.52-19.91-12.12-11.87-2-23.61-4.21-23.74-16.45-.12-12,11.87-17.19,24.24-17.07,8.9,0,16.69,2.48,22.75,8.17Z" style="fill:#fff"/><path d="M274.75,275.44c13.88-21.37,22.89-43.22,26.2-62.15-5.74,5.29-11.47,14.15-18.25,27.44-10.81,21.22-13,36.28-8.06,35.55A1,1,0,0,1,274.75,275.44Z" style="fill:#fff"/><path d="M127.91,76.67a1,1,0,0,1-.47-.69C91.69,91.23,61.79,139.55,40,193.51L69.7,226.35a435.56,435.56,0,0,1,27.94-61.29c17.65-32,35.31-44.63,49.19-49.31C143.48,93.9,135.53,81.3,127.91,76.67Z" style="fill:#fff"/><path d="M276.63,160.47a133.44,133.44,0,0,1-.88,18.81c8.88-3.62,17.13-3.9,23.54-.1-.12-.32-.23-.64-.36-.94-4-9.68-11.13-15.7-21.26-17.9l-1.08-.13Z" style="fill:#fff"/><path d="M181.93,319.27c32.94-52.15,47-99.73,51.45-135.93-41,44.43-60.24,135.19-51.58,136.63A1,1,0,0,1,181.93,319.27Z" style="fill:#fff"/><path d="M70.6,372.06c43.6-80.68,63.5-140,72-181.49-16.13,25.29-30.4,52-41,72.63-25,48.59-52.47,118.07-31,109.72A1,1,0,0,1,70.6,372.06Z" style="fill:#fff"/><path d="M223.86,111.59a1,1,0,0,1-.45-.65c-9.24,1.86-18.71,7.22-28.16,15,.55,16.07-1.29,35.33-5.54,57.32-1.22,6.33-2.66,12.86-4.27,19.52,7.82-17.7,28.61-59.36,49.4-54.56a114.65,114.65,0,0,0-2.61-19.84C230.19,119.71,227.14,113.59,223.86,111.59Z" style="fill:#fff"/><path d="M185,89.41c-5.25-9.46-13-15-23-16.31-4.25-.57-17.41-3.17-32,2.08,11.23,8.38,23.08,34,19.92,78.5-4,56.49-30.32,131.37-76.14,216.69l30.06-13.86a80.75,80.75,0,0,0,39.92-40.18c20.6-45.87,36.22-93.26,44-133.43C196.06,139.9,195.12,107.57,185,89.41Z" style="fill:#fff"/><path d="M329.62,222.71c3.58-19.15.46-35.15-9-46.28-8.2-9.62-20.57-15.08-36-16a30.6,30.6,0,0,1,16.21,17c9.18,22.29.35,59.75-22.49,96.12l18.38-8.67A59,59,0,0,0,329.62,222.71Z" style="fill:#fff"/><path d="M248.18,267.54c28-64.14,34.32-120.72,16-144.14-8.09-10.34-21.61-15-38.36-12.67,3,3,6.53,9.43,8.36,17.21,7.07,30.09,4.6,103.59-48.84,189.66l22.51-9.81A77.69,77.69,0,0,0,248.18,267.54Z" style="fill:#fff"/></svg>