<svg id="Layer_1" data-name="Layer 1" xmlns="http://www.w3.org/2000/svg" viewBox="0 0 941.445 630.727">
  <g>
    <g>
      <circle cx="728.368" cy="38.896" r="38.896" fill="#0cbc8b"></circle>
      <g opacity="0.29">
        <circle cx="728.368" cy="38.896" r="25.214" fill="#fff"></circle>
      </g>
    </g>
    <path d="M720.115,47.9l2.352-3.647a8.571,8.571,0,0,0,5.229,2.157c2.079,0,2.993-.863,2.993-2.532,0-3.773-9.681-3.705-9.681-10.323,0-4.255,2.947-6.965,7.594-6.965a9.094,9.094,0,0,1,6.982,3.112l-2.7,3.09a5.662,5.662,0,0,0-3.994-1.851c-1.765,0-2.722.711-2.722,2.359,0,3.5,9.681,3.192,9.681,10.2,0,4.211-2.787,7.257-8.155,7.257A12.2,12.2,0,0,1,720.115,47.9Zm6.45-24.9h3.578V28.28h-3.578Zm0,25.563h3.578v5.8h-3.578Z" fill="#fff"></path>
  </g>
  <g>
    <g>
      <circle cx="777.324" cy="133.596" r="32.055" fill="#0cbc8b"></circle>
      <g opacity="0.29">
        <circle cx="777.324" cy="133.596" r="20.78" fill="#fff"></circle>
      </g>
    </g>
    <path d="M770.522,141.019l1.939-3.006a7.06,7.06,0,0,0,4.309,1.777c1.714,0,2.467-.71,2.467-2.086,0-3.11-7.978-3.054-7.978-8.508,0-3.506,2.428-5.739,6.258-5.739a7.5,7.5,0,0,1,5.754,2.564l-2.223,2.547a4.667,4.667,0,0,0-3.292-1.526c-1.454,0-2.243.587-2.243,1.944,0,2.883,7.978,2.631,7.978,8.409,0,3.47-2.3,5.981-6.721,5.981A10.063,10.063,0,0,1,770.522,141.019Zm5.316-20.524h2.949v4.353h-2.949Zm0,21.067h2.949v4.776h-2.949Z" fill="#fff"></path>
  </g>
  <g>
    <rect x="293.199" y="385.172" width="6.196" height="112.336" fill="#dee8f5"></rect>
    <circle cx="292.824" cy="273.223" r="36.143" fill="#8ddbe0"></circle>
    <circle cx="313.933" cy="377.89" r="32.276" fill="#8ddbe0"></circle>
    <circle cx="275.466" cy="377.89" r="34.459" fill="#8ddbe0"></circle>
    <circle cx="318.412" cy="309.366" r="28.968" fill="#8ddbe0"></circle>
    <circle cx="296.297" cy="326.768" r="28.968" fill="#8ddbe0"></circle>
    <circle cx="330.804" cy="338.334" r="28.968" fill="#8ddbe0"></circle>
    <circle cx="260.475" cy="308.336" r="28.968" fill="#8ddbe0"></circle>
    <circle cx="260.475" cy="344.278" r="28.968" fill="#8ddbe0"></circle>
  </g>
  <path d="M403.269,497.509H276c-9.335-7.451-9.979-24.237-.3-31.733,7.459-5.777,18.734-4.232,25.745,1.778a24.866,24.866,0,0,1-.075-13.714c2.28-8.084,7.346-16.292,15.083-19.56,19.744-8.331,33.774,9.124,36.583,18.884,5.055-7.434,16.363-11.363,23.461-6.359,8.991,6.338,8.584,16.33,1.412,23.5,9.556-1.782,16.753-.407,23.381,6.707C406.333,482.429,407.105,491.657,403.269,497.509Z" fill="#8ddbe0"></path>
  <g>
    <rect x="828.955" y="385.172" width="6.196" height="112.336" fill="#dee8f5"></rect>
    <circle cx="828.581" cy="273.223" r="36.143" fill="#8ddbe0"></circle>
    <circle cx="849.69" cy="377.89" r="32.276" fill="#8ddbe0"></circle>
    <circle cx="811.223" cy="377.89" r="34.459" fill="#8ddbe0"></circle>
    <circle cx="854.168" cy="309.366" r="28.968" fill="#8ddbe0"></circle>
    <circle cx="832.053" cy="326.768" r="28.968" fill="#8ddbe0"></circle>
    <circle cx="866.56" cy="338.334" r="28.968" fill="#8ddbe0"></circle>
    <circle cx="796.232" cy="308.336" r="28.968" fill="#8ddbe0"></circle>
    <circle cx="796.232" cy="344.278" r="28.968" fill="#8ddbe0"></circle>
  </g>
  <path d="M939.025,497.509H811.757c-9.336-7.451-9.979-24.237-.3-31.733,7.459-5.777,18.734-4.232,25.744,1.778a24.866,24.866,0,0,1-.075-13.714c2.28-8.084,7.347-16.292,15.084-19.56,19.743-8.331,33.774,9.124,36.583,18.884,5.055-7.434,16.363-11.363,23.46-6.359,8.991,6.338,8.584,16.33,1.412,23.5,9.556-1.782,16.753-.407,23.382,6.707C942.089,482.429,942.862,491.657,939.025,497.509Z" fill="#8ddbe0"></path>
  <g>
    <rect id="housebhk_1" x="416.286" y="195.601" width="398.832" height="236.96" fill="#f3f5fd"></rect>
    <rect id="housebhk_1-2" data-name="housebhk_1" x="475.198" y="230.562" width="131.349" height="133.841" fill="#dee8f5"></rect>
    <rect id="housebhk_1-3" data-name="housebhk_1" x="475.198" y="230.562" width="131.349" height="133.841" fill="none" stroke="#fafafa" stroke-miterlimit="10" stroke-width="3.4"></rect>
    <line id="housebhk_1-4" data-name="housebhk_1" x1="540.873" y1="231.808" x2="540.873" y2="363.157" fill="none" stroke="#fafafa" stroke-miterlimit="10" stroke-width="3.827"></line>
    <line id="housebhk_1-5" data-name="housebhk_1" x1="606.547" y1="297.483" x2="475.198" y2="297.483" fill="none" stroke="#fafafa" stroke-miterlimit="10" stroke-width="3.827"></line>
    <path id="housebhk_1-6" data-name="housebhk_1" d="M664.931,230.562v201.53H777.324V230.562ZM766.285,421.053H670.46V241.6h95.825Z" fill="#fafafa"></path>
    <g id="housebhk_1-7" data-name="housebhk_1">
      <rect id="housebhk_1-8" data-name="housebhk_1" x="668.374" y="234.361" width="105.16" height="193.938" transform="translate(1441.907 662.661) rotate(-180)" fill="#dee8f5"></rect>
      <rect id="housebhk_1-9" data-name="housebhk_1" x="675.647" y="322.522" width="5.664" height="24.256" rx="2.832" transform="translate(1356.957 669.3) rotate(180)" fill="#fafafa"></rect>
    </g>
    <polyline id="housebhk_1-10" data-name="housebhk_1" points="405.049 201.914 615.786 50.663 825.609 201.287" fill="#f3f5fd"></polyline>
    <path id="housebhk_1-11" data-name="housebhk_1" d="M841.206,204.05v14.981a1.725,1.725,0,0,1-2.731,1.4L615.784,60.57l-223.6,160.484a1.725,1.725,0,0,1-2.73-1.4V204.671a2.875,2.875,0,0,1,1.2-2.336L611.093,44.121a8.055,8.055,0,0,1,9.388,0L840.008,201.714A2.876,2.876,0,0,1,841.206,204.05Z" fill="#9ebcea"></path>
    <rect id="housebhk_1-12" data-name="housebhk_1" x="389.453" y="432.56" width="451.752" height="64.949" rx="2.019" fill="#9ebcea"></rect>
    <g id="housebhk_1-13" data-name="housebhk_1">
      <rect id="housebhk_1-14" data-name="housebhk_1" x="635.049" y="454.21" width="172.731" height="21.65" fill="#dee8f5"></rect>
      <rect id="housebhk_1-15" data-name="housebhk_1" x="635.049" y="454.21" width="172.731" height="21.65" fill="#fafafa" opacity="0.39"></rect>
      <rect id="housebhk_1-16" data-name="housebhk_1" x="650.186" y="432.56" width="142.459" height="21.65" fill="#dee8f5"></rect>
      <rect id="housebhk_1-17" data-name="housebhk_1" x="621.155" y="475.859" width="201.096" height="21.65" fill="#dee8f5"></rect>
    </g>
  </g>
  <g>
    <path d="M197.694,186.7c0-24.645-12.672-44.361-37.028-44.361-21.977,0-35.9,20.006-35.9,44.361" fill="#c1d8ed"></path>
    <path d="M160.667,142.335c24.333,0,36.987,19.684,37.027,44.293a4.365,4.365,0,0,1,.028.536V422.821a44.361,44.361,0,1,0,88.721,0h141.29v-231.2c0-26.386-15.233-48.135-41.619-49.291Z" fill="#d7e8f4"></path>
    <path d="M242.084,467.18H427.732a44.361,44.361,0,0,0,44.362-44.361H286.445A44.177,44.177,0,0,1,242.084,467.18Z" fill="#c1d8ed"></path>
    <rect x="257.781" y="222.125" width="110.784" height="15.551" rx="7.776" transform="translate(626.346 459.801) rotate(-180)" fill="#fafbfc"></rect>
    <rect x="235.038" y="275.541" width="156.27" height="6.627" rx="3.313" fill="#fafbfc"></rect>
    <rect x="235.038" y="259.627" width="156.27" height="6.627" rx="3.313" fill="#fafbfc"></rect>
    <rect x="235.038" y="291.454" width="156.27" height="6.627" rx="3.313" fill="#fafbfc"></rect>
    <rect x="235.038" y="307.368" width="156.27" height="6.627" rx="3.313" fill="#fafbfc"></rect>
    <rect x="235.038" y="323.282" width="156.27" height="6.627" rx="3.313" fill="#fafbfc"></rect>
    <rect x="235.038" y="355.11" width="156.27" height="6.627" rx="3.313" fill="#fafbfc"></rect>
    <rect x="235.038" y="339.196" width="156.27" height="6.627" rx="3.313" fill="#fafbfc"></rect>
    <rect x="280.04" y="371.023" width="66.266" height="6.627" rx="3.313" fill="#fafbfc"></rect>
  </g>
  <g>
    <g>
      <path d="M31.992,175.259c-.153-14.868,5.723-24.082,13.691-29.142,7.862-4.992,32.515-9.337,41.863,8.785,6.1,11.825,3.691,16.052,5.419,34.991s8.366,20.927,15.1,43.882c5.28,18.008-24.295,27.567-49.911,26.741s-41.85-6.5-43.337-22.787C12.681,214.349,32.293,204.4,31.992,175.259Z" fill="#0f1011"></path>
      <path d="M47.253,216.369s7.7-4.17,5.775-25.21l15.949-3.109s-1.622,18.894,6.515,24.814Z" fill="#E98862"></path>
      <g opacity="0.2">
        <path d="M72.182,208.947,58.817,198.915l10.423-.2A28.743,28.743,0,0,0,72.182,208.947Z"></path>
      </g>
      <path d="M43.889,183.077c1.165,6.378,4.706,12.4,10.36,14.408a40.5,40.5,0,0,0,19.381,2.437c17.476-1.594,13.651-41.329,5.277-48.977s-32.7-2.533-35.543,10.414C41.892,168.055,42.781,177.007,43.889,183.077Z" fill="#E98862"></path>
      <g>
        <circle cx="68.848" cy="176.478" r="1.449" fill="#0f1011"></circle>
        <circle cx="80.27" cy="175.436" r="1.449" fill="#0f1011"></circle>
        <path d="M82.746,172.325h0l-3.839-.013a.681.681,0,0,1,0-1.361h0l3.839.013a.681.681,0,0,1,0,1.361Z" fill="#0f1011"></path>
        <path d="M65.691,173.882a.681.681,0,0,1-.165-1.342L69.3,171.6a.681.681,0,1,1,.332,1.321l-3.776.945A.687.687,0,0,1,65.691,173.882Z" fill="#0f1011"></path>
        <path d="M69.623,187.883s5.354.515,9.09-.829c0,0,0,3.523-4.226,3.909S69.623,187.883,69.623,187.883Z" fill="#f8fcff"></path>
      </g>
      <path d="M55.505,166.418c-.38,28.854-3.161,40.062-3.161,40.062S38.682,189.97,36.62,172.485c-1.933-16.392,10.069-26.19,18.221-28.092,30.981-7.227,33.132,15.371,33.132,15.371-2,7.709-35.823,12.491-35.823,12.491" fill="#0f1011"></path>
      <path d="M61.589,182.79a6.142,6.142,0,1,1-12.234,1.116,6.04,6.04,0,0,1,5.559-6.675C59.29,177.048,61.281,179.412,61.589,182.79Z" fill="#E98862"></path>
      <g opacity="0.2">
        <path d="M75.349,184.456a.5.5,0,0,1-.151-.977l2.938-.932-2.1-4.571a.5.5,0,1,1,.908-.418l2.34,5.085a.506.506,0,0,1,0,.412.5.5,0,0,1-.306.274l-3.478,1.1A.506.506,0,0,1,75.349,184.456Z"></path>
      </g>
    </g>
    <g>
      <path d="M103.315,352.814c19.95,87.888,38.015,176.366,52.271,265.367l-20.04,4.122c-22.031-87.4-40.358-175.826-56.718-264.452Z" fill="#E98862"></path>
      <path d="M62.077,358.258c1.832,87.313,1.7,174.821-2.271,262.074H39.347c-3.969-87.252-4.1-174.762-2.27-262.074Z" fill="#E98862"></path>
      <path d="M86.276,628.4a4.108,4.108,0,0,0,4.076-4.427h0a4.106,4.106,0,0,0-2.659-3.529l-24.442-8.187a3.463,3.463,0,0,0-2.873.319,19.1,19.1,0,0,1-11.467,3.4,17.035,17.035,0,0,1-8.821-3.222,1.546,1.546,0,0,0-2.527,1.2v11.952a2.677,2.677,0,0,0,2.689,2.678Z" fill="#c1d8ed"></path>
      <path d="M180.009,628.4a4.108,4.108,0,0,0,4.076-4.427h0a4.106,4.106,0,0,0-2.658-3.529l-24.443-8.187a3.461,3.461,0,0,0-2.872.319,19.1,19.1,0,0,1-11.468,3.4,17.031,17.031,0,0,1-8.82-3.222,1.547,1.547,0,0,0-2.528,1.2v11.952a2.678,2.678,0,0,0,2.689,2.678Z" fill="#c1d8ed"></path>
      <path d="M24.4,320.563s-11.36,50.871-11.36,93.653S0,523.26,0,523.26s36.967-5.98,62.044,0C105.253,533.563,144,511.128,144,511.128L100.48,325.258Z" fill="#262626"></path>
    </g>
    <g>
      <g>
        <path d="M221.05,272.931s8.209-3.989,14.374-2.459,3.277,4.184-1.21,5.128-14.343,2.48-14.343,2.48" fill="#E98862"></path>
        <path d="M225.845,272.743s15.218-1.6,15.376,2.062c0,0,.667,11.3-1.4,13.043-3.121,2.636-18.579.571-18.579.571Z" fill="#E98862"></path>
      </g>
      <g>
        <path d="M185.615,291.408H126.136a10.5,10.5,0,0,1-8.841-4.837L79.713,227.9,97.4,216.576l34.484,53.832h53.735Z" fill="#367CFF"></path>
        <path d="M105.3,327.2c-4.19,9.63-86.52,13.63-87.62-3.31-.7-10.78,8.8-20.19,8.8-41.2s-19.33-47.84-3.58-63.59c4.57-4.57,12.46-7.52,22.08-7.53.72,5.61,34.78,5.63,35.04.13,1.3.02,2.31.04,2.94.07,33.18,1.43,18.6,39.19,18.28,66.93C100.852,311.156,109.622,317.276,105.3,327.2Z" fill="#367CFF"></path>
        <path d="M80.022,211.7c-.26,5.5-3.25,13.59-12.48,14.2-12.3.81-21.84-8.72-22.56-14.33h.03C57.122,211.566,72.962,211.586,80.022,211.7Z" fill="#E98862"></path>
      </g>
      <g>
        <g>
          <circle cx="176.882" cy="280.908" r="60" fill="#0cbc8b"></circle>
          <g opacity="0.29">
            <circle cx="176.882" cy="280.908" r="38.896" fill="#fff"></circle>
          </g>
        </g>
        <path d="M164.151,294.8l3.628-5.626c2.876,2.2,5.391,3.327,8.067,3.327,3.206,0,4.617-1.33,4.617-3.905,0-5.821-14.934-5.716-14.934-15.925,0-6.563,4.546-10.743,11.715-10.743a14.03,14.03,0,0,1,10.77,4.8l-4.162,4.767c-2.056-1.87-3.8-2.855-6.162-2.855-2.722,0-4.2,1.1-4.2,3.639,0,5.395,14.934,4.924,14.934,15.739,0,6.5-4.3,11.2-12.58,11.2A18.827,18.827,0,0,1,164.151,294.8Zm9.95-38.417h5.519v8.148H174.1Zm0,39.434h5.519v8.94H174.1Z" fill="#fff"></path>
      </g>
      <path d="M239.816,287.851a3.45,3.45,0,0,1-.929.528c-1.794.37-6.315-.712-7.04-1.966-1.18-2.041-.448-9.415.593-12.09.977-2.5,5.843-1.454,6.482-1.335a.378.378,0,0,0,.061.016c1.327.364,2.2.932,2.237,1.805C241.22,274.809,241.89,286.1,239.816,287.851Z" fill="#E98862"></path>
      <g>
        <path d="M107.336,294.668s2.409-13.154,11.715-10.864c5.871,1.444,22.934-1.134,23.193,6.405.225,6.542-15.8,8.286-21.1,7.741C116.387,297.461,107.336,294.668,107.336,294.668Z" fill="#E98862"></path>
        <path d="M115.643,283.658s13.843-2.042,16.935-.727c2.738,1.164-4,4.8-4,4.8Z" fill="#E98862"></path>
      </g>
      <path d="M120.071,301.973l-61.88-1.888a10.9,10.9,0,0,1-9.322-5.833L18.317,236l19.31-10.127,27.594,52.615,55.515,1.694Z" fill="#367CFF"></path>
    </g>
  </g>
  <g>
    <g>
      <path d="M480.077,619.942l20.789-2.473c-.936-7.868-1.991-17.319-2.065-18.869,0,.1,0,.181,0,.244H477.87C477.87,599.472,477.87,601.381,480.077,619.942Z" fill="#E98862"></path>
      <path d="M563.493,622.444l20.935-.069s-.07-21.617-.07-23.531H563.423C563.423,600.764,563.493,622.444,563.493,622.444Z" fill="#E98862"></path>
      <path d="M509.234,613.331l-36.88-.628c1.533-38.842,1.793-83.269,2.206-123.47a233.323,233.323,0,0,1,2.253-29.78c5.934-42.59,9.8-84.94,17.793-127.282l.266.079.78-5.314,75.84-4.681,3.948,49.551s9.879,171.413,14.384,240.336l-36.755,3.106C546.447,547.673,536.2,449.209,529.9,378.22c-7.239,34.561-12.158,70.348-18.457,104.614C510.18,525.727,509.117,570.566,509.234,613.331Z" fill="#262626"></path>
      <path d="M538.044,630.541a4.1,4.1,0,0,1-4.064-4.413h0a4.1,4.1,0,0,1,2.651-3.519L561,614.448a3.45,3.45,0,0,1,2.864.319,19.051,19.051,0,0,0,11.432,3.39,16.982,16.982,0,0,0,8.793-3.212,1.542,1.542,0,0,1,2.52,1.2v11.915a2.67,2.67,0,0,1-2.681,2.67Z" fill="#c1d8ed"></path>
      <path d="M454.571,630.541a4.1,4.1,0,0,1-4.064-4.413h0a4.1,4.1,0,0,1,2.65-3.519l24.367-8.161a3.447,3.447,0,0,1,2.863.319,19.055,19.055,0,0,0,11.433,3.39,16.986,16.986,0,0,0,8.793-3.212,1.541,1.541,0,0,1,2.519,1.2v11.915a2.67,2.67,0,0,1-2.68,2.67Z" fill="#c1d8ed"></path>
    </g>
    <g>
      <g>
        <path d="M549.362,217.851s-7.909-4.193-6.143-25.732l-16.342-3.03s1.836,19.311-6.431,25.442Z" fill="#E98862"></path>
        <g opacity="0.2">
          <path d="M523.795,210.493l13.576-10.386L526.708,200A29.412,29.412,0,0,1,523.795,210.493Z"></path>
        </g>
        <path d="M552.491,183.768c-1.131,6.534-4.7,12.722-10.461,14.833a41.419,41.419,0,0,1-19.8,2.675c-17.89-1.467-14.351-42.144-5.858-50.046s33.421-2.9,36.453,10.318C554.393,168.383,553.568,177.548,552.491,183.768Z" fill="#E98862"></path>
        <g>
          <circle cx="526.9" cy="177.252" r="1.482" fill="#0f1011"></circle>
          <circle cx="515.207" cy="176.293" r="1.482" fill="#0f1011"></circle>
          <path d="M512.639,173.135h.009l3.926-.049a.7.7,0,0,0-.009-1.393h-.009l-3.926.049a.7.7,0,0,0,.009,1.393Z" fill="#0f1011"></path>
          <path d="M530.1,174.567a.7.7,0,0,0,.162-1.374l-3.871-.931a.7.7,0,0,0-.327,1.353l3.872.932A.714.714,0,0,0,530.1,174.567Z" fill="#0f1011"></path>
        </g>
        <path d="M542.261,197.82c.339,1.087.577,1.561,1.555.979,3.843-2.283,11.466-7.25,14.412-25.861,2.64-16.675-7.647-23.552-15.85-26.007-7.072-2.115-21.794-.621-29.739,3.7-5.893,3.205-1.581,11.8-1.581,11.8,2.95.136,2.3-7.693,9.263-7.693,5.38,0,10.12,7.961,15.157,8.172,4.611.194,5.558,3.005,5.4,4.8C539.881,178.642,541.06,193.979,542.261,197.82Z" fill="#0f1011"></path>
        <path d="M534.611,180.879a6.283,6.283,0,0,0,12.524,1.027,6.179,6.179,0,0,0-5.749-6.776C536.908,174.984,534.894,177.42,534.611,180.879Z" fill="#E98862"></path>
        <g opacity="0.2">
          <path d="M520.321,185.473a.512.512,0,0,0,.151-1l-3.015-.925,2.109-4.7a.511.511,0,0,0-.933-.419l-2.346,5.224a.509.509,0,0,0,.316.7l3.568,1.1A.493.493,0,0,0,520.321,185.473Z"></path>
        </g>
        <path d="M526.215,188.925s-5.471.577-9.306-.763c0,0,.03,3.6,4.36,3.958S526.215,188.925,526.215,188.925Z" fill="#fff"></path>
      </g>
      <path d="M512.149,151.184c-5.3,3.552-4.259,10.356-3.264,16.26h6.565l2.753-9.556,3.359,9.556,25.594.885-3.086-12.693Z" fill="#0f1011"></path>
      <circle cx="560.281" cy="189.089" r="14.326" fill="#0f1011"></circle>
    </g>
    <g>
      <path d="M489.334,331.723c4.285,9.85,86.249,13.942,87.374-3.386.717-11.026-8.291-21.326-8.291-42.817s16.126-43.073.015-59.184c-4.674-4.674-7.559-12.878-17.4-12.888-.737,5.738-35.576,5.758-35.842.133-1.33.02-2.363.04-3.007.071-33.94,1.463-16.455,40.176-16.128,68.551C496.456,315.406,484.915,321.576,489.334,331.723Z" fill="#fff"></path>
      <path d="M515.106,213.4c.266,5.626,3.325,13.9,12.766,14.525,12.581.828,22.339-8.92,23.076-14.658h-.031C538.53,213.267,522.328,213.287,515.106,213.4Z" fill="#E98862"></path>
      <path d="M494.447,219.841a24.941,24.941,0,0,1,15.242-6.413s10.246-.051,10.222-.1c.8,1.851-.368,38.521-1.391,58.651-1.118,21.791.031,49-1.008,64.645a7.442,7.442,0,0,1-8.546,6.856c-11.017-1.686-19.607-4.557-20.86-7.436-4.418-10.147,5.779-20.726,5.38-53.928,0-.192-.008-.387-.011-.58l-.072.4c-.1-8.936-1.619-18.92-2.677-28.449" fill="#367CFF"></path>
      <g>
        <path d="M382.976,273.337s7.861,4.047,16.339,4.047l2.739-13.565S394,256.547,391.1,257.3c-2.4.62-.718,2.935,1.435,5.087" fill="#E98862"></path>
        <path d="M382.976,273.337s7.861,4.047,16.339,4.047l2.739-13.565S394,256.547,391.1,257.3c-2.4.62-.718,2.935,1.435,5.087" fill="#E98862"></path>
        <path d="M382.976,273.337s7.861,4.047,16.339,4.047l2.739-13.565S394,256.547,391.1,257.3c-2.4.62-.718,2.935,1.435,5.087" opacity="0.15"></path>
        <g>
          <rect x="375.787" y="275.21" width="11.641" height="19.011" rx="2.703" transform="translate(226.991 -165.597) rotate(34.323)" fill="#0cbc8b"></rect>
          <g>
            <path d="M392.154,277.817l-6.27-1.76a2.827,2.827,0,0,0-3.48,1.96l-.72,2.56a2.825,2.825,0,0,0,1.96,3.49l1.57.44,3.12.88,1.57.44a2.833,2.833,0,0,0,3.49-1.96l.72-2.57A2.827,2.827,0,0,0,392.154,277.817Zm-.65,2.1a.952.952,0,0,1-.93.7,1.068,1.068,0,0,1-.25-.03l-4.32-1.21a.958.958,0,0,1,.26-1.88,1.068,1.068,0,0,1,.25.03l4.33,1.22A.941.941,0,0,1,391.5,279.917Z" fill="#1f2a37"></path>
            <path d="M387.246,290.518l.964-3.443-.327-.091,1.571-5.608-3.116-.873-4.456,15.905a1.618,1.618,0,0,0,1.121,2h0A1.618,1.618,0,0,0,385,297.281l.574-2.046.327.091.808-2.883-.327-.092.539-1.925Z" fill="#1f2a37"></path>
          </g>
          <ellipse cx="389.563" cy="273.063" rx="5.853" ry="4.141" transform="translate(22.952 576.245) rotate(-74.619)" fill="none" stroke="#1f2a37" stroke-miterlimit="10"></ellipse>
        </g>
        <path d="M462.577,295.71a10.512,10.512,0,0,1-2.43-.285l-64.174-15.261,4.859-20.43,57.131,13.586,36.59-53.823L511.92,231.3l-40.66,59.809A10.5,10.5,0,0,1,462.577,295.71Z" fill="#367CFF"></path>
        <path d="M394.454,264.126a3.518,3.518,0,0,0-2.748-4.213c-2.473-.512-6.094-.913-7.652.645-2.478,2.478-4.145,10.258-2.478,11.925s9.258,4.037,10.468.254C392.84,270.245,393.881,266.547,394.454,264.126Z" fill="#E98862"></path>
      </g>
      <path d="M569.957,286.192c0,21.491,9.717,31.116,9,42.143-.442,6.887-3.962,15.6-30.507,17.466a8.406,8.406,0,0,1-8.934-7.361c-5.089-42.3,4.17-98.639,6.772-117.639,1.532-8.108,1.893-7.614,5.738-7.617,9.84.01,16.917,3.289,21.591,7.963C589.728,237.258,569.957,264.712,569.957,286.192Z" fill="#367CFF"></path>
      <path d="M557.92,319.519l.684,5.072-5.571.752a3.333,3.333,0,0,0-2.858,3.749l4.01,29.728a3.335,3.335,0,0,0,3.75,2.858l5.571-.752L564.19,366a3.333,3.333,0,0,0,3.749,2.858l63.516-8.568a3.333,3.333,0,0,0,2.857-3.749l-6.269-46.479a3.334,3.334,0,0,0-3.749-2.858l-63.516,8.568A3.333,3.333,0,0,0,557.92,319.519Z" fill="#c1d8ed"></path>
      <path d="M603.264,347.512l-14.246-1.685-.279,5.593c0,3.049-1.788,11.61.8,12.338.984.277,2.258-1.043,2.929-3.242a9.125,9.125,0,0,1,1.14,4.69c-.313,3.68,12.722,2.094,12.715-1.528A51.437,51.437,0,0,0,603.264,347.512Z" fill="#E98862"></path>
      <path d="M584.263,354.935l22.061-3.273-9.34-62.955a11.173,11.173,0,0,0-.388-1.694l-18.705-59.775-21.285,6.66,18.445,58.944Z" fill="#367CFF"></path>
      <g>
        <path d="M555.093,237.48l-2.537-8.316,4.889-3.2-2.774-12.711c-3.639-.19-6.392-.176-7.446-.136-2.414,8.071-6.231,43.829-7.172,57.362Z" fill="#367CFF"></path>
        <g opacity="0.24">
          <path d="M555.093,237.48l-2.537-8.316,4.889-3.2-2.774-12.711c-3.639-.19-6.392-.176-7.446-.136-2.414,8.071-6.231,43.829-7.172,57.362Z" fill="#fff"></path>
        </g>
        <path d="M512.745,229.164l-4.807,7.293,10.687,33.534s2.454-47.245,1.466-56.718c0,0-2.571.057-4.247.033-2.1-.029-3.987.027-3.987.027l-4,12.63Z" fill="#367CFF"></path>
        <g opacity="0.24">
          <path d="M512.745,229.164l-4.807,7.293,10.687,33.534s2.454-47.245,1.466-56.718c0,0-2.571.057-4.247.033-2.1-.029-3.987.027-3.987.027l-4,12.63Z" fill="#fff"></path>
        </g>
      </g>
    </g>
  </g>
</svg>