<?xml version="1.0" encoding="UTF-8"?>
<svg id="Capa_1" data-name="Capa 1" xmlns="http://www.w3.org/2000/svg" viewBox="0 0 800 600">
  <defs>
    <style>
      .cls-1 {
        fill: #f3f5fd;
      }

      .cls-2 {
        fill: #f5f5f5;
      }

      .cls-3 {
        fill: #e98862;
      }

      .cls-4 {
        fill: #fff;
      }

      .cls-5 {
        fill: #fafafa;
      }

      .cls-6 {
        fill: #ff725e;
      }

      .cls-7 {
        fill: #c1d8ed;
      }

      .cls-8 {
        fill: #8ddbe0;
      }

      .cls-9 {
        fill: #e0e0e0;
      }

      .cls-10 {
        fill: #dee8f5;
      }

      .cls-11 {
        fill: #0cbc8b;
      }

      .cls-12 {
        fill: #0f1011;
      }

      .cls-13 {
        fill: #367cff;
      }

      .cls-14 {
        fill: #455a64;
      }

      .cls-15 {
        fill: #263238;
      }

      .cls-16 {
        fill: #262626;
      }

      .cls-17 {
        fill: #276bd8;
      }

      .cls-18 {
        opacity: .2;
      }

      .cls-19 {
        opacity: .3;
      }

      .cls-20 {
        opacity: .4;
      }

      .cls-21 {
        opacity: .4;
      }

      .cls-22 {
        fill: none;
        stroke: #263238;
        stroke-miterlimit: 10;
        stroke-width: .2px;
      }
    </style>
  </defs>
  <path class="cls-1" d="M89.3,590.2c-37.1,0-65.6-28.9-70.4-65.7C-2.3,362.8,173.2,259.2,213.5,185.8,282.8,59.9,341.6,19.8,440.6,19.8c145.5,0,136.2,160,204.7,261,51.1,75.2,136.6,104.6,136.6,237s-47.4,72.5-84.5,72.5H89.3Z"/>
  <path class="cls-8" d="M698.8,590.2h-36.5c-6.3-8.3-17.5-25.2-10.3-32.3,3.3-3.3,6.9-.2,10.2,5.4-1.1-10.9,0-21.3,7.6-24.4,6.9-2.8,10,5.6,11.2,16.8,3.4-6.4,7.9-10.9,13.7-10.5,8.3,.5,6.3,11.6,1.4,24,3.7-2.8,7.6-4.2,11.3-3,7.9,2.6,.5,13.7-8.7,24Z"/>
  <g>
    <path class="cls-3" d="M624.6,583.6h21.8c0,0,0-22.6,0-24.5h-21.8c0,2,0,24.5,0,24.5Z"/>
    <g>
      <path class="cls-3" d="M537.9,581l21.6-2.6c-1-8.2-2.1-18-2.1-19.6v.3h-21.8c0,.7,0,2.6,2.3,21.9Z"/>
      <path class="cls-16" d="M568.2,574.1l-38.4-.7c1.8-45.7,1.9-93.5,2.5-139.3,7.5-49.3,11.4-103.5,20.7-152.5h.3c0,0,.8-5.4,.8-5.4l78.9-4.9s2.1,38.7,2.8,51.5c4.1,74,11.6,178.3,16.2,250l-38.2,3.2c-6.9-70.3-17.5-172.7-24.1-246.5-7.5,36-12.7,73.2-19.2,108.8-1.3,44.6-2.4,91.3-2.3,135.7Z"/>
      <path class="cls-7" d="M598.2,592c-2.4,0-4.3-1.9-4.2-4.3,0-.1,0-.2,0-.3h0c.1-1.7,1.2-3.1,2.8-3.7l25.3-8.5c1-.3,2.1-.2,3,.3,3.5,2.4,7.7,3.7,11.9,3.5,3.3-.2,6.5-1.4,9.1-3.3,.7-.6,1.7-.5,2.3,.2,.2,.3,.4,.6,.4,1v12.4c0,1.5-1.2,2.8-2.8,2.8h0l-47.7-.2Z"/>
      <path class="cls-7" d="M511.3,592c-2.4,0-4.3-1.9-4.2-4.3,0-.1,0-.2,0-.3h0c.1-1.7,1.2-3.1,2.8-3.7l25.3-8.5c1-.3,2.1-.2,3,.3,3.5,2.4,7.7,3.7,11.9,3.5,3.3-.2,6.5-1.4,9.1-3.3,.7-.6,1.7-.5,2.3,.2,.2,.3,.4,.6,.4,1v12.4c0,1.5-1.2,2.8-2.8,2.8h0l-47.7-.2Z"/>
    </g>
    <g>
      <g>
        <path class="cls-3" d="M608.8,158.8s-8-4.3-6.2-26.1l-16.6-3.1s1.9,19.6-6.5,25.8l29.3,3.4Z"/>
        <g class="cls-18">
          <path d="M582.9,151.3l13.8-10.5h-10.8c-.3,3.6-1.3,7.2-3,10.5Z"/>
        </g>
        <path class="cls-3" d="M612,124.2c-1.1,6.6-4.8,12.9-10.6,15-6.4,2.5-13.3,3.5-20.1,2.7-18.1-1.5-14.5-42.7-5.9-50.7,8.6-8,33.9-2.9,37,10.5,1.6,6.9,.8,16.2-.3,22.5Z"/>
        <g>
          <circle class="cls-12" cx="586" cy="117.6" r="1.5"/>
          <circle class="cls-12" cx="574.2" cy="116.6" r="1.5"/>
          <path class="cls-12" d="M571.6,113.4h4c.4,0,.7-.4,.7-.8,0-.4-.3-.7-.7-.7h-4c-.4,0-.7,.4-.7,.8s.3,.7,.7,.7h0Z"/>
          <path class="cls-12" d="M589.3,114.9c.4,0,.7-.3,.7-.7,0-.3-.2-.6-.5-.7l-3.9-.9c-.4,0-.8,.1-.9,.5,0,.4,.1,.8,.5,.9,0,0,0,0,0,0l3.9,.9c0,0,.1,0,.2,0Z"/>
        </g>
        <path class="cls-12" d="M601.6,138.4c.3,1.1,.6,1.6,1.6,1,3.9-2.3,11.6-7.3,14.6-26.2,2.7-16.9-7.8-23.9-16.1-26.4-7.2-2.1-22.1-.6-30.1,3.7-6,3.2-1.6,12-1.6,12,3,.1,2.3-7.8,9.4-7.8s10.3,8.1,15.4,8.3c4.7,.2,5.6,3,5.5,4.9-1,11.1,.2,26.6,1.4,30.5Z"/>
        <path class="cls-3" d="M593.8,121.3c-.2,3.5,2.4,6.5,5.9,6.8,3.4,.2,6.4-2.3,6.8-5.7,.3-3.4-2.2-6.5-5.6-6.9,0,0-.1,0-.2,0-4.5-.1-6.6,2.3-6.9,5.8Z"/>
        <g class="cls-18">
          <path d="M579.3,125.9c.3,0,.5-.2,.5-.5,0-.2-.1-.4-.4-.5l-3.1-.9,2.1-4.8c.1-.3,0-.6-.3-.7s-.6,0-.7,.3h0l-2.4,5.3c-.1,.3,0,.6,.3,.7,0,0,0,0,0,0l3.6,1.1s.1,0,.2,0Z"/>
        </g>
        <path class="cls-4" d="M585.3,129.4s-5.5,.6-9.4-.8c0,0,0,3.7,4.4,4s5-3.2,5-3.2Z"/>
      </g>
      <path class="cls-12" d="M571.1,91.2c-5.4,3.6-4.3,10.5-3.3,16.5h6.7l2.8-9.7,3.4,9.7,25.9,.9-3.1-12.9"/>
      <circle class="cls-12" cx="619.9" cy="129.6" r="14.5"/>
    </g>
    <g>
      <g>
        <path class="cls-3" d="M495.7,159.9s-.2-12.5-9.1-11.8c-5.6,.4-32.3-.8-32.7,1.6-1,6,23.4,7.5,25.6,13.1l16.1-2.9Z"/>
        <path class="cls-3" d="M489.8,148.5s-12.4-4-15.4-3.3c-2.7,.6,2.9,5,2.9,5l12.5-1.7Z"/>
      </g>
      <path class="cls-4" d="M547.8,274c4.3,10,89.7,14.1,90.9-3.4,.7-11.2-9.1-20.9-9.1-42.7s14.8-44.3-1.5-60.7c-4.7-4.7-7.7-13.1-17.6-13.1-.7,5.8-36.1,5.8-36.3,.1-1.3,0-2.4,0-3,0-34.4,1.5-19.3,40.6-19,69.4,.4,33.7-8.7,40-4.2,50.3Z"/>
      <path class="cls-3" d="M574.1,154.2c.3,5.7,3.4,14.1,12.9,14.7,12.8,.8,22.6-9,23.4-14.9h0c-12.6,0-29,0-36.3,.1Z"/>
      <path class="cls-13" d="M633.3,161.9c-4.7-4.7-13.1-8-23.1-8-3.9,0-3.1-.6-4.6,7.6-1.2,8.9-3.9,25.8-5.9,45.6l-12.4,25.9-10.4-.3c0-6.6,.2-13.2,.5-19.4,1-20.4,2.5-57.3,.5-59.4-.3-.3-8.8,0-9.4,0-7.4,.3-12.3,2.8-15.4,6.7l-34.2,33.3-22.2-41.4-19.2,10.3,29,54.2c2.8,5.3,9.4,7.3,14.7,4.5,.9-.5,1.7-1.1,2.5-1.8l25.6-24.9c1.1,9.7,2.6,19.8,2.7,28.8,0,3,0,5.7-.1,8.3l-22.4-.7-.7,22.6,20.1,.6c-2.5,11.3-5.1,17.6-2.4,23.8,1.3,2.9,10,5.8,21.2,7.5,4.1,.6,8-2.2,8.6-6.3,0-.2,0-.4,0-.6,.4-6.3,.5-14.6,.5-23.5l17.1,.5c.1,0,.2,0,.3,0,1,0,1.9-.1,2.8-.4,0,8.4,.5,16.9,1.5,25.2,.6,4.5,4.5,7.8,9.1,7.5,26.9-1.9,30.5-10.7,30.9-17.7,.7-11.2-9.1-20.9-9.1-42.7s20-49.6,3.7-65.9Z"/>
      <path class="cls-3" d="M510.9,244.1c4.7,2.9,11.9,4.2,18.1,4.7l.4-11.4c-3,0-7.5-.4-11.9-.2-2-1.6-3.2-2.1-5.2-4.2-2.2-2.2-8-3.5-9,0s3.6,8.6,7.7,11.1Z"/>
    </g>
  </g>
  <g>
    <g>
      <path class="cls-8" d="M134,538.2c-7.5-2.2-13.2-8.9-15.4-16.4s-1.5-15.6,.7-23.1c1.8-6.1,4.5-12,5.2-18.4,2.2-21.1-18.3-42.7-8.6-61.6,3.1-6.1,9.1-10.9,10.2-17.7,.9-5.6-1.9-11.1-3.2-16.6-1.9-7.6-.9-16.2,4-22.3s14.2-8.7,21-4.8c8.9,5.1,9.6,17.6,7.4,27.6s-6.5,20.2-3.7,30.1c2.7,9.4,11.3,16.4,12.8,26.1,1.3,8-2.6,15.8-4.3,23.7-2.7,12.4,0,25.3,.2,38.1s-3.5,27-26.2,35.3Z"/>
      <path class="cls-10" d="M122.4,539.5c-9.1-2.9-15.9-10.5-17.9-19.8-1.5-7.6,.3-16.1-3.8-22.6-5.6-8.8-11.4-9.8-18.4-17.6-10.8-12-11.1-17.2-10.4-39.4,.3-9.4-12.6-19.9-8.1-28.9,4-7.9,16.2-8,23.1-2.4s9.9,14.5,13,22.9,6.8,17.2,14.4,21.7c4.6,2.7,10.6,4,13.1,8.7,2,3.8,1,8.4,.2,12.6-2.1,10.6-1.5,23.4,7.3,29.5,4,2.8,9.2,3.7,12.5,7.3,3.2,3.5,3.8,8.8,3.6,13.6-.4,9.2-3,18.2-7.4,26.3"/>
      <path class="cls-4" d="M133.1,546.8c-8-9.5-9.1-23.1-2.6-33.8,5.4-8.6,15.5-14.5,17.7-24.5,1.9-8.9-3.4-18-1.8-26.9,1.7-9.7,10.7-16.1,17.8-22.9,1.9-1.7,3.4-3.6,4.7-5.7,3.1-5.6,2.3-12.5,3.3-18.9,2-12.2,12.1-23,24.2-25,10.7-1.8,18.3,4.4,18.3,15.7s-10,19.1-15.1,25.2c-7.3,8.8-11.2,19.9-11,31.4,.4,12.8,5.8,26.4,0,37.8-4.3,8.4-13.4,12.8-20.5,18.9-10.9,9.4-17.5,22.8-18.2,37.2"/>
    </g>
    <rect class="cls-11" x="103.2" y="525.8" width="64.4" height="64.4"/>
    <g class="cls-20">
      <rect class="cls-4" x="103.2" y="538.4" width="64.4" height="12.6"/>
    </g>
  </g>
  <g>
    <path class="cls-11" d="M556.5,171.9c-13.9-8.1-39.7-4-39.7-4-5.6-7-13.1-6.6-16.5-6-1,.2-1.8,1.1-1.8,2.2l.2,10.6c-10.6,4.4-13.1,18-13.1,18l-4.8,1.3c-1.7,.5-2.9,2.1-2.9,3.9l.2,10.3c0,1.8,1.3,3.4,3.1,3.8l4.7,1c5.6,8.7,11,13.4,18.4,15.8l.2,9.1,15-.2,3.5-6.3,17-.4,2.8,6.9,15.6-.8,.2-10.7c10.7-8.7,13.6-14.3,13.9-26,.2-11.7-2.5-20.4-15.9-28.3Z"/>
    <path class="cls-15" d="M494.5,189.7c-1.4,.6-1.8,2.8-.6,3.9,1.2,1,3.3,.4,3.7-1.1,.4-1.5-1.1-3.2-2.6-2.9"/>
    <path class="cls-15" d="M502.9,175.3c0,0,0-.7-.2-1.9-.1-1.1-.4-2.7-.8-4.4-.5-1.7-1.1-3.2-1.5-4.2-.5-1.1-.8-1.7-.8-1.7,0,0,.5,.6,1,1.6,.5,1,1.2,2.5,1.6,4.2,.5,1.7,.7,3.3,.7,4.5,0,1.2,0,1.9,0,1.9Z"/>
    <g class="cls-19">
      <path d="M521.5,173.1l1,1.8c6.2-1.2,12.6-1.3,19.2-.3l-1.9-2c-6.2-1.1-12.2-.8-18.4,.6Z"/>
    </g>
    <path class="cls-15" d="M482.3,202.8c0,1.1-.4,1.9-.9,1.9s-.9-.8-.9-1.9c0-1.1,.4-1.9,.9-1.9,.5,0,.9,.8,.9,1.9Z"/>
    <path class="cls-15" d="M480.3,210.3s.3,.1,.9,.1c.5,0,1.4,0,2.1-.8,.3-.4,.7-.8,.9-1.3,.3-.5,.4-1.1,.6-1.8,.3-1.3,.5-2.7,.5-4.3,0-1.5-.2-3-.6-4.2-.4-1.3-1.1-2.2-2-2.7-.8-.5-1.7-.6-2.2-.6-.6,0-.8,.2-.9,.1,0,0,0,0,.2-.1,.1,0,.4-.1,.6-.2,.6,0,1.5,0,2.4,.5,.9,.5,1.7,1.6,2.2,2.9,.4,1.3,.6,2.8,.6,4.3,0,1.6-.2,3-.6,4.3-.2,.6-.3,1.3-.6,1.8-.3,.5-.7,1-1,1.3-.4,.4-.8,.6-1.2,.7-.4,0-.8,0-1.1,0-.3,0-.5,0-.6-.2-.1,0-.2-.1-.2-.1Z"/>
    <path class="cls-15" d="M554.3,227.7s-.2,0-.5,.1c-.4,0-.8,.2-1.4,.3-1.2,.3-2.9,.6-5.1,1-2.2,.4-4.7,.7-7.6,1-2.9,.3-6.1,.5-9.4,.6-3.3,0-6.5,0-9.4-.1-2.9-.2-5.5-.4-7.7-.7-2.2-.3-3.9-.5-5.1-.7-.6-.1-1-.2-1.4-.3-.3,0-.5,0-.5-.1,0,0,.2,0,.5,0,.4,0,.8,.1,1.4,.2,1.2,.2,3,.4,5.1,.6,2.2,.2,4.8,.4,7.7,.6,2.9,.1,6.1,.2,9.4,.1,3.3,0,6.5-.3,9.4-.6,2.9-.3,5.5-.6,7.6-1,2.2-.3,3.9-.6,5.1-.9,.6-.1,1-.2,1.4-.3,.3,0,.5,0,.5,0Z"/>
    <path class="cls-15" d="M516.6,167.8s0,.3-.1,.8c0,.5-.3,1.2-.6,2-.6,1.6-1.9,3.8-4,5.5-2.1,1.7-4.5,2.5-6.2,2.8-.9,.2-1.6,.2-2.1,.2-.5,0-.8,0-.8,0,0,0,1.1,0,2.8-.4,1.7-.3,4-1.2,6-2.9,2-1.7,3.3-3.7,4-5.3,.7-1.6,.9-2.6,1-2.6Z"/>
  </g>
  <g>
    <circle class="cls-2" cx="413.9" cy="387.6" r="70.9" transform="translate(-33.8 735.7) rotate(-81)"/>
    <path class="cls-15" d="M484.8,387.6s0-.4,0-1.1c0-.8,0-1.9-.2-3.4-.2-3-.7-7.3-2-12.8-.7-2.7-1.6-5.7-2.9-8.9-1.3-3.2-2.9-6.6-4.9-10-4.1-6.8-10-14-18-20.1-4-3.1-8.5-5.8-13.5-8.1-5-2.3-10.4-4.1-16.3-5.1-5.8-1.1-11.9-1.5-18.2-1-3.1,.2-6.3,.7-9.5,1.3-3.2,.7-6.3,1.6-9.4,2.7-12.5,4.5-24.3,12.9-32.8,24.6-2.2,2.9-4.1,6-5.8,9.3-1.7,3.2-3.2,6.7-4.3,10.2-2.4,7.1-3.6,14.6-3.6,22.3,0,7.7,1.2,15.2,3.6,22.3,.6,1.8,1.3,3.5,1.9,5.2,.8,1.7,1.5,3.4,2.4,5,1.7,3.2,3.6,6.4,5.8,9.3,8.5,11.7,20.4,20.1,32.8,24.6,3.1,1.1,6.3,2,9.4,2.7,3.2,.6,6.3,1.1,9.5,1.3,6.3,.5,12.4,0,18.2-1,5.8-1,11.3-2.9,16.3-5.1,5-2.3,9.5-5,13.5-8.1,8-6.1,13.9-13.3,18-20.1,2.1-3.4,3.7-6.8,4.9-10,1.3-3.2,2.2-6.2,2.9-8.9,1.4-5.5,1.8-9.8,2-12.8,.1-1.5,.1-2.6,.2-3.4,0-.8,0-1.1,0-1.1,0,0,0,1.6-.1,4.5-.1,3-.6,7.3-1.9,12.8-.7,2.7-1.6,5.8-2.9,8.9-1.3,3.2-2.8,6.6-4.9,10-4.1,6.9-10,14.1-18,20.2-4,3.1-8.5,5.9-13.6,8.1-5,2.3-10.5,4.1-16.3,5.2-5.8,1.1-12,1.5-18.3,1-3.2-.2-6.3-.7-9.5-1.3-3.2-.7-6.4-1.6-9.5-2.7-12.6-4.5-24.5-13-33.1-24.8-2.2-2.9-4.1-6.1-5.8-9.3-.9-1.6-1.6-3.3-2.4-5-.7-1.7-1.4-3.5-2-5.3-2.4-7.1-3.6-14.8-3.6-22.5,0-7.7,1.2-15.3,3.6-22.5,1.2-3.6,2.6-7,4.4-10.3,1.7-3.3,3.6-6.4,5.8-9.3,8.6-11.8,20.5-20.3,33.1-24.8,3.2-1.1,6.3-2,9.5-2.7,3.2-.6,6.4-1.1,9.5-1.3,6.3-.5,12.5,0,18.3,1,5.8,1.1,11.3,2.9,16.3,5.2,5,2.3,9.6,5.1,13.6,8.1,8,6.2,13.9,13.4,18,20.2,2.1,3.4,3.6,6.8,4.9,10,1.3,3.2,2.2,6.2,2.9,8.9,1.3,5.5,1.8,9.9,1.9,12.8,.1,3,.1,4.5,.1,4.5Z"/>
  </g>
  <g>
    <rect class="cls-13" x="373.7" y="359.4" width="88.7" height="59.8" rx="7.3" ry="7.3"/>
    <g class="cls-19">
      <rect class="cls-4" x="373.7" y="372.3" width="88.7" height="12.5"/>
    </g>
    <path class="cls-15" d="M412.8,405.8c0,.1-7.2,.3-16.1,.3s-16.1-.1-16.1-.3,7.2-.3,16.1-.3,16.1,.1,16.1,.3Z"/>
    <path class="cls-15" d="M419.6,403c0,.1-8.8,.3-19.5,.3s-19.5-.1-19.5-.3,8.7-.3,19.5-.3,19.5,.1,19.5,.3Z"/>
    <g>
      <ellipse class="cls-4" cx="443.5" cy="395.6" rx="5.2" ry="5.2"/>
      <path class="cls-4" d="M450.4,401c-2.9,0-5.3-2.4-5.3-5.3s2.4-5.3,5.3-5.3,5.3,2.4,5.3,5.3-2.4,5.3-5.3,5.3Zm0-9.5c-2.3,0-4.3,1.9-4.3,4.3s1.9,4.3,4.3,4.3,4.3-1.9,4.3-4.3-1.9-4.3-4.3-4.3Z"/>
    </g>
  </g>
  <g>
    <g>
      <circle class="cls-2" cx="414.6" cy="81.6" r="70.9"/>
      <path class="cls-15" d="M485.5,81.6s0-.4,0-1.1c0-.8,0-1.9-.2-3.4-.2-3-.7-7.3-2-12.8-.7-2.7-1.6-5.7-2.9-8.9-1.3-3.2-2.9-6.6-4.9-10-4.1-6.8-10-14-18-20.1-4-3.1-8.5-5.8-13.5-8.1-5-2.3-10.4-4.1-16.3-5.1-5.8-1.1-11.9-1.5-18.2-1-3.1,.2-6.3,.7-9.5,1.3-3.2,.7-6.3,1.6-9.4,2.7-12.5,4.5-24.3,12.9-32.8,24.6-2.2,2.9-4.1,6-5.8,9.3-1.7,3.2-3.2,6.7-4.3,10.2-2.4,7.1-3.6,14.6-3.6,22.3,0,7.7,1.2,15.2,3.6,22.3,.6,1.8,1.3,3.5,1.9,5.2,.8,1.7,1.5,3.4,2.4,5,1.7,3.2,3.6,6.4,5.8,9.3,8.5,11.7,20.4,20.1,32.8,24.6,3.1,1.1,6.3,2,9.4,2.7,3.2,.6,6.3,1.1,9.5,1.3,6.3,.5,12.4,0,18.2-1,5.8-1,11.3-2.9,16.3-5.1,5-2.3,9.5-5,13.5-8.1,8-6.1,13.9-13.3,18-20.1,2.1-3.4,3.7-6.8,4.9-10,1.3-3.2,2.2-6.2,2.9-8.9,1.4-5.5,1.8-9.8,2-12.8,.1-1.5,.1-2.6,.2-3.4,0-.8,0-1.1,0-1.1,0,0,0,1.6-.1,4.5-.1,3-.6,7.3-1.9,12.8-.7,2.7-1.6,5.8-2.9,8.9-1.3,3.2-2.8,6.6-4.9,10-4.1,6.9-10,14.1-18,20.2-4,3.1-8.5,5.9-13.6,8.1-5,2.3-10.5,4.1-16.3,5.2-5.8,1.1-12,1.5-18.3,1-3.2-.2-6.3-.7-9.5-1.3-3.2-.7-6.4-1.6-9.5-2.7-12.6-4.5-24.5-13-33.1-24.8-2.2-2.9-4.1-6.1-5.8-9.3-.9-1.6-1.6-3.3-2.4-5-.7-1.7-1.4-3.5-2-5.3-2.4-7.1-3.6-14.8-3.6-22.5,0-7.7,1.2-15.3,3.6-22.5,1.2-3.6,2.6-7,4.4-10.3,1.7-3.3,3.6-6.4,5.8-9.3,8.6-11.8,20.5-20.3,33.1-24.8,3.2-1.1,6.3-2,9.5-2.7,3.2-.6,6.4-1.1,9.5-1.3,6.3-.5,12.5,0,18.3,1,5.8,1.1,11.3,2.9,16.3,5.2,5,2.3,9.6,5.1,13.6,8.1,8,6.2,13.9,13.4,18,20.2,2.1,3.4,3.6,6.8,4.9,10,1.3,3.2,2.2,6.2,2.9,8.9,1.3,5.5,1.8,9.9,1.9,12.8,.1,3,.1,4.5,.1,4.5Z"/>
    </g>
    <g>
      <g>
        <polygon class="cls-6" points="428.2 48.8 400.5 48.9 400.5 49.1 396.4 119 455.7 118.8 455.5 76 428.2 48.8"/>
        <polygon class="cls-17" points="428.2 48.8 400.5 48.9 400.5 49.1 396.4 119 455.7 118.8 455.5 76 428.2 48.8"/>
        <polygon class="cls-13" points="400.5 48.9 372.9 75 373 119.1 428.5 118.9 428.3 75.7 400.5 48.9"/>
        <g class="cls-19">
          <rect class="cls-4" x="408.3" y="79.7" width="11.8" height="11.8" transform="translate(-.3 1.4) rotate(-.2)"/>
        </g>
        <g class="cls-19">
          <rect class="cls-4" x="379.5" y="79.8" width="11.8" height="11.8" transform="translate(-.3 1.3) rotate(-.2)"/>
        </g>
        <rect class="cls-13" x="379.4" y="53.7" width="5.9" height="17.5" transform="translate(-.2 1.3) rotate(-.2)"/>
        <g class="cls-19">
          <rect x="391.4" y="97.3" width="13.7" height="21.7" transform="translate(-.4 1.4) rotate(-.2)"/>
        </g>
      </g>
      <path class="cls-15" d="M428.2,48.8s0,0,.1,.1c.1,0,.2,.2,.4,.4,.4,.3,.9,.8,1.5,1.4,1.3,1.3,3.2,3.2,5.6,5.5,4.8,4.8,11.7,11.6,19.8,19.6l.4,.4h-.6c-8.2,0-17.4-.2-27.2-.3h-.1s0,0,0,0c-1.5-1.5-3.1-3-4.8-4.6-8.3-8-16.2-15.6-23-22.2h.3c-8.7,8.2-16.1,15.1-21.3,19.9-2.6,2.4-4.6,4.3-6,5.6-.7,.6-1.2,1.1-1.6,1.5-.2,.2-.3,.3-.4,.4,0,0-.1,.1-.2,.1,0,0,0,0,.1-.1,.1-.1,.2-.2,.4-.4,.4-.4,.9-.9,1.6-1.5,1.4-1.3,3.4-3.3,6-5.7,5.2-4.9,12.5-11.8,21.2-20.1l.2-.2,.2,.2c6.9,6.6,14.8,14.2,23.1,22.2,1.6,1.6,3.2,3.1,4.8,4.6h-.2c9.8,0,19,.2,27.2,.3l-.2,.4c-8.1-8.1-14.9-14.9-19.7-19.8-2.4-2.4-4.2-4.3-5.5-5.6-.6-.6-1.1-1.1-1.4-1.5-.1-.2-.3-.3-.4-.4,0,0-.1-.1-.1-.1Z"/>
      <path class="cls-15" d="M405.1,119s0-.1,0-.4c0-.3,0-.7,0-1.2,0-1.1,0-2.7,0-4.5,0-3.9,0-9.3,0-15.5l.3,.3c-2.2,0-4.5,0-6.9,0-2.4,0-4.7,0-6.8,0l.3-.3c0,6.2,0,11.6,0,15.5,0,1.9,0,3.4,0,4.5,0,.5,0,.9,0,1.2,0,.3,0,.4,0,.4s0-.1,0-.4c0-.3,0-.7,0-1.2,0-1.1,0-2.7,0-4.5,0-3.9,0-9.3,0-15.5v-.3s.3,0,.3,0c2.2,0,4.5,0,6.8,0,2.4,0,4.7,0,6.9,0h.3s0,.3,0,.3c0,6.2,0,11.6,0,15.5,0,1.9,0,3.4,0,4.5,0,.5,0,.9,0,1.2,0,.3,0,.4,0,.4Z"/>
    </g>
  </g>
  <g>
    <g>
      <circle class="cls-2" cx="244.7" cy="143.8" r="70.9"/>
      <path class="cls-15" d="M315.6,143.8s0-.4,0-1.1c0-.8,0-1.9-.2-3.4-.2-3-.7-7.3-2-12.8-.7-2.7-1.6-5.7-2.9-8.9-1.3-3.2-2.9-6.6-4.9-10-4.1-6.8-10-14-18-20.1-4-3.1-8.5-5.8-13.5-8.1-5-2.3-10.4-4.1-16.3-5.1-5.8-1.1-11.9-1.5-18.2-1-3.1,.2-6.3,.7-9.5,1.3-3.2,.7-6.3,1.6-9.4,2.7-12.5,4.5-24.3,12.9-32.8,24.6-2.2,2.9-4.1,6-5.8,9.3-1.7,3.2-3.2,6.7-4.3,10.2-2.4,7.1-3.6,14.6-3.6,22.3,0,7.7,1.2,15.2,3.6,22.3,.6,1.8,1.3,3.5,1.9,5.2,.8,1.7,1.5,3.4,2.4,5,1.7,3.2,3.6,6.4,5.8,9.3,8.5,11.7,20.4,20.1,32.8,24.6,3.1,1.1,6.3,2,9.4,2.7,3.2,.6,6.3,1.1,9.5,1.3,6.3,.5,12.4,0,18.2-1,5.8-1,11.3-2.9,16.3-5.1,5-2.3,9.5-5,13.5-8.1,8-6.1,13.9-13.3,18-20.1,2.1-3.4,3.7-6.8,4.9-10,1.3-3.2,2.2-6.2,2.9-8.9,1.4-5.5,1.8-9.8,2-12.8,.1-1.5,.1-2.6,.2-3.4,0-.8,0-1.1,0-1.1,0,0,0,1.6-.1,4.5-.1,3-.6,7.3-1.9,12.8-.7,2.7-1.6,5.8-2.9,8.9-1.3,3.2-2.8,6.6-4.9,10-4.1,6.9-10,14.1-18,20.2-4,3.1-8.5,5.9-13.6,8.1-5,2.3-10.5,4.1-16.3,5.2-5.8,1.1-12,1.5-18.3,1-3.2-.2-6.3-.7-9.5-1.3-3.2-.7-6.4-1.6-9.5-2.7-12.6-4.5-24.5-13-33.1-24.8-2.2-2.9-4.1-6.1-5.8-9.3-.9-1.6-1.6-3.3-2.4-5-.7-1.7-1.4-3.5-2-5.3-2.4-7.1-3.6-14.8-3.6-22.5,0-7.7,1.2-15.3,3.6-22.5,1.2-3.6,2.6-7,4.4-10.3,1.7-3.3,3.6-6.4,5.8-9.3,8.6-11.8,20.5-20.3,33.1-24.8,3.2-1.1,6.3-2,9.5-2.7,3.2-.6,6.4-1.1,9.5-1.3,6.3-.5,12.5,0,18.3,1,5.8,1.1,11.3,2.9,16.3,5.2,5,2.3,9.6,5.1,13.6,8.1,8,6.2,13.9,13.4,18,20.2,2.1,3.4,3.6,6.8,4.9,10,1.3,3.2,2.2,6.2,2.9,8.9,1.3,5.5,1.8,9.9,1.9,12.8,.1,3,.1,4.5,.1,4.5Z"/>
    </g>
    <g>
      <g>
        <path class="cls-4" d="M213.3,101.2v85.4h58.7c5.6,0,10.1-4.5,10.1-10.1v-59.8l-20.8-20.8h-42.7c-2.9,0-5.3,2.4-5.3,5.3Z"/>
        <path class="cls-15" d="M213.3,101.2s0,0,0-.2c0-.2,0-.4,0-.7,0-.6,.3-1.5,1-2.4,.7-.9,2-1.9,3.7-2.1,1.7,0,3.7,0,5.9,0,8.9,0,21.6,0,37.3,0h0s0,0,0,0c6.2,6.2,13.2,13.2,20.8,20.7h0c0,0,0,.2,0,.2,0,10.3,0,21.4,0,33,0,5.8,0,11.8,0,17.9,0,3.1,0,6.1,0,9.3,0,1.6-.5,3.2-1.3,4.6-.8,1.4-1.9,2.6-3.2,3.6-1.2,.8-2.7,1.4-4.1,1.6-1.5,.2-2.9,.1-4.4,.2-2.9,0-5.7,0-8.5,0-5.6,0-11.2,0-16.6,0-10.8,0-21.2,0-30.9,0h-.2s0-.2,0-.2c0-25.3,0-46.6,0-61.7,0-7.5,0-13.4,0-17.5,0-2,0-3.6,0-4.6,0-.5,0-.9,0-1.2,0-.3,0-.4,0-.4,0,0,0,.1,0,.4,0,.3,0,.7,0,1.2,0,1.1,0,2.6,0,4.6,0,4.1,0,10,0,17.5,0,15,0,36.4,0,61.7l-.2-.2c9.7,0,20.1,0,30.9,0,5.4,0,11,0,16.6,0,2.8,0,5.7,0,8.5,0,1.4,0,2.9,0,4.3-.1,1.4-.2,2.7-.8,3.9-1.6,1.3-.9,2.3-2,3.1-3.4,.7-1.3,1.1-2.8,1.2-4.4,0-3.1,0-6.2,0-9.2,0-6.1,0-12.1,0-17.9,0-11.7,0-22.8,0-33v.2c-7.5-7.6-14.5-14.6-20.7-20.8h.1c-15.7,0-28.5,0-37.3,0-2.2,0-4.2,0-5.9,0-1.7,.2-2.9,1.1-3.6,2-.7,.9-1,1.8-1.1,2.4-.1,.6,0,.9-.1,.9Z"/>
      </g>
      <path class="cls-9" d="M261.3,95.9l20.8,20.8h-17.3c-1.9,0-3.5-1.6-3.5-3.5v-17.3Z"/>
      <path class="cls-9" d="M202.3,174.1h0c0,6.9,5.6,12.5,12.5,12.5h57.5c-4.5-2.2-7.5-6.8-7.6-11.8v-.7h-62.3Z"/>
      <path class="cls-15" d="M236.4,114.4c0,.1-3.3,.3-7.4,.3s-7.4-.1-7.4-.3,3.3-.3,7.4-.3,7.4,.1,7.4,.3Z"/>
      <path class="cls-15" d="M267.8,123.8c0,.1-10,.3-22.2,.3s-22.2-.1-22.2-.3,10-.3,22.2-.3,22.2,.1,22.2,.3Z"/>
      <path class="cls-15" d="M267.8,132c0,.1-10,.3-22.2,.3s-22.2-.1-22.2-.3,10-.3,22.2-.3,22.2,.1,22.2,.3Z"/>
      <path class="cls-15" d="M267.8,140.3c0,.1-10,.3-22.2,.3s-22.2-.1-22.2-.3,10-.3,22.2-.3,22.2,.1,22.2,.3Z"/>
      <path class="cls-15" d="M267.8,148.5c0,.1-10,.3-22.2,.3s-22.2-.1-22.2-.3,10-.3,22.2-.3,22.2,.1,22.2,.3Z"/>
      <path class="cls-15" d="M267.8,156.8c0,.1-10,.3-22.2,.3s-22.2-.1-22.2-.3,10-.3,22.2-.3,22.2,.1,22.2,.3Z"/>
      <path class="cls-15" d="M267.8,165c0,.1-10,.3-22.2,.3s-22.2-.1-22.2-.3,10-.3,22.2-.3,22.2,.1,22.2,.3Z"/>
      <g>
        <path class="cls-13" d="M294.3,145.9c-.3,10.1-8.7,18.1-18.9,17.9-10.2-.3-18.2-8.7-17.9-18.8,.3-10.1,8.7-18.1,18.9-17.9,10.2,.3,18.2,8.7,17.9,18.8Z"/>
        <g class="cls-19">
          <path d="M277.3,153.8v2.4s-2.2,0-2.2,0v-2.4c-2.1-.2-4.2-.9-5.4-1.8l1.2-2.6c1.1,.8,2.6,1.4,4.2,1.6v-3.6c-2.4-.6-5.1-1.5-5-4.6,0-2.3,1.7-4.3,5.2-4.6v-2.4s2.2,0,2.2,0v2.4c1.6,.1,3.2,.6,4.4,1.4l-1.1,2.7c-1.1-.6-2.2-1-3.3-1.2v3.7c2.4,.6,5,1.4,5,4.5,0,2.3-1.7,4.2-5.1,4.6Zm-2.1-9.7v-3.1c-1.1,.2-1.6,.9-1.6,1.6,0,.8,.6,1.2,1.6,1.5Zm3.7,5.3c0-.8-.6-1.2-1.6-1.5v3c1.1-.2,1.5-.8,1.6-1.5Z"/>
        </g>
        <g class="cls-19">
          <path d="M289.8,144.2c0,0-.1-.6-.3-1.7-.2-1.1-.6-2.6-1.5-4.3-.5-.9-1-1.7-1.8-2.6-.7-.8-1.6-1.7-2.7-2.4-.5-.4-1.1-.7-1.7-1-.6-.3-1.2-.6-1.9-.8-.7-.2-1.3-.4-2-.5-.7-.1-1.4-.2-2.2-.2-.7,0-1.5,0-2.2,.2-.7,.1-1.4,.3-2,.5-.7,.2-1.3,.5-1.9,.8-.6,.3-1.2,.6-1.7,1-1,.7-1.9,1.6-2.7,2.4-.7,.9-1.3,1.8-1.8,2.6-.9,1.7-1.3,3.3-1.5,4.4-.2,1.1-.2,1.7-.3,1.7,0,0-.2-.6-.1-1.7,0-1.1,.3-2.8,1.2-4.6,.4-.9,1-1.9,1.8-2.8,.8-.9,1.7-1.9,2.8-2.7,.6-.4,1.1-.8,1.8-1.1,.6-.3,1.3-.6,2-.9,.7-.2,1.4-.4,2.2-.6,.8-.1,1.5-.2,2.3-.2,.8,0,1.6,0,2.3,.2,.8,.1,1.5,.3,2.2,.5,.7,.2,1.4,.5,2,.8,.6,.3,1.2,.7,1.8,1.1,1.1,.8,2,1.7,2.8,2.6,.8,.9,1.3,1.9,1.8,2.8,.9,1.9,1.2,3.5,1.2,4.6,0,1.1,0,1.7,0,1.7Z"/>
        </g>
        <path class="cls-15" d="M289.9,145.5s0,0,0-.2c0-.2,0-.4,0-.7,0-.3,0-.7,0-1.1,0-.4-.1-.9-.3-1.5-.2-1.1-.7-2.4-1.4-3.8-.8-1.4-1.9-2.8-3.4-4.1-1.5-1.2-3.5-2.3-5.8-2.8-2.3-.5-4.9-.4-7.3,.4-.6,.2-1.2,.5-1.8,.8-.6,.3-1.2,.7-1.7,1.1-1.1,.8-2.1,1.8-3,2.9-.8,1.1-1.6,2.4-2.1,3.8-.5,1.4-.8,2.9-.8,4.4,0,1.5,.2,3,.6,4.4,.4,1.4,1.1,2.7,1.9,3.9,.8,1.2,1.8,2.2,2.8,3.1,.5,.5,1.1,.8,1.7,1.2,.6,.3,1.2,.6,1.8,.9,2.4,1,5,1.2,7.3,.8,2.3-.4,4.3-1.3,5.9-2.5,1.6-1.2,2.8-2.6,3.6-3.9,.8-1.4,1.4-2.6,1.6-3.7,.2-.5,.2-1,.3-1.4,0-.4,.1-.8,.2-1.1,0-.3,0-.5,0-.7,0-.2,0-.2,0-.2,0,0,0,0,0,.2,0,.2,0,.4,0,.7,0,.3,0,.7-.1,1.1,0,.4-.1,.9-.3,1.5-.3,1.1-.8,2.4-1.6,3.8-.8,1.4-2,2.8-3.6,4-1.6,1.2-3.7,2.2-6,2.6-2.3,.4-5,.2-7.5-.8-.6-.2-1.2-.6-1.8-.9-.6-.4-1.2-.7-1.7-1.2-1.1-.9-2.1-1.9-2.9-3.1-.8-1.2-1.5-2.6-1.9-4-.4-1.5-.6-3-.6-4.5,0-1.6,.3-3.1,.8-4.5,.5-1.4,1.2-2.7,2.1-3.9,.9-1.2,1.9-2.2,3.1-3,.6-.4,1.2-.8,1.8-1.1,.6-.3,1.2-.6,1.9-.8,2.5-.9,5.2-.9,7.5-.4,2.3,.5,4.3,1.6,5.9,2.9,1.6,1.3,2.7,2.8,3.4,4.2,.7,1.4,1.2,2.7,1.4,3.9,.1,.5,.2,1,.2,1.5,0,.4,0,.8,0,1.1,0,.3,0,.5,0,.7,0,.2,0,.2,0,.2Z"/>
      </g>
      <path class="cls-15" d="M272.2,186.6s0,0-.3-.1c-.2,0-.4-.2-.7-.4-.2,0-.3-.2-.5-.3-.2-.1-.4-.3-.6-.4-.2-.1-.5-.3-.7-.5-.2-.2-.5-.4-.7-.6-1-.9-2.1-2.2-2.9-3.9-.8-1.7-1.4-3.9-1.4-6.3l.2,.2c-6.5,0-14.6,0-23.4,0-10.7,0-20.4,0-27.5,0-3.5,0-6.3,0-8.3,0-.9,0-1.7,0-2.3,0-.5,0-.8,0-.8,0s.3,0,.8,0c.6,0,1.3,0,2.3,0,2,0,4.9,0,8.3,0,7.1,0,16.8,0,27.5,0,8.8,0,17,0,23.4,0h.2s0,.2,0,.2c0,2.3,.5,4.4,1.3,6.1,.8,1.7,1.8,3,2.8,3.9,2,1.8,3.4,2.4,3.4,2.4Z"/>
      <path class="cls-15" d="M261.3,95.9s0,.6,.1,1.6c0,1.1,0,2.5,0,4.3,0,1.8,0,4,0,6.4,0,1.2,0,2.5,0,3.8,0,.6,0,1.3,0,1.9,.1,.6,.4,1.2,.9,1.6,.5,.5,1,.8,1.6,.9,.6,.1,1.3,0,1.9,0,1.3,0,2.6,0,3.8,0,2.4,0,4.5,0,6.4,0,1.7,0,3.2,0,4.3,0,1,0,1.6,0,1.6,.1s-.6,0-1.6,.1c-1.1,0-2.5,0-4.3,0-1.8,0-4,0-6.4,0-1.2,0-2.5,0-3.8,0-.7,0-1.3,0-2,0-.7-.1-1.4-.5-1.9-1-.5-.5-.9-1.2-1-1.9-.1-.7,0-1.4,0-2,0-1.3,0-2.6,0-3.8,0-2.4,0-4.5,0-6.4,0-1.7,0-3.2,0-4.3,0-1,0-1.6,.1-1.6Z"/>
    </g>
  </g>
  <g>
    <g>
      <circle class="cls-2" cx="263.9" cy="310" r="70.9"/>
      <path class="cls-15" d="M334.8,310s0-.4,0-1.1c0-.8,0-1.9-.2-3.4-.2-3-.7-7.3-2-12.8-.7-2.7-1.6-5.7-2.9-8.9-1.3-3.2-2.9-6.6-4.9-10-4.1-6.8-10-14-18-20.1-4-3.1-8.5-5.8-13.5-8.1-5-2.3-10.4-4.1-16.3-5.1-5.8-1.1-11.9-1.5-18.2-1-3.1,.2-6.3,.7-9.5,1.3-3.2,.7-6.3,1.6-9.4,2.7-12.5,4.5-24.3,12.9-32.8,24.6-2.2,2.9-4.1,6-5.8,9.3-1.7,3.2-3.2,6.7-4.3,10.2-2.4,7.1-3.6,14.6-3.6,22.3,0,7.7,1.2,15.2,3.6,22.3,.6,1.8,1.3,3.5,1.9,5.2,.8,1.7,1.5,3.4,2.4,5,1.7,3.2,3.6,6.4,5.8,9.3,8.5,11.7,20.4,20.1,32.8,24.6,3.1,1.1,6.3,2,9.4,2.7,3.2,.6,6.3,1.1,9.5,1.3,6.3,.5,12.4,0,18.2-1,5.8-1,11.3-2.9,16.3-5.1,5-2.3,9.5-5,13.5-8.1,8-6.1,13.9-13.3,18-20.1,2.1-3.4,3.7-6.8,4.9-10,1.3-3.2,2.2-6.2,2.9-8.9,1.4-5.5,1.8-9.8,2-12.8,.1-1.5,.1-2.6,.2-3.4,0-.8,0-1.1,0-1.1,0,0,0,1.6-.1,4.5-.1,3-.6,7.3-1.9,12.8-.7,2.7-1.6,5.8-2.9,8.9-1.3,3.2-2.8,6.6-4.9,10-4.1,6.9-10,14.1-18,20.2-4,3.1-8.5,5.9-13.6,8.1-5,2.3-10.5,4.1-16.3,5.2-5.8,1.1-12,1.5-18.3,1-3.2-.2-6.3-.7-9.5-1.3-3.2-.7-6.4-1.6-9.5-2.7-12.6-4.5-24.5-13-33.1-24.8-2.2-2.9-4.1-6.1-5.8-9.3-.9-1.6-1.6-3.3-2.4-5-.7-1.7-1.4-3.5-2-5.3-2.4-7.1-3.6-14.8-3.6-22.5,0-7.7,1.2-15.3,3.6-22.5,1.2-3.6,2.6-7,4.4-10.3,1.7-3.3,3.6-6.4,5.8-9.3,8.6-11.8,20.5-20.3,33.1-24.8,3.2-1.1,6.3-2,9.5-2.7,3.2-.6,6.4-1.1,9.5-1.3,6.3-.5,12.5,0,18.3,1,5.8,1.1,11.3,2.9,16.3,5.2,5,2.3,9.6,5.1,13.6,8.1,8,6.2,13.9,13.4,18,20.2,2.1,3.4,3.6,6.8,4.9,10,1.3,3.2,2.2,6.2,2.9,8.9,1.3,5.5,1.8,9.9,1.9,12.8,.1,3,.1,4.5,.1,4.5Z"/>
    </g>
    <g>
      <g>
        <rect class="cls-6" x="204.8" y="308.5" width="112.4" height="16.5"/>
        <rect class="cls-14" x="204.8" y="308.5" width="112.4" height="16.5"/>
      </g>
      <g>
        <path class="cls-15" d="M209.1,324.7c0,6,4.7,10.9,10.7,11,6,0,10.9-4.7,11-10.7,0-6-4.7-10.9-10.7-11-6,0-10.9,4.7-11,10.7Z"/>
        <path class="cls-15" d="M209.1,324.7s0,0,0,0c0,6,4.7,10.9,10.7,11,6,0,10.9-4.7,11-10.7,0,0,0,0,0,0l-21.7-.3Z"/>
        <path class="cls-5" d="M212.3,324.7c0,4.2,3.3,7.7,7.5,7.7,4.2,0,7.7-3.3,7.7-7.5,0-4.2-3.3-7.7-7.5-7.7-4.2,0-7.7,3.3-7.7,7.5Z"/>
        <path class="cls-15" d="M215.3,324.8c0,2.6,2,4.7,4.6,4.7,2.6,0,4.7-2,4.7-4.6,0-2.6-2-4.7-4.6-4.7-2.6,0-4.7,2-4.7,4.6Z"/>
      </g>
      <g>
        <path class="cls-15" d="M292,324.7c0,6,4.7,10.9,10.7,11,6,0,10.9-4.7,11-10.7,0-6-4.7-10.9-10.7-11-6,0-10.9,4.7-11,10.7Z"/>
        <path class="cls-15" d="M292,324.7s0,0,0,0c0,6,4.7,10.9,10.7,11,6,0,10.9-4.7,11-10.7,0,0,0,0,0,0l-21.7-.3Z"/>
        <path class="cls-5" d="M295.2,324.7c0,4.2,3.3,7.7,7.5,7.7,4.2,0,7.7-3.3,7.7-7.5,0-4.2-3.3-7.7-7.5-7.7s-7.7,3.3-7.7,7.5Z"/>
        <path class="cls-15" d="M298.2,324.8c0,2.6,2,4.7,4.6,4.7s4.7-2,4.7-4.6c0-2.6-2-4.7-4.6-4.7s-4.7,2-4.7,4.6Z"/>
      </g>
      <path class="cls-13" d="M234.1,299.2s-16,1.2-21.9,2.5c-4.2,.9-12.2,2.5-12.1,7.6l.6,3.6s-3,1.4-3,4.8-.7,8.9,6.2,9.1c1.1,0,3.3,0,3.3,0,0,0-1.3-14.8,12.3-15.3,13.9-.4,12.9,15.1,12.9,15.1h57.8s-2.4-15.2,12.5-15.2c14.9,0,12.6,15.3,12.6,15.3,0,0,5.5,.5,8-4.1,2.6-4.6,1.9-7.9,1.9-7.9v-2.9c-.1-1-.9-1.8-1.9-1.8h0s1-7.3-.5-8.6c-1.5-1.3-9.9-8.9-9.9-8.9l.4-.3c.7-.4,.6-1.4-.2-1.7-3.2-1.1-9.5-3.3-11-3.8-.2,0-.5-.1-.7-.1-.9,0-3.4-.2-8-.3-5.6,0-27.8,0-27.8,0,0,0-7.6,.6-11.9,2.5-4.5,2-20,10.3-20,10.3Z"/>
      <g class="cls-21">
        <path d="M201.8,317.4c-.6-.1-1.5-.1-1.9,.3-.3,.3-.4,.8-.5,1.2,0,.6-.1,1.2,0,1.8,.1,.6,.5,1.1,1,1.4,.5,.3,1.3,.2,1.7-.2,.4-.4,.4-1,.4-1.6,0-.8,0-1.4,0-2.2,0-.1-.1-.3-.2-.4-.2-.2-.3-.3-.5-.3"/>
      </g>
      <path class="cls-5" d="M200.8,312.9c1.7,0,3.3,0,5-.2,.2,0,.4,0,.5-.2,.2-.1,.2-.4,.2-.6,0-.9,0-1.9-.7-2.5-.4-.4-1-.5-1.6-.5-1.4-.1-2.8,0-4.1,.4l.6,3.6Z"/>
      <path class="cls-15" d="M236.6,326.5s0,0,0-.1c0,0,0-.2,0-.4,0-.3,0-.8,0-1.4,0-1.2,0-3-.2-5.3,0-2.3-.1-5.1-.2-8.2,0-.8,0-1.6,0-2.5,0-.4,0-.9,0-1.3,0-.2,0-.4,0-.7,0-.2,0-.4,.1-.7,.2-.9,.5-1.7,.9-2.6,.4-.8,.9-1.7,1.5-2.5h0s0,0,0,0c3.1-1.9,6.5-4.1,10-6.3,.9-.6,1.8-1.1,2.7-1.7,.9-.6,1.9-1.1,2.9-1.6,1-.5,2-.9,3.1-1.2,.5-.2,1.1-.3,1.6-.5,.6-.1,1.1-.3,1.7-.4,2.2-.5,4.3-.7,6.5-.8,2.1,0,4.2,0,6.2,0h0s0,0,0,0c-1,4.3-1.9,8.3-2.7,12h0s0,0,0,0c-.5,.8-.9,1.7-1.2,2.6-.3,.9-.5,1.8-.4,2.7,0,.9,0,1.8,.1,2.6,0,.8,0,1.7,0,2.5,0,3.2,0,6,0,8.2,0,2.3,0,4.1,0,5.3,0,.6,0,1.1,0,1.4,0,.2,0,.3,0,.4,0,0,0,.1,0,.1,0,0,0,0,0-.1,0,0,0-.2,0-.4,0-.3,0-.8,0-1.4,0-1.2,0-3,0-5.3,0-2.3,0-5.1,0-8.2,0-.8,0-1.6,0-2.5,0-.8,0-1.7-.1-2.6,0-.9,.1-1.8,.4-2.7,.3-.9,.7-1.8,1.2-2.6h0c.8-3.7,1.7-7.7,2.7-12h0c-2,0-4.1,0-6.2,0-2.1,0-4.3,.3-6.4,.8-.6,.1-1.1,.3-1.7,.4-.5,.2-1.1,.3-1.6,.5-1.1,.4-2.1,.8-3.1,1.2-1,.5-2,1-2.8,1.6-.9,.6-1.8,1.1-2.7,1.7-3.6,2.2-6.9,4.4-10,6.3h0c-.6,.8-1.1,1.6-1.5,2.4-.4,.8-.7,1.7-.9,2.6-.5,1.7-.2,3.4-.2,5,0,3.2,.1,6,.2,8.2,0,2.3,0,4.1,.1,5.3,0,.6,0,1.1,0,1.4,0,.2,0,.3,0,.4,0,0,0,.1,0,.1Z"/>
      <path class="cls-15" d="M266.6,306.6s0,0,.2,0c.1,0,.3,0,.4-.2,.2-.1,.3-.3,.4-.6,0-.1,0-.3,0-.4,0-.2,0-.3-.1-.5-.2-.3-.5-.6-.9-.6-.4,0-.9,0-1.4,0-1,0-2,0-3.1,0-.3,0-.5,.1-.7,.3-.2,.2-.3,.4-.3,.7,0,.3,0,.5,.1,.7,.1,.2,.3,.4,.5,.5,.2,0,.4,0,.7,0,.2,0,.4,0,.7,0,.4,0,.8,0,1.2,0,.7,0,1.3,0,1.7,0,.2,0,.4,0,.5,0,.1,0,.2,0,.2,0s0,0-.2,0c-.1,0-.3,0-.5,0-.4,0-1,0-1.7,0-.4,0-.8,0-1.2,0-.2,0-.4,0-.7,0-.1,0-.2,0-.4,0-.1,0-.2,0-.4,0-.2,0-.4-.3-.6-.5-.1-.2-.2-.5-.1-.8,0-.3,.2-.5,.4-.7,.2-.2,.5-.3,.8-.3,1.1,0,2.2,0,3.1,0,.5,0,.9,0,1.4,0,.5,0,.8,.3,1,.6,0,.2,.1,.3,.1,.5,0,.2,0,.3,0,.5-.1,.3-.3,.5-.5,.6-.2,.1-.3,.1-.4,.2-.1,0-.2,0-.2,0Z"/>
      <path class="cls-15" d="M296.5,306.6s0,0,.2,0c.1,0,.3,0,.4-.2,.2-.1,.3-.3,.4-.6,0-.1,0-.3,0-.4,0-.2,0-.3-.1-.5-.2-.3-.5-.6-.9-.6-.4,0-.9,0-1.4,0-1,0-2,0-3.1,0-.3,0-.5,.1-.7,.3-.2,.2-.3,.4-.3,.7,0,.3,0,.5,.1,.7,.1,.2,.3,.4,.5,.5,.2,0,.4,0,.7,0,.2,0,.4,0,.7,0,.4,0,.8,0,1.2,0,.7,0,1.3,0,1.7,0,.2,0,.4,0,.5,0,.1,0,.2,0,.2,0s0,0-.2,0c-.1,0-.3,0-.5,0-.4,0-1,0-1.7,0-.4,0-.8,0-1.2,0-.2,0-.4,0-.7,0-.1,0-.2,0-.4,0-.1,0-.2,0-.4,0-.2,0-.4-.3-.6-.5-.1-.2-.2-.5-.1-.8,0-.3,.2-.5,.4-.7,.2-.2,.5-.3,.8-.3,1.1,0,2.2,0,3.1,0,.5,0,.9,0,1.4,0,.5,0,.8,.3,1,.6,0,.2,.1,.3,.1,.5,0,.2,0,.3,0,.5,0,.3-.3,.5-.5,.6-.2,.1-.3,.1-.4,.2-.1,0-.2,0-.2,0Z"/>
      <path class="cls-5" d="M322.8,301.7h-6c-.8,0-1.6,.5-2,1.2h0c-.3,.6-.3,1.3,0,1.9l2.4,5.3h6c0,0,1.3-6.8-.3-8.4Z"/>
      <path class="cls-15" d="M239.5,301l30.9-.6,20.1-.4,6.6-3.8c.5-.3,.7-1,.3-1.5l-4.1-5.4c-.4-.6-1.1-.9-1.8-.9l-22.5-.2s-8.5-.5-15.2,3.2c-7,3.9-14.4,9.6-14.4,9.6Z"/>
      <path class="cls-14" d="M253.7,288.7s1.6,.7,.5,1.4c-1,.7-16.7,10.5-16.7,10.5l-3.6-1.6c6.4-3.6,12.8-7,19.8-10.3Z"/>
      <path class="cls-14" d="M313,292.3s-1.4,1.5-.8,2.7c.5,1.1,6.2,5.1,6.2,5.1l4.1,.8-9.4-8.6Z"/>
      <polygon class="cls-14" points="274.3 289.5 273.4 299.4 289.7 298.9 296.4 295.1 292.1 289.5 274.3 289.5"/>
      <path class="cls-14" d="M243.4,299.9s9.9-7.1,13.8-8.6c3.8-1.4,5.7-1.7,9.3-1.8,3.4,0,5.4,0,5.4,0l-2.6,10.1-25.9,.3Z"/>
      <g>
        <path class="cls-13" d="M242,299.9h0c0-.6,.3-1.2,.9-1.5l2.3-1.3c.6-.4,1.4-.6,2.1-.6h0c.5,0,.9,0,1.3,.2,1,.3,1.6,1.2,1.7,2.3h0c0,1.4-1.1,2.6-2.5,2.6h-4c-1,0-1.7-.8-1.7-1.7Z"/>
        <path class="cls-13" d="M242,299.9s0,0,0,.2c0,.1,0,.4,.2,.6,.1,.2,.4,.5,.7,.7,.2,0,.4,.2,.6,.2,.2,0,.5,0,.7,0,1,0,2.2,0,3.5,0,.3,0,.7,0,1-.2,.3-.1,.6-.3,.9-.5,.2-.2,.5-.5,.6-.9,.1-.3,.2-.7,.2-1.1,0-.7-.5-1.4-1-1.8-.3-.2-.6-.3-.9-.4-.3,0-.7-.1-1-.1-.6,0-1.3,.1-1.8,.4-.3,.1-.5,.3-.7,.4-.2,.1-.5,.3-.7,.4-.4,.2-.8,.5-1.2,.6-.3,.2-.6,.4-.7,.7-.1,.2-.2,.5-.2,.6,0,.1,0,.2,0,.2,0,0,0,0,0-.2,0-.1,0-.4,.2-.6,.1-.2,.4-.5,.7-.7,.3-.2,.7-.4,1.2-.7,.2-.1,.4-.2,.7-.4,.2-.1,.5-.3,.7-.4,.5-.2,1.2-.4,1.8-.4,.3,0,.7,0,1,.1,.3,0,.7,.2,1,.4,.6,.4,1,1.1,1.1,1.9,0,.4,0,.8-.2,1.1-.1,.4-.3,.7-.6,.9-.3,.3-.6,.4-.9,.6-.3,.1-.7,.2-1,.2-1.3,0-2.5,0-3.5,0-.2,0-.5,0-.7,0-.2,0-.4-.1-.6-.2-.3-.2-.6-.5-.7-.7-.1-.2-.2-.5-.2-.6,0-.1,0-.2,0-.2Z"/>
      </g>
      <path class="cls-4" d="M266.2,304s-.8,0-1.8,0-1.8,0-1.8,0,.8,0,1.8,0,1.8,0,1.8,0Z"/>
      <path class="cls-4" d="M296,303.8s-1.2,0-2.7,0c-1.5,0-2.7,0-2.7,0s1.2,0,2.7,0c1.5,0,2.7,0,2.7,0Z"/>
    </g>
  </g>
  <line class="cls-22" x1="317.1" y1="181.9" x2="452.7" y2="210.9"/>
  <line class="cls-22" x1="426.1" y1="161.6" x2="455.7" y2="181.9"/>
  <line class="cls-22" x1="334.8" y1="271.3" x2="459.3" y2="235.8"/>
  <line class="cls-22" x1="456.1" y1="314" x2="482.3" y2="257.8"/>
</svg>