<svg id="Layer_1" data-name="Layer 1" xmlns="http://www.w3.org/2000/svg" viewBox="0 0 671.91 557.8">
  <g>
    <rect x="123.903" y="342.56" width="6.196" height="112.336" fill="#dee8f5"></rect>
    <circle cx="123.529" cy="230.611" r="36.143" fill="#8ddbe0"></circle>
    <circle cx="144.637" cy="335.278" r="32.276" fill="#8ddbe0"></circle>
    <circle cx="106.171" cy="335.278" r="34.459" fill="#8ddbe0"></circle>
    <circle cx="149.116" cy="266.754" r="28.968" fill="#8ddbe0"></circle>
    <circle cx="127.001" cy="284.156" r="28.968" fill="#8ddbe0"></circle>
    <circle cx="161.508" cy="295.722" r="28.968" fill="#8ddbe0"></circle>
    <circle cx="91.179" cy="265.723" r="28.968" fill="#8ddbe0"></circle>
    <circle cx="91.179" cy="301.665" r="28.968" fill="#8ddbe0"></circle>
  </g>
  <path d="M233.973,454.9H106.705c-9.336-7.451-9.979-24.237-.3-31.733,7.459-5.777,18.734-4.232,25.744,1.777a24.863,24.863,0,0,1-.075-13.713c2.28-8.084,7.347-16.292,15.084-19.56,19.743-8.331,33.774,9.124,36.583,18.883,5.054-7.433,16.363-11.362,23.46-6.358,8.991,6.337,8.584,16.33,1.412,23.5,9.556-1.782,16.753-.407,23.381,6.707C237.037,439.817,237.81,449.045,233.973,454.9Z" fill="#8ddbe0"></path>
  <g>
    <rect id="housebhk_1" x="246.991" y="152.988" width="398.832" height="236.96" fill="#f3f5fd"></rect>
    <rect id="housebhk_1-2" data-name="housebhk_1" x="305.903" y="187.95" width="131.349" height="133.841" fill="#dee8f5"></rect>
    <rect id="housebhk_1-3" data-name="housebhk_1" x="305.903" y="187.95" width="131.349" height="133.841" fill="none" stroke="#fafafa" stroke-miterlimit="10" stroke-width="3.4"></rect>
    <line id="housebhk_1-4" data-name="housebhk_1" x1="371.577" y1="189.196" x2="371.577" y2="320.545" fill="none" stroke="#fafafa" stroke-miterlimit="10" stroke-width="3.827"></line>
    <line id="housebhk_1-5" data-name="housebhk_1" x1="437.251" y1="254.871" x2="305.903" y2="254.871" fill="none" stroke="#fafafa" stroke-miterlimit="10" stroke-width="3.827"></line>
    <path id="housebhk_1-6" data-name="housebhk_1" d="M495.635,187.95V389.48H608.028V187.95ZM596.989,378.44H501.164V198.989h95.825Z" fill="#fafafa"></path>
    <g id="housebhk_1-7" data-name="housebhk_1">
      <rect id="housebhk_1-8" data-name="housebhk_1" x="499.078" y="191.749" width="105.16" height="193.938" transform="translate(1103.316 577.437) rotate(-180)" fill="#dee8f5"></rect>
      <rect id="housebhk_1-9" data-name="housebhk_1" x="506.351" y="279.91" width="5.664" height="24.256" rx="2.832" transform="translate(1018.366 584.075) rotate(180)" fill="#fafafa"></rect>
    </g>
    <polyline id="housebhk_1-10" data-name="housebhk_1" points="235.754 159.302 446.49 8.05 656.313 158.675" fill="#f3f5fd"></polyline>
    <path id="housebhk_1-11" data-name="housebhk_1" d="M671.91,161.437v14.982a1.724,1.724,0,0,1-2.73,1.4L446.488,17.958l-223.6,160.484a1.725,1.725,0,0,1-2.731-1.4V162.058a2.873,2.873,0,0,1,1.2-2.335L441.8,1.509a8.057,8.057,0,0,1,9.389,0L670.712,159.1A2.875,2.875,0,0,1,671.91,161.437Z" fill="#9ebcea"></path>
    <rect id="housebhk_1-12" data-name="housebhk_1" x="220.158" y="389.948" width="451.752" height="64.949" rx="2.019" fill="#9ebcea"></rect>
    <g id="housebhk_1-13" data-name="housebhk_1">
      <rect id="housebhk_1-14" data-name="housebhk_1" x="465.754" y="411.598" width="172.731" height="21.65" fill="#dee8f5"></rect>
      <rect id="housebhk_1-15" data-name="housebhk_1" x="465.754" y="411.598" width="172.731" height="21.65" fill="#fafafa" opacity="0.39"></rect>
      <rect id="housebhk_1-16" data-name="housebhk_1" x="480.89" y="389.948" width="142.459" height="21.65" fill="#dee8f5"></rect>
      <rect id="housebhk_1-17" data-name="housebhk_1" x="451.859" y="433.247" width="201.096" height="21.65" fill="#dee8f5"></rect>
    </g>
  </g>
  <g>
    <g>
      <path d="M341.635,547.015l20.789-2.473c-.936-7.868-1.991-17.319-2.065-18.869,0,.1,0,.181,0,.244H339.428C339.428,526.545,339.428,528.454,341.635,547.015Z" fill="#E98862"></path>
      <path d="M425.051,549.517l20.935-.068s-.07-21.618-.07-23.532H424.981C424.981,527.837,425.051,549.517,425.051,549.517Z" fill="#E98862"></path>
      <path d="M370.792,540.4l-36.88-.628c1.533-38.842,1.793-83.269,2.206-123.47a233.323,233.323,0,0,1,2.253-29.78c5.934-42.59,9.8-84.94,17.793-127.282l.266.079.78-5.313,75.84-4.681L437,298.879s9.879,171.414,14.384,240.336l-36.755,3.106c-6.622-67.575-16.87-166.039-23.173-237.028C384.215,339.855,379.3,375.641,373,409.907,371.738,452.8,370.675,497.639,370.792,540.4Z" fill="#262626"></path>
      <path d="M399.6,557.614a4.1,4.1,0,0,1-4.064-4.413h0a4.094,4.094,0,0,1,2.651-3.518l24.366-8.162a3.453,3.453,0,0,1,2.864.319,19.051,19.051,0,0,0,11.432,3.39,16.974,16.974,0,0,0,8.793-3.212,1.542,1.542,0,0,1,2.52,1.2v11.915a2.67,2.67,0,0,1-2.681,2.669Z" fill="#c1d8ed"></path>
      <path d="M316.129,557.614a4.1,4.1,0,0,1-4.064-4.413h0a4.1,4.1,0,0,1,2.65-3.518l24.367-8.162a3.451,3.451,0,0,1,2.863.319,19.055,19.055,0,0,0,11.433,3.39,16.977,16.977,0,0,0,8.793-3.212,1.541,1.541,0,0,1,2.519,1.2v11.915a2.67,2.67,0,0,1-2.68,2.669Z" fill="#c1d8ed"></path>
    </g>
    <g>
      <g>
        <path d="M410.92,144.924s-7.909-4.193-6.143-25.731l-16.342-3.031S390.271,135.473,382,141.6Z" fill="#E98862"></path>
        <g opacity="0.2">
          <path d="M385.353,137.567l13.576-10.386-10.663-.111A29.423,29.423,0,0,1,385.353,137.567Z"></path>
        </g>
        <path d="M414.049,110.841c-1.131,6.534-4.7,12.722-10.461,14.833a41.419,41.419,0,0,1-19.8,2.675c-17.89-1.466-14.351-42.144-5.858-50.045s33.421-2.9,36.453,10.318C415.951,95.457,415.126,104.621,414.049,110.841Z" fill="#E98862"></path>
        <g>
          <circle cx="388.458" cy="104.325" r="1.482" fill="#0f1011"></circle>
          <circle cx="376.765" cy="103.366" r="1.482" fill="#0f1011"></circle>
          <path d="M374.2,100.208h.009l3.926-.049a.7.7,0,0,0-.009-1.393h-.009l-3.926.049a.7.7,0,0,0,.009,1.393Z" fill="#0f1011"></path>
          <path d="M391.658,101.64a.7.7,0,0,0,.162-1.374l-3.871-.931a.7.7,0,0,0-.327,1.354l3.872.931A.663.663,0,0,0,391.658,101.64Z" fill="#0f1011"></path>
        </g>
        <path d="M403.819,124.893c.339,1.087.577,1.561,1.555.979,3.843-2.283,11.466-7.25,14.412-25.86,2.64-16.676-7.647-23.553-15.85-26.007-7.072-2.116-21.794-.621-29.739,3.7-5.893,3.2-1.581,11.8-1.581,11.8,2.95.136,2.3-7.693,9.263-7.693,5.38,0,10.12,7.961,15.157,8.172,4.611.194,5.558,3.005,5.395,4.8C401.439,105.715,402.618,121.052,403.819,124.893Z" fill="#0f1011"></path>
        <path d="M396.169,107.952a6.283,6.283,0,1,0,12.524,1.027,6.179,6.179,0,0,0-5.749-6.776C398.466,102.057,396.452,104.493,396.169,107.952Z" fill="#E98862"></path>
        <g opacity="0.2">
          <path d="M381.879,112.546a.512.512,0,0,0,.151-1l-3.015-.925,2.109-4.7a.512.512,0,0,0-.933-.42l-2.346,5.224a.511.511,0,0,0,.316.7l3.568,1.095A.493.493,0,0,0,381.879,112.546Z"></path>
        </g>
        <path d="M387.773,116s-5.471.577-9.306-.763c0,0,.03,3.6,4.36,3.958S387.773,116,387.773,116Z" fill="#fff"></path>
      </g>
      <path d="M373.707,78.257c-5.3,3.552-4.259,10.356-3.264,16.26h6.565l2.753-9.556,3.359,9.556,25.594.885L405.628,82.71Z" fill="#0f1011"></path>
      <circle cx="421.839" cy="116.162" r="14.326" fill="#0f1011"></circle>
    </g>
    <g>
      <path d="M350.892,258.8c4.285,9.85,86.249,13.942,87.374-3.386.717-11.026-8.291-21.326-8.291-42.816s16.126-43.074.015-59.185c-4.674-4.674-7.559-12.878-17.4-12.888-.737,5.738-35.576,5.759-35.842.133-1.33.02-2.363.041-3.007.071-33.94,1.463-16.455,40.177-16.128,68.551C358.014,242.479,346.473,248.649,350.892,258.8Z" fill="#fff"></path>
      <path d="M376.664,140.473c.266,5.626,3.325,13.9,12.766,14.525,12.581.828,22.339-8.92,23.076-14.658h-.031C400.088,140.34,383.886,140.36,376.664,140.473Z" fill="#E98862"></path>
      <path d="M356.005,146.914a24.936,24.936,0,0,1,15.242-6.412s10.246-.051,10.222-.106c.8,1.851-.368,38.521-1.391,58.651-1.118,21.791.031,49-1.008,64.646a7.441,7.441,0,0,1-8.546,6.855c-11.017-1.686-19.607-4.557-20.86-7.436-4.418-10.147,5.779-20.725,5.38-53.928,0-.192-.008-.386-.011-.579l-.072.4c-.1-8.936-1.619-18.919-2.677-28.449" fill="#367CFF"></path>
      <g>
        <path d="M244.534,200.41s7.861,4.047,16.339,4.047l2.739-13.565s-8.054-7.272-10.956-6.522c-2.4.62-.718,2.935,1.435,5.087" fill="#E98862"></path>
        <path d="M244.534,200.41s7.861,4.047,16.339,4.047l2.739-13.565s-8.054-7.272-10.956-6.522c-2.4.62-.718,2.935,1.435,5.087" fill="#E98862"></path>
        <path d="M244.534,200.41s7.861,4.047,16.339,4.047l2.739-13.565s-8.054-7.272-10.956-6.522c-2.4.62-.718,2.935,1.435,5.087" opacity="0.15"></path>
        <g>
          <rect x="237.345" y="202.284" width="11.641" height="19.011" rx="2.703" transform="translate(161.763 -100.233) rotate(34.323)" fill="#0cbc8b"></rect>
          <g>
            <path d="M253.712,204.89l-6.27-1.76a2.827,2.827,0,0,0-3.48,1.96l-.72,2.56a2.825,2.825,0,0,0,1.96,3.49l1.57.44,3.12.88,1.57.44a2.833,2.833,0,0,0,3.49-1.96l.72-2.57A2.827,2.827,0,0,0,253.712,204.89Zm-.65,2.1a.952.952,0,0,1-.93.7,1.068,1.068,0,0,1-.25-.03l-4.32-1.21a.958.958,0,0,1,.26-1.88,1.068,1.068,0,0,1,.25.03l4.33,1.22A.941.941,0,0,1,253.062,206.99Z" fill="#1f2a37"></path>
            <path d="M248.8,217.591l.964-3.442-.327-.092,1.571-5.608-3.116-.873-4.456,15.906a1.617,1.617,0,0,0,1.121,1.994h0a1.618,1.618,0,0,0,1.994-1.121l.574-2.047.327.092.808-2.884-.327-.092.539-1.925Z" fill="#1f2a37"></path>
          </g>
          <ellipse cx="251.121" cy="200.136" rx="5.853" ry="4.141" transform="translate(-8.455 389.178) rotate(-74.619)" fill="none" stroke="#1f2a37" stroke-miterlimit="10"></ellipse>
        </g>
        <path d="M324.135,222.783a10.512,10.512,0,0,1-2.43-.285l-64.174-15.261,4.859-20.43,57.131,13.586,36.59-53.823,17.367,11.807-40.66,59.809A10.5,10.5,0,0,1,324.135,222.783Z" fill="#367CFF"></path>
        <path d="M256.012,191.2a3.518,3.518,0,0,0-2.748-4.213c-2.473-.512-6.094-.913-7.652.645-2.478,2.478-4.145,10.258-2.478,11.926s9.258,4.036,10.468.253C254.4,197.318,255.439,193.62,256.012,191.2Z" fill="#E98862"></path>
      </g>
      <path d="M431.515,213.265c0,21.491,9.717,31.116,9,42.143-.442,6.887-3.962,15.6-30.507,17.466a8.4,8.4,0,0,1-8.934-7.361c-5.089-42.3,4.17-98.638,6.772-117.639,1.532-8.108,1.893-7.614,5.738-7.617,9.84.01,16.917,3.289,21.591,7.963C451.286,164.331,431.515,191.785,431.515,213.265Z" fill="#367CFF"></path>
      <path d="M419.478,246.592l.684,5.072-5.571.752a3.333,3.333,0,0,0-2.858,3.749l4.01,29.728a3.335,3.335,0,0,0,3.75,2.858l5.571-.752.684,5.072a3.333,3.333,0,0,0,3.749,2.858l63.516-8.568a3.333,3.333,0,0,0,2.857-3.749L489.6,237.133a3.333,3.333,0,0,0-3.749-2.857l-63.516,8.567A3.333,3.333,0,0,0,419.478,246.592Z" fill="#c1d8ed"></path>
      <path d="M464.822,274.586,450.576,272.9l-.279,5.593c0,3.049-1.788,11.61.8,12.339.984.276,2.258-1.044,2.929-3.242a9.122,9.122,0,0,1,1.14,4.689c-.313,3.68,12.722,2.094,12.715-1.528A51.435,51.435,0,0,0,464.822,274.586Z" fill="#E98862"></path>
      <path d="M445.821,282.008l22.061-3.273-9.34-62.955a11.173,11.173,0,0,0-.388-1.694l-18.7-59.775-21.285,6.661,18.445,58.943Z" fill="#367CFF"></path>
      <g>
        <path d="M416.651,164.553l-2.537-8.316,4.889-3.2-2.774-12.711c-3.639-.189-6.392-.176-7.446-.135-2.414,8.07-6.231,43.829-7.172,57.361Z" fill="#367CFF"></path>
        <g opacity="0.24">
          <path d="M416.651,164.553l-2.537-8.316,4.889-3.2-2.774-12.711c-3.639-.189-6.392-.176-7.446-.135-2.414,8.07-6.231,43.829-7.172,57.361Z" fill="#fff"></path>
        </g>
        <path d="M374.3,156.237,369.5,163.53l10.687,33.534s2.454-47.245,1.466-56.718c0,0-2.571.057-4.247.033-2.1-.029-3.987.027-3.987.027l-4,12.63Z" fill="#367CFF"></path>
        <g opacity="0.24">
          <path d="M374.3,156.237,369.5,163.53l10.687,33.534s2.454-47.245,1.466-56.718c0,0-2.571.057-4.247.033-2.1-.029-3.987.027-3.987.027l-4,12.63Z" fill="#fff"></path>
        </g>
      </g>
    </g>
  </g>
  <g>
    <g>
      <path d="M60.568,128.976c.01-.28.01-.55.01-.84.01-1.82-.07-3.8-.25-5.96l2.1-.39,13.88-2.57a57.53,57.53,0,0,0,.16,10.66c.05.4.1.81.16,1.22.04.32.09.65.15.97s.1.63.17.94c.12.66.26,1.32.43,1.97a3.9,3.9,0,0,0,.12.46.235.235,0,0,0,.02.08c.08.33.18.67.29.99.11.37.23.73.37,1.09.04.11.08.23.13.34.13.36.28.71.44,1.05.17.39.36.77.56,1.14a.01.01,0,0,1,.01.01,11.658,11.658,0,0,0,3.11,3.81H57.3C58.848,141.266,60.448,136.656,60.568,128.976Z" fill="#E98862"></path>
      <path d="M79.321,140.14,66.049,129.986l10.424-.107A28.736,28.736,0,0,0,79.321,140.14Z" opacity="0.15"></path>
      <path d="M51.266,114.012c1.106,6.389,4.592,12.438,10.228,14.5,6.689,2.449,11.644,2.615,19.357,2.615,10.525,0,10.177-10.976,10.473-22.038.3-11.106-.586-23.018-4.746-26.888-8.3-7.725-32.673-2.833-35.638,10.087C49.407,98.972,50.213,107.931,51.266,114.012Z" fill="#E98862"></path>
      <path d="M97.827,82.079c-1.761-6.456-7.248-9.611-16.323-7.239-6.454,1.687-7.271.171-12.736-2.46-3.131-1.507-13.4-.819-15.941,6.132C50.1,85.957,41.675,79.927,40.892,92.058,40.237,102.211,42.2,115.4,53.483,124.27h0a27.219,27.219,0,0,0,6.073,4.6c.957.568,1.189.1,1.521-.957,1.173-3.756,3.548-16.887,2.578-27.573-.16-1.758.168-4.491,4.676-4.68,4.925-.208,17.722.9,22.25-2.346C90.581,93.309,99.588,88.536,97.827,82.079Z" fill="#0f1011"></path>
      <g>
        <circle cx="76.285" cy="107.642" r="1.449" fill="#0f1011"></circle>
        <circle cx="87.716" cy="106.705" r="1.449" fill="#0f1011"></circle>
        <path d="M90.227,103.617h-.009l-3.839-.048a.681.681,0,0,1,.009-1.361H86.4l3.839.048a.681.681,0,0,1-.009,1.361Z" fill="#0f1011"></path>
        <path d="M73.157,105.017A.681.681,0,0,1,73,103.674l3.784-.911a.681.681,0,0,1,.318,1.324L73.317,105A.685.685,0,0,1,73.157,105.017Z" fill="#0f1011"></path>
      </g>
      <path d="M68.747,111.188a6.143,6.143,0,1,1-12.244,1,6.04,6.04,0,0,1,5.62-6.624C66.5,105.425,68.47,107.807,68.747,111.188Z" fill="#E98862"></path>
      <g opacity="0.15">
        <path d="M82.717,115.679a.5.5,0,0,1-.147-.978l2.947-.9-2.062-4.59a.5.5,0,0,1,.913-.41l2.293,5.107a.5.5,0,0,1-.309.683l-3.488,1.071A.509.509,0,0,1,82.717,115.679Z"></path>
      </g>
      <path d="M76.955,119.054s5.349.564,9.1-.746c0,0-.03,3.523-4.262,3.87S76.955,119.054,76.955,119.054Z" fill="#f8fcff"></path>
    </g>
    <g>
      <path d="M120.273,546.981,99.419,544.5c.939-7.893,2-17.373,2.072-18.928,0,.1,0,.182,0,.245h21C122.487,526.448,122.487,528.363,120.273,546.981Z" fill="#E98862"></path>
      <path d="M36.6,549.491l-21-.068s.07-21.685.07-23.605h21C36.667,527.744,36.6,549.491,36.6,549.491Z" fill="#E98862"></path>
      <path d="M91.025,540.35l37-.63c-1.738-44.032-1.844-90.219-2.386-134.357-7.221-47.574-10.023-103.919-18.935-151.152H27.2S14.7,470.02,10.185,539.158l36.868,3.115C53.7,474.487,64.976,384.717,71.3,313.506c7.261,34.67,11.2,61.568,17.514,95.94C90.076,452.472,91.144,497.452,91.025,540.35Z" fill="#262626"></path>
      <path d="M62.126,557.613a4.108,4.108,0,0,0,4.076-4.427h0a4.109,4.109,0,0,0-2.659-3.529L39.1,541.471a3.459,3.459,0,0,0-2.873.319,19.108,19.108,0,0,1-11.467,3.4,17.035,17.035,0,0,1-8.821-3.222,1.546,1.546,0,0,0-2.527,1.2v11.952A2.677,2.677,0,0,0,16.1,557.8Z" fill="#c1d8ed"></path>
      <path d="M145.859,557.613a4.107,4.107,0,0,0,4.076-4.427h0a4.108,4.108,0,0,0-2.658-3.529l-24.443-8.186a3.457,3.457,0,0,0-2.872.319,19.112,19.112,0,0,1-11.468,3.4,17.031,17.031,0,0,1-8.82-3.222,1.547,1.547,0,0,0-2.528,1.2v11.952a2.678,2.678,0,0,0,2.689,2.678Z" fill="#c1d8ed"></path>
    </g>
    <g>
      <path d="M193,214.025l-.457-.22c2.958-.362,12.655-3.137,13.67-.711.385.922-2.345,2.335-4.4,3.248,4.514,1.981,14.714,1.678,20.441,1.316a1.887,1.887,0,0,1,1.481,3.189c-10.323,10.762-31.293,5.007-31.293,5.007l-5.292-1.112Z" fill="#E98862"></path>
      <path d="M17.693,284.419l.219-.457c.363,2.958,3.137,12.655.712,13.669-.922.386-2.336-2.344-3.249-4.4-1.981,4.513-1.678,14.714-1.315,20.441a1.888,1.888,0,0,1-3.19,1.48C.108,304.833,5.863,283.863,5.863,283.863l1.113-5.292Z" fill="#E98862"></path>
      <path d="M110.719,256.41c-4.19,9.63-82.415,14.741-83.515-2.2-.7-10.78,4.7-21.3,4.7-42.311s-17.493-47.573-1.743-63.323c4.571-4.57,11.071-7.339,20.69-7.349.72,5.61,34.347,5.765,34.606.265,1.3.02,2.31.04,2.94.07,33.181,1.43,18.587,38.607,18.267,66.347C106.269,240.37,115.039,246.49,110.719,256.41Z" fill="#f3f5fd"></path>
      <path d="M85.439,140.91c-.26,5.5-4.152,6.45-13.382,7.06-12.3.81-20.938-1.58-21.658-7.19h.03C62.539,140.78,78.379,140.8,85.439,140.91Z" fill="#E98862"></path>
      <path d="M72.824,216.67c1.718,17.377,1,25.236.331,47.361A10.422,10.422,0,0,1,62.742,274.14H34.979a10.423,10.423,0,0,1-10.38-11.3c2.393-28.787,3.193-55.561,4.587-67.3,0,0-.664,19.368-3.012,30.48s-4.615,60.243-4.615,60.243S16.367,287.4,0,287.4c0,0,0-55.129,3.913-71.173s17.55-68.819,29.476-72.956c9.557-3.315,22.9-2.491,22.9-2.491S70.814,196.344,72.824,216.67Z" fill="#367CFF"></path>
      <path d="M81.2,140.78s-8.372,48.5-8.372,75.89c0,9.358-.578,20.061-.148,46.821a10.425,10.425,0,0,0,10.807,10.252l20.523-.768a10.418,10.418,0,0,0,10-11.14c-1.365-19.447-4.175-59-4.835-64.39l16.937,23.8a12.644,12.644,0,0,0,9.09,5.254l59.58,5.334s1.043-10.381,2.724-22.2l-56.724-6.876s-29.719-53.881-39.205-59.045c-4.14-2.255-9.816-2.572-13.2-2.726C84.2,140.791,81.2,140.78,81.2,140.78Z" fill="#367CFF"></path>
      <path d="M73.021,265.388a.249.249,0,0,1-.25-.249l-.2-48.468a.251.251,0,0,1,.249-.251h0a.25.25,0,0,1,.25.249l.2,48.468a.251.251,0,0,1-.249.251Z" fill="#367CFF"></path>
      <g opacity="0.25">
        <path d="M73.021,265.388a.249.249,0,0,1-.25-.249l-.2-48.468a.251.251,0,0,1,.249-.251h0a.25.25,0,0,1,.25.249l.2,48.468a.251.251,0,0,1-.249.251Z" fill="#0f1011"></path>
      </g>
      <g>
        <path d="M56.286,140.78s16.6,34.987,16.6,77.117l-24.362-52.93,5.919-7.435-8.3-5.87,1.56-10.791C50.4,140.324,56.286,140.78,56.286,140.78Z" fill="#367CFF"></path>
        <path d="M81.2,140.78s-10.26,41.331-8.312,77.117l17.92-52.93-5.365-6.653,6.727-5.087L88.379,140.98Z" fill="#367CFF"></path>
      </g>
      <g>
        <path d="M56.286,140.78s16.6,34.987,16.6,77.117l-24.362-52.93,5.919-7.435-8.3-5.87,1.56-10.791C50.4,140.324,56.286,140.78,56.286,140.78Z" fill="#0f1011" opacity="0.25"></path>
        <path d="M81.2,140.78s-10.26,41.331-8.312,77.117l17.92-52.93-5.365-6.653,6.727-5.087L88.379,140.98Z" fill="#0f1011" opacity="0.25"></path>
      </g>
      <g>
        <circle cx="69.668" cy="223.464" r="1.565" fill="#0f1011" opacity="0.25"></circle>
        <circle cx="69.668" cy="236.054" r="1.565" fill="#0f1011" opacity="0.25"></circle>
        <circle cx="69.668" cy="248.644" r="1.565" fill="#0f1011" opacity="0.25"></circle>
      </g>
    </g>
  </g>
</svg>