<?xml version="1.0" encoding="UTF-8"?>
<svg id="Capa_1" data-name="Capa 1" xmlns="http://www.w3.org/2000/svg" viewBox="0 0 800 600">
  <defs>
    <style>
      .cls-1 {
        fill: #f8fcff;
      }

      .cls-2 {
        fill: #e98862;
      }

      .cls-3 {
        fill: #97a6c5;
      }

      .cls-4 {
        fill: #c1d8ed;
      }

      .cls-5 {
        fill: #333;
      }

      .cls-6 {
        fill: #b1bfd8;
      }

      .cls-7 {
        fill: #cad5e9;
      }

      .cls-8 {
        fill: #dee6f8;
      }

      .cls-9, .cls-10 {
        fill: #0c0c0c;
      }

      .cls-11 {
        fill: #0f1011;
      }

      .cls-12 {
        fill: #367cff;
      }

      .cls-13 {
        fill: #0a0a0a;
      }

      .cls-14 {
        fill: #262626;
      }

      .cls-15, .cls-16 {
        opacity: .2;
      }

      .cls-17 {
        opacity: .2;
      }

      .cls-10 {
        opacity: .1;
      }

      .cls-10, .cls-16 {
        isolation: isolate;
      }

      .cls-18 {
        fill: #c1d6fc;
      }

      .cls-18, .cls-19 {
        opacity: .3;
      }

      .cls-19 {
        fill: #fff;
      }
    </style>
  </defs>
  <g>
    <g>
      <path class="cls-2" d="M216.6,585.5l-24.4-2.9c1.1-9.2,2.3-20.3,2.4-22.2v.3h24.6c0,.7,0,3-2.6,24.8Z"/>
      <path class="cls-2" d="M118.7,588.5h-24.6c0,0,0-25.5,0-27.7h24.6c0,2.2,0,27.7,0,27.7Z"/>
      <path class="cls-14" d="M182.4,577.8l43.3-.7c-1.8-45.6-2.1-97.8-2.6-145-4.3-61.9-13.5-123.1-23.5-184.4h-.3c0,0-.9-6.1-.9-6.1l-89-5.5c-6.1,66.9-12.5,202.6-21.5,340.4l43.2,3.6c7.8-79.3,19.8-194.9,27.2-278.3,21.2,90.8,26.1,183.3,24.3,276Z"/>
      <path class="cls-4" d="M148.6,598c5.2,.1,6.6-7.6,1.7-9.3-2-.1-30.8-11.8-32-9.2-15.7,11-25.7-4.7-26.7,1.6v14c0,1.7,1.4,3.1,3.1,3.1h0l53.9-.2Z"/>
      <path class="cls-4" d="M246.6,598c5.2,.1,6.6-7.6,1.7-9.3-2-.1-30.8-11.8-32-9.2-15.7,11-25.7-4.7-26.7,1.6v14c0,1.7,1.4,3.1,3.1,3.1h0l53.9-.2Z"/>
    </g>
    <g>
      <path class="cls-12" d="M242.4,189.3c4.6,0,8.9-2.5,11-6.6l4.4-72.4-17.1-11.8-1.6,57.9-41.9-39.8-15.2,20.2c5.2,3.2,53.8,55.9,60.3,52.6Z"/>
      <path class="cls-12" d="M206,248.1c-5,11.5-100.9,16.3-102.2-4-.8-12.9,4.7-24.1,4.7-49.2-3.3-34.4-29.4-83.2,25.6-84.9,.9,6.7,41.5,6.7,41.8,.2,43.1-1.4,26.3,45.5,25.3,80-.5,38.7,10,46,4.8,57.9Z"/>
      <path class="cls-2" d="M175.8,110.3c-.8,27.5-39.2,16.5-41.8-.2,14.5,0,33.4,0,41.8,.2Z"/>
      <path class="cls-2" d="M264.1,101.3l-8.6,11.3-17-9.1c3-4.6,10.4-10.7,10.4-10.7l15.1,8.5Z"/>
      <path class="cls-2" d="M245,102.6s-4.6-3.2-.9-6.1c4.9-3.8,11.2-7.8,14.1-5.6,1.9,1.4-4.8,6.8-9.8,10.5"/>
    </g>
    <g>
      <path class="cls-2" d="M145.6,94.4c0-.3,0-.6,0-1,0-2.1,0-4.4-.3-7l2.5-.5,16.2-3c-.3,4.2-.3,8.3,.2,12.5,0,.5,.1,.9,.2,1.4,0,.4,.1,.8,.2,1.1s.1,.7,.2,1.1c.1,.8,.3,1.5,.5,2.3,0,.2,0,.4,.1,.5,0,0,0,0,0,0,0,.4,.2,.8,.3,1.2,.1,.4,.3,.9,.4,1.3,0,.1,0,.3,.2,.4,.2,.4,.3,.8,.5,1.2,.2,.5,.4,.9,.7,1.3,0,0,0,0,0,0,.9,1.7,2.1,3.2,3.6,4.5h-29.4c1.8-3.1,3.7-8.5,3.8-17.5Z"/>
      <path class="cls-16" d="M167.5,107.4l-15.5-11.9h12.2c.4,4.1,1.5,8.1,3.3,11.9Z"/>
      <path class="cls-2" d="M134.7,76.8c1.3,7.5,5.4,14.6,12,17,7.8,2.9,13.6,3.1,22.7,3.1s11.9-12.8,12.3-25.8c.4-13-.7-26.9-5.6-31.5-9.7-9-38.2-3.3-41.7,11.8-1.8,7.8-.9,18.3,.4,25.4Z"/>
      <path class="cls-11" d="M189.2,39.5c-2.1-7.6-8.5-11.2-19.1-8.5-7.6,2-8.5,.2-14.9-2.9-3.7-1.8-15.7-1-18.7,7.2-3.2,8.7-13.1,1.7-14,15.9-.8,11.9,1.5,27.3,14.7,37.7h0c2.1,2.1,4.5,3.9,7.1,5.4,1.1,.7,1.4,.1,1.8-1.1,1.4-4.4,4.2-19.8,3-32.3-.2-2.1,.2-5.3,5.5-5.5,5.8-.2,20.7,1.1,26-2.7,0,0,10.5-5.6,8.5-13.1Z"/>
      <g>
        <circle class="cls-11" cx="164" cy="69.4" r="1.7"/>
        <circle class="cls-11" cx="177.4" cy="68.3" r="1.7"/>
        <path class="cls-11" d="M180.3,64.7h-4.5c-.4,0-.8-.4-.8-.9,0-.4,.4-.7,.8-.8h4.5c.4,0,.8,.4,.8,.9s-.4,.8-.8,.8Z"/>
        <path class="cls-11" d="M160.3,66.3c-.4,0-.8-.4-.8-.8,0-.4,.3-.7,.6-.8l4.4-1.1c.4-.1,.9,.2,1,.6,.1,.4-.2,.9-.6,1h0l-4.4,1.1c0,0-.1,0-.2,0Z"/>
      </g>
      <path class="cls-2" d="M155.2,73.5c.4,4-2.5,7.5-6.5,7.8s-7.5-2.5-7.8-6.5c0,0,0-.1,0-.2-.4-3.9,2.5-7.3,6.3-7.7,0,0,.2,0,.2,0,5.1-.2,7.4,2.6,7.8,6.6Z"/>
      <g class="cls-15">
        <path d="M171.5,78.8c-.3,0-.6-.3-.6-.6,0-.3,.2-.5,.4-.6l3.4-1.1-2.4-5.4c-.1-.3,0-.6,.3-.8s.6,0,.8,.3c0,0,0,0,0,0l2.7,6c.1,.3,0,.6-.3,.8,0,0,0,0,0,0l-4.1,1.3c0,0-.1,0-.2,0Z"/>
      </g>
      <path class="cls-1" d="M164.8,82.7s6.3,.7,10.7-.9c0,0,0,4.1-5,4.5s-5.7-3.7-5.7-3.7Z"/>
    </g>
  </g>
  <g>
    <g>
      <path class="cls-12" d="M646.7,568.8s-3,15.6-17.6,16.5c-14.6,.9-11.5,12.5-11.5,12.5h55.9v-27.9l-26.8-1.1Z"/>
      <path class="cls-14" d="M677.3,283.7s-.2-4.7-.1,6c.1,39.8-1.2,289.1-1.2,289.1l-36.7-.3-22.3-296.4,60.3,1.6Z"/>
      <path class="cls-12" d="M583.9,568.8s-3,15.6-17.6,16.5c-14.6,.9-11.5,12.5-11.5,12.5h55.9v-27.9l-26.8-1.1Z"/>
      <path class="cls-14" d="M576.8,286.8s-4.6,135.9-4.1,142.5l4.3,148.5,36.1,.7,5.8-154.5s3.8-42.6,14.1-82.2c5.3-20.3,8.4-41.1,9.5-62.1h0l-65.8,7.1Z"/>
      <path class="cls-13" d="M624.5,383.1l-3-46.1s-3.1,19.2-3.1,35.7,1.7,40,1.7,40l4.4-29.6Z"/>
      <path class="cls-5" d="M677.7,283.7h.1s0-2.3-.1,0Z"/>
    </g>
    <g>
      <path class="cls-5" d="M677.5,283.7h.1s0-2.3-.1,0Z"/>
      <g>
        <path class="cls-2" d="M476.1,173.4c.5-.9,1.4-1.4,2.4-1.3,0,0,0,0,0-.1,0,0,.1,0,.2,0l-1.6-1.2c-1-.7-1.4-2-.8-3.1,.6-1.1,1.9-1.5,3-1.1,0,0,0,0,0,0l-.7-.5c-1-.7-1.3-1.9-.9-3,.5-1.2,1.9-1.7,3.1-1.2,.1,0,.3,.1,.4,.2l1.6,1.1s0,0,0,0,0,0,0,0c-.7-.8-.8-2.1-.2-3,.7-1.2,2.4-.9,3.4-.2l9.2,6.3-1.6-2.8c-.7-1.1-.4-2.5,.7-3.3,1.1-.7,2.6-.4,3.3,.7,0,0,0,0,0,.1l8.9,15.1c2.2,3.7,1,8.4-2.6,10.7h0c-4.1,2.6-9.4,2.5-13.4-.4l-13.8-9.9c-.9-.7-1.3-2-.8-3.1Z"/>
        <g class="cls-17">
          <path class="cls-9" d="M492,169.5c0,0-.2,.1-.3,0l-8.7-6c-.1,0-.1-.2,0-.3,0-.1,.2-.1,.3,0,0,0,0,0,0,0l8.7,6c0,0,.1,.2,0,.3h0Z"/>
        </g>
        <g class="cls-17">
          <path class="cls-9" d="M489.5,173.4c0,0-.2,.1-.3,0l-9.7-6.7c0,0-.1-.2,0-.3,0,0,.2-.1,.3,0l9.7,6.7c0,0,.1,.2,0,.3h0Z"/>
        </g>
        <g class="cls-17">
          <path class="cls-9" d="M486.7,177.6c0,0-.2,.1-.3,0l-7.8-5.4c0,0-.1-.2,0-.3,0,0,.2-.1,.3,0h0l7.8,5.4c0,0,.1,.2,0,.3h0Z"/>
        </g>
      </g>
      <path class="cls-12" d="M512,172.6l26.3,44.8,32.1-42.1,26.6,24-45.5,58.9-.3,.4c-5.9,8.1-17.3,9.9-25.4,4-2.2-1.6-4.1-3.8-5.4-6.2l-37.4-67.7,29-16.1Z"/>
      <path class="cls-9" d="M540.9,222.8c0,0,.1,0,.2,0,.2,0,.2-.3,.1-.4l-2.6-5c0-.2-.3-.2-.4-.2-.2,0-.2,.3-.2,.4,0,0,0,0,0,0l2.6,5c0,.1,.2,.2,.3,.2Z"/>
      <g>
        <g>
          <g>
            <path class="cls-13" d="M656.9,114.8s1.2,15.7,4.8,21.4c10.4,16.3,13.6,34.8,3.5,44.6s-75.3,10.7-80.5-11.5c-4.4-18.7,4.5-20.8,6.5-36.3,.9-7,3.4-21.7,3.4-21.7"/>
            <path id="sk" class="cls-2" d="M601.4,165.8c.1,0,1.4,20.7,25.4,18.9,16.7-1.2,22.6-18.9,23-18.9-1.8-.4-4.8-.9-5.6-1.4-2.6-1.4-5.9-2.9-6.7-8-.5-2.9,.3-18,0-20.9l-25.6,5.7c.4,6.3,2.9,20.8-5.9,23.4-1.5,.4-3,.8-4.7,1.2Z"/>
            <path id="sh" class="cls-9" d="M611.6,158.6c.4-1.3,.7-2.6,.8-4,.3-3.1,.2-6.2-.2-9.2,5.2-.7,10.1-2.8,14.1-6.2,.5,1.8,3.1,9.4,2.4,11.1-1.4,3.2-7.8,8.3-17.1,8.3Z"/>
            <path class="cls-2" d="M615,152.1c10.1,.9,23.1-3.3,25.6-16.8l2.3-12.1c2.5-13.5-2.5-25.7-15.1-28.1h0c-12.7-2.4-24.2,6.7-26.7,20.2l-1,5.4c-1,5.2-3,29.9,15,31.5Z"/>
            <circle class="cls-9" cx="603.6" cy="119.7" r="1.6"/>
            <circle class="cls-9" cx="619.9" cy="121.8" r="1.6"/>
            <path class="cls-9" d="M611,133.5h0c-.5-.1-1-.2-1.5-.4-.7-.2-1.7-.6-1.6-1.3,.1-.8,3.8-8.6,4.2-9.5,0-.2,.3-.2,.4-.2s.2,.3,.2,.4c-1.6,3.4-4.1,8.9-4.2,9.4,0,.2,1.3,.7,2.6,.9,.2,0,.3,.2,.3,.4,0,.2-.2,.3-.4,.3h0Z"/>
            <path class="cls-9" d="M612.9,139.3c-2.1-.3-4-1-5.8-2.2-.2,0-.2-.3,0-.5,0-.2,.3-.2,.5,0h0c3.7,2.4,7.4,2.8,10.7,1.1,0,0,.1,0,.2,0,.2,0,.4,0,.4,.2,0,.2,0,.4-.2,.4h0s0,0-.1,0c-1.7,.9-3.7,1.2-5.6,1Z"/>
            <path class="cls-13" d="M653.1,127.4l-11.4-2.1c-8.6-3.5-11.2-18.4-11.2-18.4,0,0-10.4,10.2-35.8,4.4,0,0,5.1-35.3,42.5-25,12.1,3.3,20.7,15.5,19.6,31.7-.8,11.4-3.8,9.4-3.8,9.4Z"/>
            <path class="cls-2" d="M639.1,139.3c3.9,.7,7.8-2.8,8.5-6.6s-2-6.6-5.8-7.3l-2.5,2.2-3.5,11.1,3.3,.6Z"/>
            <path class="cls-9" d="M609.8,115.8c-1.1-.7-2.4-1.1-3.8-1.2-.7,0-1.3,0-2,.2-.6,.2-1.2,.4-1.8,.7-.2,0-.2,.3-.1,.5,0,.2,.3,.2,.4,.2h0c.5-.3,1.1-.5,1.7-.6,.6-.1,1.2-.2,1.7-.1,1.1,0,2.3,.5,3.2,1.2h0c.2,.2,.5,.1,.7,0,.2-.2,.1-.5-.1-.7h0Z"/>
            <path class="cls-9" d="M619.9,118.2c1.1-.3,2.3-.2,3.4,0,.6,.2,1.1,.4,1.6,.7,.5,.3,.9,.7,1.3,1.1h0c.1,.2,.3,.2,.5,0,.1-.1,.1-.3,0-.5-.4-.5-.9-.9-1.4-1.3-.5-.4-1.1-.7-1.7-.9-1.3-.4-2.6-.5-3.9-.3-.3,0-.5,.3-.4,.6,0,.3,.3,.5,.6,.4h0s0,0,0,0Z"/>
            <path class="cls-9" d="M612.4,142.3c-.4,0-.7-.1-1.1-.2-.2,0-.3-.2-.2-.4,0-.2,.2-.3,.4-.2,0,0,0,0,0,0,2.2,.6,3.4-.2,3.5-.2,.1-.1,.4,0,.5,0,.1,.1,0,.4,0,.5-.9,.5-1.9,.7-2.9,.6Z"/>
            <path class="cls-9" d="M641.7,125.2v-.3c-14.3-5.2-10.8-19.3-10.7-19.4h-.3c0,0-3.6,14.5,11,19.7Z"/>
          </g>
          <ellipse class="cls-10" cx="621.4" cy="132.3" rx="2.2" ry="3" transform="translate(423.5 736) rotate(-83.9)"/>
          <path class="cls-10" d="M603.6,129.8c-.1,1.2-1.6,2.1-3.2,1.9-.3,0-.6,0-.8-.2,0-1.4-.1-2.8,0-4.1,.5-.1,.9-.2,1.4,0,1.7,.2,2.9,1.3,2.8,2.5Z"/>
        </g>
        <path class="cls-12" d="M571.5,211.4c.8,8.9,4.4,64.5,5.2,75.4h100.4c.6-9.9,3.1-53.1,5.3-72.5,2.1-18.5,6.1-27.7,3.1-33.2-4.8-8.9-18-14.1-27-15.3-5.5-.7-13.7-1.3-13.7-1.3,0,0-.7,14.1-17.4,14.9-22.7,1.1-21.2-14.9-21.3-14.9-3.7,0-24.7,2.3-29.8,5.4-14,8.3-6.4,22.5-4.8,41.4Z"/>
        <path id="b_4_b" data-name="b 4 b" class="cls-12" d="M590.3,267.9l90.3,16.3c10.1,1.1,19.1-6.2,20.2-16.2,.2-1.7,.1-3.4-.1-5l-12.6-75.1c-1.7-10-11.1-16.7-21.1-15-10,1.7-16.7,11.1-15,21.1h0l8.6,51.7-66.2-8.3-4,30.6Z"/>
        <g id="b_4_b-2" data-name="b 4 b-2">
          <path class="cls-9" d="M680.5,284.5c.2,0,.3-.2,.3-.3,0-.2-.1-.3-.3-.3l-89.9-16.3,3.9-29.9,65.8,8.3c.2,0,.4-.1,.4-.3,0,0,0,0,0,0l-5.5-33c0-.2-.2-.3-.4-.3,0,0,0,0,0,0-.2,0-.3,.2-.3,.4l5.4,32.6-65.7-8.3c-.2,0-.3,.1-.4,.3l-4,30.6c0,.2,0,.3,.3,.4l90.3,16.3s0,0,0,0Z"/>
        </g>
        <rect class="cls-9" x="662.9" y="243.4" width=".7" height="5.9" transform="translate(315.2 862.2) rotate(-80.9)"/>
      </g>
      <rect class="cls-9" x="572" y="217.2" width=".7" height="14.2" transform="translate(-11.8 32.8) rotate(-3.2)"/>
    </g>
  </g>
  <g>
    <g>
      <path class="cls-6" d="M249.1,32.8V345.4h316.2V32.8H249.1Zm151.2,305.6H255.6V39.8h144.8V338.3Zm157.7,0h-144.8V39.8h144.8V338.3Z"/>
      <path class="cls-7" d="M253.1,32.8V345.4h316.2V32.8H253.1Zm151.2,305.6h-144.8V39.8h144.8V338.3Zm157.7,0h-144.8V39.8h144.8V338.3Z"/>
      <path class="cls-8" d="M247.1,27.3V350.8h327.4V27.3H247.1Zm10.4,313.1V37.7h148.9V340.4h-148.9Zm306.6,0h-148.9V37.7h148.9V340.4Z"/>
      <rect class="cls-6" x="241" y="27.3" width="6.1" height="323.5"/>
      <rect class="cls-3" x="242.7" y="27.3" width="2.6" height="323.5"/>
    </g>
    <g>
      <rect class="cls-18" x="259.6" y="39.8" width="142" height="298.5"/>
      <g>
        <path class="cls-19" d="M259.6,83.2v124.1c40.3-19.2,88.3-33.1,142-35.8V59.4c-51.1,1.8-98.3,6.1-142,23.8Z"/>
        <path class="cls-19" d="M401.6,201.5c-49.6,3-97.7,13.6-142,37.2v99.7h51.2c27.3-14.1,57.7-25.8,90.8-33.4v-103.4Z"/>
      </g>
    </g>
    <g>
      <rect class="cls-18" x="417.3" y="39.8" width="142" height="298.5"/>
      <g>
        <path class="cls-19" d="M417.3,171c1.6,0,3.3,0,4.9,0,57.7,0,102.8-13.7,137.1-31.8V39.8h-53.7c-26.1,10.5-55.8,18-88.4,19.1v112.1Z"/>
        <path class="cls-19" d="M470.5,295.9c31.9-1.1,61.8-6.6,88.8-14.5v-105.3c-33,14.2-74,24.6-123.1,24.5-6.3,0-12.6,0-18.9,.3v100.9c17.1-3.2,34.9-5.2,53.2-5.8Z"/>
      </g>
    </g>
  </g>
  <g>
    <path class="cls-2" d="M570.7,255.1c0-1,.8-1.9,1.7-2.1,0,0,0-.2,0-.3,0,0,0,0,0,0l-2-.4c-1.2-.2-2.1-1.3-2-2.6,.1-1.2,1.1-2.1,2.3-2.2,0,0,0,0,0,0l-.8-.2c-1.1-.2-1.9-1.2-1.9-2.4,0-1.3,1.1-2.4,2.4-2.3,.2,0,.3,0,.5,0l1.9,.4s0,0,0,0,0,0,0,0c-1-.5-1.5-1.6-1.3-2.7,.2-1.4,1.9-1.8,3.1-1.6l10.9,2.2-2.6-1.9c-1.1-.7-1.4-2.2-.7-3.3,.7-1.1,2.2-1.4,3.3-.7,0,0,0,0,.1,0l14.1,10.3c3.5,2.5,4.3,7.3,1.8,10.9h0c-2.8,4-7.7,6-12.5,4.9l-16.6-3.7c-1.1-.3-2-1.3-1.9-2.5Z"/>
    <g class="cls-17">
      <path class="cls-9" d="M583.7,245.2c0,.1-.1,.2-.3,.2l-10.4-2.1c-.1,0-.2-.1-.2-.3s.1-.2,.3-.2l10.4,2.1c.1,0,.2,.1,.2,.3,0,0,0,0,0,0h0Z"/>
    </g>
    <g class="cls-17">
      <path class="cls-9" d="M582.9,249.8c0,.1-.1,.2-.3,.2l-11.6-2.4c-.1,0-.2-.1-.2-.3,0,0,0,0,0,0,0-.1,.1-.2,.3-.2l11.6,2.4c.1,0,.2,.1,.2,.3,0,0,0,0,0,0h0Z"/>
    </g>
    <g class="cls-17">
      <path class="cls-9" d="M582,254.8c0,.1-.1,.2-.3,.2l-9.2-1.9c-.1,0-.2-.1-.2-.3s.1-.2,.3-.2l9.2,1.9c.1,0,.2,.1,.2,.3h0Z"/>
    </g>
  </g>
  <g>
    <path class="cls-2" d="M224.4,202.5c7.6-1.1,28.4-.9,8,5.1"/>
    <path class="cls-2" d="M222.5,216.9s24.3,10,38.3-1.4c1-.8,1.1-2.3,.3-3.2-.4-.5-1-.8-1.6-.8-9.4-.6-28.8-2.5-26.5-8.7h-15.2"/>
  </g>
  <path class="cls-12" d="M152.4,227.3c.3,0,75-2.3,75.4-2.3l-.8-26-66.5,2-35.1-73.4-23.5,11.2,38.7,81.1c2.2,4.5,6.7,7.4,11.7,7.4Z"/>
</svg>