<?xml version="1.0" encoding="UTF-8"?>
<svg id="Capa_1" data-name="Capa 1" xmlns="http://www.w3.org/2000/svg" viewBox="0 0 800 600">
  <defs>
    <style>
      .cls-1 {
        opacity: 0;
      }

      .cls-2 {
        fill: #e4897b;
      }

      .cls-3, .cls-4, .cls-5, .cls-6, .cls-7 {
        fill: #fff;
      }

      .cls-8 {
        fill: #407bff;
      }

      .cls-9 {
        fill: #263238;
      }

      .cls-10 {
        fill: #262626;
      }

      .cls-4, .cls-11 {
        opacity: .2;
      }

      .cls-12 {
        fill: none;
        stroke: #fff;
        stroke-linecap: round;
        stroke-linejoin: round;
        stroke-width: .5px;
      }

      .cls-11 {
        isolation: isolate;
      }

      .cls-5 {
        opacity: .6;
      }

      .cls-6 {
        opacity: .7;
      }

      .cls-7 {
        opacity: .4;
      }
    </style>
  </defs>
  <g>
    <g>
      <rect class="cls-8" x="175.1" y="538" width="5.8" height="28.4"/>
      <rect class="cls-8" x="334.8" y="538" width="5.8" height="28.4"/>
      <rect class="cls-8" x="381.8" y="343.1" width="27.1" height="223.4"/>
      <rect class="cls-5" x="175.1" y="538" width="5.8" height="28.4"/>
      <rect class="cls-5" x="334.8" y="538" width="5.8" height="28.4"/>
      <rect class="cls-5" x="381.8" y="343.1" width="27.1" height="223.4"/>
    </g>
    <g>
      <polygon class="cls-8" points="445.8 571.3 142.4 571.3 151 561.5 437.2 561.5 445.8 571.3"/>
      <polygon class="cls-4" points="445.8 571.3 357.7 571.3 366.4 561.5 437.2 561.5 445.8 571.3"/>
    </g>
    <g>
      <path class="cls-8" d="M262.8,327l-94.5,217.4c-1.4,3.2,.9,6.7,4.4,6.7h162c2.4,0,4.6-1.4,5.6-3.7l94.5-217.4c1.4-3.2-.9-6.7-4.4-6.7h-162c-2.4,0-4.6,1.4-5.6,3.7Z"/>
      <path class="cls-6" d="M262.8,327l-94.5,217.4c-1.4,3.2,.9,6.7,4.4,6.7h162c2.4,0,4.6-1.4,5.6-3.7l94.5-217.4c1.4-3.2-.9-6.7-4.4-6.7h-162c-2.4,0-4.6,1.4-5.6,3.7Z"/>
      <polygon class="cls-11" points="318.4 463.3 347 397.5 284.3 397.5 255.7 463.3 318.4 463.3"/>
      <g>
        <path class="cls-11" d="M178.4,540.8c-1.3,0-2.4,1.1-2.4,2.4s1.1,2.4,2.4,2.4,2.4-1.1,2.4-2.4-1.1-2.4-2.4-2.4Z"/>
        <path class="cls-11" d="M329.5,540.8c-1.3,0-2.4,1.1-2.4,2.4s1.1,2.4,2.4,2.4,2.4-1.1,2.4-2.4-1.1-2.4-2.4-2.4Z"/>
        <path class="cls-11" d="M270.9,329.4c-1.3,0-2.4,1.1-2.4,2.4s1.1,2.4,2.4,2.4,2.4-1.1,2.4-2.4-1.1-2.4-2.4-2.4Z"/>
        <path class="cls-11" d="M421.9,329.4c-1.3,0-2.4,1.1-2.4,2.4s1.1,2.4,2.4,2.4,2.4-1.1,2.4-2.4-1.1-2.4-2.4-2.4Z"/>
      </g>
    </g>
  </g>
  <g>
    <g>
      <rect class="cls-8" x="441.6" y="538" width="5.8" height="28.4"/>
      <rect class="cls-8" x="601.3" y="538" width="5.8" height="28.4"/>
      <rect class="cls-8" x="648.3" y="343.1" width="27.1" height="223.4"/>
      <rect class="cls-5" x="441.6" y="538" width="5.8" height="28.4"/>
      <rect class="cls-5" x="601.3" y="538" width="5.8" height="28.4"/>
      <rect class="cls-5" x="648.3" y="343.1" width="27.1" height="223.4"/>
    </g>
    <g>
      <polygon class="cls-9" points="736.7 244.4 602.6 553 404.1 553 538.2 244.4 736.7 244.4"/>
      <polygon class="cls-5" points="736.7 244.4 602.6 553 404.1 553 538.2 244.4 736.7 244.4"/>
      <g>
        <polygon class="cls-9" points="654.3 423 609.6 423 592.1 463.2 636.8 463.2 654.3 423"/>
        <polygon class="cls-9" points="572.8 507.6 617.5 507.6 635 467.3 590.3 467.3 572.8 507.6"/>
        <polygon class="cls-9" points="605.6 423 560.9 423 543.3 463.2 588.1 463.2 605.6 423"/>
        <polygon class="cls-9" points="712.2 289.8 667.5 289.8 650 330.1 694.7 330.1 712.2 289.8"/>
        <polygon class="cls-9" points="524 507.6 568.8 507.6 586.3 467.3 541.6 467.3 524 507.6"/>
        <polygon class="cls-9" points="673.6 378.6 628.9 378.6 611.4 418.9 656.1 418.9 673.6 378.6"/>
        <polygon class="cls-9" points="692.9 334.2 648.2 334.2 630.7 374.5 675.4 374.5 692.9 334.2"/>
        <polygon class="cls-9" points="509.9 418.9 527.4 378.6 483.9 378.6 466.4 418.9 509.9 418.9"/>
        <polygon class="cls-9" points="490.6 463.2 508.1 423 464.6 423 447.1 463.2 490.6 463.2"/>
        <polygon class="cls-9" points="566 289.8 522.5 289.8 505 330.1 548.5 330.1 566 289.8"/>
        <polygon class="cls-9" points="471.3 507.6 488.8 467.3 445.3 467.3 427.8 507.6 471.3 507.6"/>
        <polygon class="cls-9" points="529.2 374.5 546.7 334.2 503.2 334.2 485.7 374.5 529.2 374.5"/>
        <polygon class="cls-9" points="730.2 248.5 685.4 248.5 669.3 285.7 714 285.7 730.2 248.5"/>
        <polygon class="cls-9" points="615.7 511.7 571 511.7 554.9 548.9 599.6 548.9 615.7 511.7"/>
        <polygon class="cls-9" points="469.5 511.7 426 511.7 409.9 548.9 453.3 548.9 469.5 511.7"/>
        <polygon class="cls-9" points="567.8 285.7 583.9 248.5 540.5 248.5 524.3 285.7 567.8 285.7"/>
        <polygon class="cls-9" points="576.1 378.6 531.4 378.6 513.9 418.9 558.6 418.9 576.1 378.6"/>
        <polygon class="cls-9" points="556.8 423 512.1 423 494.6 463.2 539.3 463.2 556.8 423"/>
        <polygon class="cls-9" points="681.4 248.5 636.7 248.5 620.5 285.7 665.3 285.7 681.4 248.5"/>
        <polygon class="cls-9" points="567 511.7 522.3 511.7 506.1 548.9 550.8 548.9 567 511.7"/>
        <polygon class="cls-9" points="663.5 289.8 618.8 289.8 601.2 330.1 646 330.1 663.5 289.8"/>
        <polygon class="cls-9" points="644.2 334.2 599.5 334.2 581.9 374.5 626.7 374.5 644.2 334.2"/>
        <polygon class="cls-9" points="475.3 507.6 520 507.6 537.5 467.3 492.8 467.3 475.3 507.6"/>
        <polygon class="cls-9" points="502.1 548.9 518.2 511.7 473.5 511.7 457.4 548.9 502.1 548.9"/>
        <polygon class="cls-9" points="632.7 248.5 588 248.5 571.8 285.7 616.5 285.7 632.7 248.5"/>
        <polygon class="cls-9" points="624.9 378.6 580.2 378.6 562.6 418.9 607.4 418.9 624.9 378.6"/>
        <polygon class="cls-9" points="614.7 289.8 570 289.8 552.5 330.1 597.2 330.1 614.7 289.8"/>
        <polygon class="cls-9" points="595.4 334.2 550.7 334.2 533.2 374.5 577.9 374.5 595.4 334.2"/>
      </g>
      <g class="cls-1">
        <polygon class="cls-3" points="666.3 244.4 488.6 358.7 538.3 244.4 666.3 244.4"/>
        <polygon class="cls-3" points="723.2 244.4 466.5 409.4 478.6 381.6 692 244.4 723.2 244.4"/>
        <polygon class="cls-3" points="725.2 270.9 719.2 284.8 443.7 461.9 449.7 448 725.2 270.9"/>
      </g>
      <g class="cls-1">
        <polygon class="cls-3" points="612.8 529.4 602.6 553 576.1 553 612.8 529.4"/>
        <polygon class="cls-3" points="630.3 489.3 620.7 511.3 555.8 553 531.2 553 630.3 489.3"/>
        <polygon class="cls-3" points="648.3 447.9 643.5 458.9 497.1 553 484.8 553 648.3 447.9"/>
      </g>
    </g>
    <g>
      <polygon class="cls-8" points="720.5 571.3 417 571.3 425.7 561.5 711.9 561.5 720.5 571.3"/>
      <polygon class="cls-4" points="720.5 571.3 632.4 571.3 641 561.5 711.9 561.5 720.5 571.3"/>
    </g>
  </g>
  <g>
    <g>
      <rect class="cls-9" x="86.5" y="117.5" width="302.1" height="198.5" transform="translate(17.7 451.5) rotate(-89.3)"/>
      <rect class="cls-5" x="86.5" y="117.5" width="302.1" height="198.5" transform="translate(17.7 451.5) rotate(-89.3)"/>
      <g>
        <rect class="cls-9" x="289.3" y="238.8" width="39.4" height="44.7" transform="translate(44 566.8) rotate(-89.3)"/>
        <rect class="cls-9" x="288.8" y="282.2" width="39.4" height="44.7" transform="translate(0 609.2) rotate(-89.3)"/>
        <rect class="cls-9" x="240.6" y="238.2" width="39.4" height="44.7" transform="translate(-3.5 517.5) rotate(-89.3)"/>
        <rect class="cls-9" x="291" y="108.4" width="39.4" height="44.7" transform="translate(175.9 439.8) rotate(-89.3)"/>
        <rect class="cls-9" x="240" y="281.6" width="39.4" height="44.7" transform="translate(-47.5 559.8) rotate(-89.3)"/>
        <rect class="cls-9" x="289.9" y="195.3" width="39.4" height="44.7" transform="translate(88 524.5) rotate(-89.3)"/>
        <rect class="cls-9" x="290.4" y="151.9" width="39.4" height="44.7" transform="translate(132 482.2) rotate(-89.3)"/>
        <rect class="cls-9" x="144.3" y="194.1" width="39.4" height="43.5" transform="translate(-53.9 377.1) rotate(-89.3)"/>
        <rect class="cls-9" x="143.7" y="237.6" width="39.4" height="43.5" transform="translate(-97.9 419.4) rotate(-89.3)"/>
        <rect class="cls-9" x="145.4" y="107.2" width="39.4" height="43.5" transform="translate(34.1 292.4) rotate(-89.3)"/>
        <rect class="cls-9" x="143.2" y="281" width="39.4" height="43.5" transform="translate(-141.9 461.8) rotate(-89.3)"/>
        <rect class="cls-9" x="144.8" y="150.7" width="39.4" height="43.5" transform="translate(-9.9 334.8) rotate(-89.3)"/>
        <rect class="cls-9" x="293.1" y="66.5" width="36.4" height="44.7" transform="translate(218.4 399) rotate(-89.3)"/>
        <rect class="cls-9" x="289.8" y="324.2" width="36.4" height="44.7" transform="translate(-42.5 650) rotate(-89.3)"/>
        <rect class="cls-9" x="144.2" y="322.9" width="36.4" height="43.5" transform="translate(-184.3 502.6) rotate(-89.3)"/>
        <rect class="cls-9" x="147.5" y="65.3" width="36.4" height="43.5" transform="translate(76.5 251.6) rotate(-89.3)"/>
        <rect class="cls-9" x="192.4" y="194.1" width="39.4" height="44.7" transform="translate(-7 425.8) rotate(-89.3)"/>
        <rect class="cls-9" x="191.8" y="237.5" width="39.4" height="44.7" transform="translate(-51 468.1) rotate(-89.3)"/>
        <rect class="cls-9" x="244.3" y="65.9" width="36.4" height="44.7" transform="translate(170.9 349.6) rotate(-89.3)"/>
        <rect class="cls-9" x="241" y="323.5" width="36.4" height="44.7" transform="translate(-90 600.7) rotate(-89.3)"/>
        <rect class="cls-9" x="242.3" y="107.8" width="39.4" height="44.7" transform="translate(128.4 390.5) rotate(-89.3)"/>
        <rect class="cls-9" x="241.7" y="151.3" width="39.4" height="44.7" transform="translate(84.5 432.8) rotate(-89.3)"/>
        <rect class="cls-9" x="191.3" y="281" width="39.4" height="44.7" transform="translate(-95 510.5) rotate(-89.3)"/>
        <rect class="cls-9" x="192.3" y="322.9" width="36.4" height="44.7" transform="translate(-137.5 551.3) rotate(-89.3)"/>
        <rect class="cls-9" x="195.6" y="65.3" width="36.4" height="44.7" transform="translate(123.4 300.3) rotate(-89.3)"/>
        <rect class="cls-9" x="241.1" y="194.7" width="39.4" height="44.7" transform="translate(40.5 475.2) rotate(-89.3)"/>
        <rect class="cls-9" x="193.5" y="107.2" width="39.4" height="44.7" transform="translate(80.9 341.1) rotate(-89.3)"/>
        <rect class="cls-9" x="193" y="150.7" width="39.4" height="44.7" transform="translate(37 383.5) rotate(-89.3)"/>
      </g>
      <g class="cls-1">
        <polygon class="cls-3" points="268.2 66.1 138.8 176.3 140.2 64.5 268.2 66.1"/>
        <polygon class="cls-3" points="325.1 66.8 138.1 226 138.5 198.8 294 66.4 325.1 66.8"/>
        <polygon class="cls-3" points="338.3 93 338.2 106.6 137.5 277.4 137.6 263.8 338.3 93"/>
      </g>
      <g class="cls-1">
        <polygon class="cls-3" points="335.1 346 334.8 369.1 308.4 368.7 335.1 346"/>
        <polygon class="cls-3" points="335.6 306.7 335.3 328.3 288.1 368.5 263.4 368.2 335.6 306.7"/>
        <polygon class="cls-3" points="336.1 266.2 336 276.9 229.3 367.7 217 367.6 336.1 266.2"/>
      </g>
    </g>
    <g id="_Group_" data-name="&amp;lt;Group&amp;gt;">
      <path class="cls-2" d="M127.9,159.1s-24.5,10.8-32.4,1.1c-7.9-9.7,35.4-61,35.4-61,0,0,.7-15.1,2.8-17.7s7-5.2,7-5.2l1.6,29.6-4.5,.4s-23.2,31.2-22.8,33.9c.4,2.7,12.9-3,12.9-3v21.7Z"/>
      <g>
        <path class="cls-8" d="M184.7,237s20.3-43.3,18.8-53.5c-1.5-10.2-35.6,34.1-35.6,34.1l-2.7,15.2,19.6,4.2Z"/>
        <path class="cls-7" d="M184.7,237s20.3-43.3,18.8-53.5c-1.5-10.2-35.6,34.1-35.6,34.1l-2.7,15.2,19.6,4.2Z"/>
        <path class="cls-11" d="M183.3,235.8s20.3-43.3,18.8-53.5c-1.5-10.2-35.6,34.1-35.6,34.1l-2.7,15.2,19.6,4.2Z"/>
      </g>
      <polygon class="cls-2" points="217.7 564.8 233.6 566.5 234.4 557.3 236.6 532.1 220.7 530.4 218.2 558.2 217.7 564.8"/>
      <polygon class="cls-2" points="79.2 562.8 94.7 562.8 95.4 559.3 95.5 558.9 100.3 536.6 100.4 536.1 102.3 527.6 86.8 527.6 79.2 562.8"/>
      <polygon class="cls-11" points="220.7 530.4 218.2 558.2 234.4 557.3 236.6 532.1 220.7 530.4"/>
      <polygon class="cls-11" points="79.7 560.8 79.7 560.8 95.5 558.9 95.5 558.9 100.2 537.4 100.2 537.4 84.5 538.6 79.8 560.2 79.7 560.8"/>
      <path class="cls-9" d="M96.8,561.9h-18.8c-.6,0-1.2,.4-1.3,1.1l-3,13.8c-.3,1.2,.5,2.4,1.8,2.7,.2,0,.3,0,.5,0,6.1,0,10.5-.5,18.1-.5s18.9,.5,25.3,.5,7.3-6.4,4.7-7c-11.9-2.6-20.9-6.2-24.7-9.6-.7-.6-1.6-1-2.6-1Z"/>
      <path class="cls-9" d="M235.3,561.4h-18.8c-.6,0-1.2,.4-1.3,1.1l-3,13.8c-.3,1.2,.5,2.4,1.8,2.7,.2,0,.3,0,.5,0,6.1,0,10.5-.5,18.1-.5s18.9,.5,25.3,.5,7.3-6.4,4.7-7c-11.9-2.6-20.9-6.2-24.7-9.6-.7-.6-1.6-1-2.6-1Z"/>
      <g>
        <path class="cls-8" d="M238,551l-22.8,.7c8.3-152.4,12.2-160.1-61.8-232.1-1.7,21.8-3.7,44.3-5.6,63.2-1.2,11.6-1.6,21.8-3.5,29.3-13.2,50.5-44.8,139.8-44.8,139.8l-22.2,1s27.8-122.4,30.7-162.3c3.8-52.3-28.8-112.6,2.9-169.3l73.8,14.4-.5,18.1c70.5,103.1,83.3,125.4,53.9,297.2Z"/>
        <path class="cls-10" d="M238,551l-22.8,.7c8.3-152.4,12.2-160.1-61.8-232.1-1.7,21.8-3.7,44.3-5.6,63.2-1.2,11.6-1.6,21.8-3.5,29.3-13.2,50.5-44.8,139.8-44.8,139.8l-22.2,1s27.8-122.4,30.7-162.3c3.8-52.3-28.8-112.6,2.9-169.3l73.8,14.4-.5,18.1c70.5,103.1,83.3,125.4,53.9,297.2Z"/>
      </g>
      <path class="cls-2" d="M223.5,181s42,7.6,50,6.3c8-1.3,50.5-34.8,50.5-34.8,0,0,14-.8,14.7-5.5,.7-4.7,2.6-13.2-1.4-13-4,.3-15.7,5.5-15.7,5.5l-1.5,3.9s-46.8,28.2-48.5,28.8c-1.7,.6-42-10.4-42-10.4l-6,19.1Z"/>
      <path class="cls-8" d="M147.5,125.9c-13.8,0-25.6,8.9-38.3,15.2l9.1,22.6,29-1.8,.2-36Z"/>
      <g>
        <path class="cls-2" d="M217,122.6c-.5,.5-.9,1-1.4,1.5-2.9,2.8-6.5,4.6-10.2,5.2-1,.2-2,.3-2.9,.3-5.2,.1-10.3-1.9-13.8-6-1.4-1.7-2.6-3.7-3.4-6.1-3.2-9.4,.6-16.6,5.9-29.3,1.1-2.8,2.8-5.2,5.1-7.1,7.8-6.9,19.7-6.1,26.6,1.7,9.7,10.9,2.3,30-5.8,39.8Z"/>
        <path class="cls-11" d="M205.4,129.3c-1,.2-2,.3-2.9,.3-5.2,.1-10.3-1.9-13.8-6,2-2,4.3-3.1,4.3-3.1,0,0,7.9,2.5,12.5,8.8Z"/>
        <g>
          <path class="cls-9" d="M229.8,89.3c-.7,0-6.4,4.8-6.7,6.6-1,4.8-6.4,11.6-11.2,13.8-4.8,2.2-12.1,12.5-12.1,12.5,0,0-7.9-6.7-16.3-6.8,0,0-9.8-17.9-.2-39l46.4,12.9Z"/>
          <path class="cls-4" d="M229.8,89.3c-.7,0-6.4,4.8-6.7,6.6-1,4.8-6.4,11.6-11.2,13.8-4.8,2.2-12.1,12.5-12.1,12.5,0,0-7.9-6.7-16.3-6.8,0,0-9.8-17.9-.2-39l46.4,12.9Z"/>
        </g>
        <path class="cls-2" d="M208.4,105.5c-.6,3,0,5.7,1.4,7.5,2,2.3,5.4-.4,6.8-4.3,1.3-3.5,1.8-8.9-1.2-9.6-3-.7-6.3,2.7-7.1,6.5Z"/>
        <path class="cls-9" d="M219.8,93.6s1.5,32.8-23.7,33v1.4s22.6,2,27.9-31.9l-4.2-2.5Z"/>
        <path class="cls-3" d="M180.3,85.3s1.4,3.6,6.2,5.4c4.9,1.8,28.1-4.2,28.1-4.2l4.2,3.1s-23.3,7.7-32.2,6.4c-8.9-1.3-7.5-7.9-7.5-7.9l1.2-2.8Z"/>
        <path class="cls-2" d="M167.8,129.6c3.4,8.5,28.2,10.8,28.2,10.8,0,0-.4-2.7,0-6.6,.3-2.2,1.3-4.4,2.5-6.5,.6-1.1,1.4-2.2,2.2-3.3l-16.2-8.6c-3.8,6.8-7.6,10.6-16.7,14.2Z"/>
        <g>
          <path class="cls-8" d="M234.8,99s1.2,2.7-.8,4.5c-2.1,1.8-6.6,0-6.6,0,0,0-15.5-24.6-46.4-23.8,0,0-2.3-3.2-1.8-5.3,.5-2.1,4.9-3.6,4.9-3.6,0,0,2.9-3.1,8-6.1,4.1-2.4,9.5-4.9,16-5.7,14.6-1.9,29.7,13.6,30.4,17.5,.7,3.8-2.9,8.5-2.9,8.5,0,0,1.3,7.5-.8,14.1Z"/>
          <path class="cls-11" d="M234.8,99c-14.8-25.2-50.7-28.2-50.7-28.2,0,0,2.9-3.1,8-6.1,.3,3.1,3.9,4.4,6.8,4.7,4,.4,20.6-4.2,28.5,1.5,7.9,5.6,8.2,14.1,8.2,14.1,0,0,1.3,7.5-.8,14.1Z"/>
        </g>
      </g>
      <path class="cls-11" d="M153.5,319.6c-1.7,21.8-3.7,44.4-5.6,63.2-2.8-27.2-6.2-46.5-6.2-46.5,0,0-3.2-2.6-12-16.7-8.8-14.1,0-40.3,0-40.3-.3,24.4,23.8,40.3,23.8,40.3Z"/>
      <polygon class="cls-8" points="240.6 548.6 239.5 554.9 212.7 554.9 212.7 549 240.6 548.6"/>
      <polygon class="cls-8" points="102.2 551 99.6 556.9 75.3 556.9 75.7 551 102.2 551"/>
      <path class="cls-8" d="M220.9,149.8c13,7.8,23.3,15.3,23.3,15.3l-9.4,20-37.5-6.6s3.3-8.3,9.8-18.6c6.5-10.3,13.8-10.2,13.8-10.2Z"/>
      <polygon class="cls-7" points="240.6 548.6 239.5 554.9 212.7 554.9 212.7 549 240.6 548.6"/>
      <polygon class="cls-7" points="102.2 551 99.6 556.9 75.3 556.9 75.7 551 102.2 551"/>
      <g>
        <polygon class="cls-9" points="108.3 223.4 133.7 228.2 132.2 234.6 105.5 229.2 108.3 223.4"/>
        <polygon class="cls-9" points="138 229 169.3 235 168.7 241.8 136.6 235.4 138 229"/>
        <polygon class="cls-9" points="186.1 238.2 186.1 245.3 173.2 242.7 173.6 235.8 186.1 238.2"/>
      </g>
      <path class="cls-8" d="M110.9,221.3s16.4-77.7,33.2-94.5c0,0,42.6-7.7,76.8,23,0,0-29,49.8-36.2,85.9l-73.8-14.4Z"/>
      <g>
        <path class="cls-12" d="M133.6,229.4l4.1,.9c.7,.2,1.4-.5,1.2-1.2l-1.2-4.3c-.2-.8-1.2-1-1.7-.4l-2.9,3.4c-.5,.6-.2,1.5,.5,1.6Z"/>
        <path class="cls-12" d="M159.5,154.7l3.8,1.7c.7,.3,1.5-.2,1.4-1l-.3-4.4c0-.8-1-1.2-1.6-.7l-3.5,2.7c-.6,.5-.5,1.4,.2,1.7Z"/>
        <path class="cls-9" d="M159.9,153.7s-12,22.2-24.6,67.8l4.9,1.4s12.8-47.5,23.5-67.5l-3.8-1.8Z"/>
        <line class="cls-12" x1="136.6" y1="225.5" x2="137.2" y2="222.6"/>
        <line class="cls-12" x1="135.3" y1="221.5" x2="140.4" y2="222.9"/>
        <path class="cls-9" d="M163.7,151.2s14.4-11.8,36.2-16.4l5.5,2.9s-14.7,2.3-41.4,17.4l-.3-3.9Z"/>
        <path class="cls-9" d="M159.9,153.3l3-2.1s.3-20.6,2.3-25.4h-3.4c0,.1-2.7,13.8-2,27.5Z"/>
      </g>
      <path class="cls-8" d="M317.2,143.7l5.8,11.7,1.6-1.4s14.4-.6,15.3-2.3c.9-1.7,4.4-18.6,2.1-19.5-2.3-.9-20.4,5.3-21.1,5.5-.7,.2-1.6,4.8-1.6,4.8l-2.1,1.2Z"/>
      <path class="cls-8" d="M128.7,99.3l8.4,9.9,1.2-1.9,4-1.2-1.6-29.6s-7.8,4.6-8.2,5.2c-.4,.5-2.4,17.4-2.4,17.4l-1.5,.3Z"/>
    </g>
  </g>
</svg>